<mxfile host="65bd71144e" pages="5">
    <diagram id="oH97HPenoR_J1FncyDgq" name="ID">
        <mxGraphModel dx="224" dy="585" grid="1" gridSize="10" guides="1" tooltips="1" connect="1" arrows="1" fold="1" page="1" pageScale="1" pageWidth="827" pageHeight="1169" math="0" shadow="0">
            <root>
                <mxCell id="lHx_vhJmdhEzVIRUqCmb-0"/>
                <mxCell id="lHx_vhJmdhEzVIRUqCmb-1" parent="lHx_vhJmdhEzVIRUqCmb-0"/>
                <mxCell id="0-e8eHMlHqKAEXfIr2hU-0" value="Welt" style="swimlane;fontStyle=0;align=center;verticalAlign=top;childLayout=stackLayout;horizontal=1;startSize=26;horizontalStack=0;resizeParent=1;resizeLast=0;collapsible=1;marginBottom=0;rounded=0;shadow=0;strokeWidth=1;" parent="lHx_vhJmdhEzVIRUqCmb-1" vertex="1">
                    <mxGeometry x="127" y="100" width="240" height="160" as="geometry">
                        <mxRectangle x="130" y="380" width="160" height="26" as="alternateBounds"/>
                    </mxGeometry>
                </mxCell>
                <mxCell id="0-e8eHMlHqKAEXfIr2hU-2" value="- " style="text;align=left;verticalAlign=top;spacingLeft=4;spacingRight=4;overflow=hidden;rotatable=0;points=[[0,0.5],[1,0.5]];portConstraint=eastwest;rounded=0;shadow=0;html=0;" parent="0-e8eHMlHqKAEXfIr2hU-0" vertex="1">
                    <mxGeometry y="26" width="240" height="26" as="geometry"/>
                </mxCell>
                <mxCell id="0-e8eHMlHqKAEXfIr2hU-3" value="" style="line;html=1;strokeWidth=1;align=left;verticalAlign=middle;spacingTop=-1;spacingLeft=3;spacingRight=3;rotatable=0;labelPosition=right;points=[];portConstraint=eastwest;" parent="0-e8eHMlHqKAEXfIr2hU-0" vertex="1">
                    <mxGeometry y="52" width="240" height="8" as="geometry"/>
                </mxCell>
                <mxCell id="0-e8eHMlHqKAEXfIr2hU-4" value="+ Welt()&#10;+ Welt(Kontinente[] pKontinente)&#10;+ sortiereKontinenteNachEinwohnern(): void&#10;+ sortiereKontinenteNachFlaeche(): void&#10;+ ausgabeKontinente():void&#10;// get/set-Methoden&#10;" style="text;align=left;verticalAlign=top;spacingLeft=4;spacingRight=4;overflow=hidden;rotatable=0;points=[[0,0.5],[1,0.5]];portConstraint=eastwest;" parent="0-e8eHMlHqKAEXfIr2hU-0" vertex="1">
                    <mxGeometry y="60" width="240" height="100" as="geometry"/>
                </mxCell>
                <mxCell id="0-e8eHMlHqKAEXfIr2hU-14" value="Kontinent" style="swimlane;fontStyle=0;align=center;verticalAlign=top;childLayout=stackLayout;horizontal=1;startSize=26;horizontalStack=0;resizeParent=1;resizeLast=0;collapsible=1;marginBottom=0;rounded=0;shadow=0;strokeWidth=1;" parent="lHx_vhJmdhEzVIRUqCmb-1" vertex="1">
                    <mxGeometry x="478" y="95" width="220" height="190" as="geometry">
                        <mxRectangle x="240" y="470" width="160" height="26" as="alternateBounds"/>
                    </mxGeometry>
                </mxCell>
                <mxCell id="0-e8eHMlHqKAEXfIr2hU-15" value="- name: String&#10;- flaeche: long   // in km²&#10;- einwohner: long&#10;" style="text;align=left;verticalAlign=top;spacingLeft=4;spacingRight=4;overflow=hidden;rotatable=0;points=[[0,0.5],[1,0.5]];portConstraint=eastwest;" parent="0-e8eHMlHqKAEXfIr2hU-14" vertex="1">
                    <mxGeometry y="26" width="220" height="54" as="geometry"/>
                </mxCell>
                <mxCell id="0-e8eHMlHqKAEXfIr2hU-16" value="" style="line;html=1;strokeWidth=1;align=left;verticalAlign=middle;spacingTop=-1;spacingLeft=3;spacingRight=3;rotatable=0;labelPosition=right;points=[];portConstraint=eastwest;" parent="0-e8eHMlHqKAEXfIr2hU-14" vertex="1">
                    <mxGeometry y="80" width="220" height="8" as="geometry"/>
                </mxCell>
                <mxCell id="0-e8eHMlHqKAEXfIr2hU-17" value="+ Kontinent(long pFleache, long pEinwohner)&#10;+ hatGroessereFlaecheAls(Kontinent &#10;pVergleichsKontinent): boolean &#10;+ hatMehrEInwohnerAls(Kontinent &#10;pVergelichsKontinent: boolean&#10;// get/set-Methoden&#10;" style="text;align=left;verticalAlign=top;spacingLeft=4;spacingRight=4;overflow=hidden;rotatable=0;points=[[0,0.5],[1,0.5]];portConstraint=eastwest;fontStyle=0" parent="0-e8eHMlHqKAEXfIr2hU-14" vertex="1">
                    <mxGeometry y="88" width="220" height="102" as="geometry"/>
                </mxCell>
                <mxCell id="0-e8eHMlHqKAEXfIr2hU-21" style="edgeStyle=orthogonalEdgeStyle;rounded=0;orthogonalLoop=1;jettySize=auto;html=1;exitX=1.015;exitY=0.814;exitDx=0;exitDy=0;exitPerimeter=0;" parent="lHx_vhJmdhEzVIRUqCmb-1" source="0-e8eHMlHqKAEXfIr2hU-2" target="0-e8eHMlHqKAEXfIr2hU-15" edge="1">
                    <mxGeometry relative="1" as="geometry"/>
                </mxCell>
                <mxCell id="0-e8eHMlHqKAEXfIr2hU-22" value="dieKontinente[ ]" style="edgeLabel;html=1;align=center;verticalAlign=middle;resizable=0;points=[];" parent="0-e8eHMlHqKAEXfIr2hU-21" vertex="1" connectable="0">
                    <mxGeometry x="-0.1365" y="-1" relative="1" as="geometry">
                        <mxPoint x="1" y="-9.2" as="offset"/>
                    </mxGeometry>
                </mxCell>
                <mxCell id="CckkxLMqB0Q9Q8Jketxq-0" value="6" style="text;html=1;align=center;verticalAlign=middle;resizable=0;points=[];autosize=1;" parent="lHx_vhJmdhEzVIRUqCmb-1" vertex="1">
                    <mxGeometry x="461" y="130" width="20" height="20" as="geometry"/>
                </mxCell>
                <mxCell id="2UKAeWI6AKpcWCz1fteV-1" value="&lt;font color=&quot;#000000&quot;&gt;&lt;b&gt;FRAGEN zum OOD&lt;/b&gt;:&lt;br&gt;&lt;/font&gt;&lt;div style=&quot;text-align: left&quot;&gt;&lt;ol&gt;&lt;li&gt;&lt;span&gt;&lt;font color=&quot;#000000&quot;&gt;Sollen die Methoden zum Größenvergleich in der Klasse Kontinent implementiert werden? Ansonsten kann das auch an beliebiger anderer Stelle (Methode in beliebiger Klasse) geschehen, wo dieser Vergleich gebraucht wird.&lt;/font&gt;&lt;/span&gt;&lt;/li&gt;&lt;li&gt;&lt;span&gt;&lt;font color=&quot;#000000&quot;&gt;In welcher Klasse soll die main-Methode?&amp;nbsp;&lt;/font&gt;&lt;/span&gt;&lt;/li&gt;&lt;ol&gt;&lt;li&gt;&lt;span&gt;&lt;font color=&quot;#000000&quot;&gt;Welt-Klasse?&lt;/font&gt;&lt;/span&gt;&lt;/li&gt;&lt;li&gt;&lt;font color=&quot;#000000&quot;&gt;In eine extra Klasse. (Main.java)?&lt;/font&gt;&lt;/li&gt;&lt;/ol&gt;&lt;/ol&gt;&lt;/div&gt;" style="text;html=1;strokeColor=#b85450;fillColor=#f8cecc;align=center;verticalAlign=middle;whiteSpace=wrap;rounded=0;" parent="lHx_vhJmdhEzVIRUqCmb-1" vertex="1">
                    <mxGeometry x="120" y="300" width="430" height="170" as="geometry"/>
                </mxCell>
            </root>
        </mxGraphModel>
    </diagram>
    <diagram id="C5RBs43oDa-KdzZeNtuy" name="ALLES">
        <mxGraphModel dx="1024" dy="601" grid="1" gridSize="10" guides="1" tooltips="1" connect="1" arrows="1" fold="1" page="1" pageScale="1" pageWidth="827" pageHeight="1169" math="0" shadow="0">
            <root>
                <mxCell id="WIyWlLk6GJQsqaUBKTNV-0"/>
                <mxCell id="WIyWlLk6GJQsqaUBKTNV-1" parent="WIyWlLk6GJQsqaUBKTNV-0"/>
                <mxCell id="RaMJIoxxGXZGlO1l5RyE-3" value="Rover" style="swimlane;fontStyle=0;align=center;verticalAlign=top;childLayout=stackLayout;horizontal=1;startSize=26;horizontalStack=0;resizeParent=1;resizeLast=0;collapsible=1;marginBottom=0;rounded=0;shadow=0;strokeWidth=1;" parent="WIyWlLk6GJQsqaUBKTNV-1" vertex="1">
                    <mxGeometry x="490" y="20" width="210" height="400" as="geometry">
                        <mxRectangle x="130" y="380" width="160" height="26" as="alternateBounds"/>
                    </mxGeometry>
                </mxCell>
                <mxCell id="RaMJIoxxGXZGlO1l5RyE-4" value="- name: String" style="text;align=left;verticalAlign=top;spacingLeft=4;spacingRight=4;overflow=hidden;rotatable=0;points=[[0,0.5],[1,0.5]];portConstraint=eastwest;" parent="RaMJIoxxGXZGlO1l5RyE-3" vertex="1">
                    <mxGeometry y="26" width="210" height="26" as="geometry"/>
                </mxCell>
                <mxCell id="RaMJIoxxGXZGlO1l5RyE-5" value="- fahrstrecke: int" style="text;align=left;verticalAlign=top;spacingLeft=4;spacingRight=4;overflow=hidden;rotatable=0;points=[[0,0.5],[1,0.5]];portConstraint=eastwest;rounded=0;shadow=0;html=0;" parent="RaMJIoxxGXZGlO1l5RyE-3" vertex="1">
                    <mxGeometry y="52" width="210" height="26" as="geometry"/>
                </mxCell>
                <mxCell id="RaMJIoxxGXZGlO1l5RyE-6" value="- funkfrequenz: char" style="text;align=left;verticalAlign=top;spacingLeft=4;spacingRight=4;overflow=hidden;rotatable=0;points=[[0,0.5],[1,0.5]];portConstraint=eastwest;rounded=0;shadow=0;html=0;" parent="RaMJIoxxGXZGlO1l5RyE-3" vertex="1">
                    <mxGeometry y="78" width="210" height="26" as="geometry"/>
                </mxCell>
                <mxCell id="RaMJIoxxGXZGlO1l5RyE-7" value="" style="line;html=1;strokeWidth=1;align=left;verticalAlign=middle;spacingTop=-1;spacingLeft=3;spacingRight=3;rotatable=0;labelPosition=right;points=[];portConstraint=eastwest;" parent="RaMJIoxxGXZGlO1l5RyE-3" vertex="1">
                    <mxGeometry y="104" width="210" height="8" as="geometry"/>
                </mxCell>
                <mxCell id="RaMJIoxxGXZGlO1l5RyE-8" value="+ Rover(pName: String, &#10;pFunkfrequenz: char)&#10;" style="text;align=left;verticalAlign=top;spacingLeft=4;spacingRight=4;overflow=hidden;rotatable=0;points=[[0,0.5],[1,0.5]];portConstraint=eastwest;" parent="RaMJIoxxGXZGlO1l5RyE-3" vertex="1">
                    <mxGeometry y="112" width="210" height="38" as="geometry"/>
                </mxCell>
                <mxCell id="S36DxifoUsPr3A8fcq5J-0" value="+ Rover()&#10;" style="text;align=left;verticalAlign=top;spacingLeft=4;spacingRight=4;overflow=hidden;rotatable=0;points=[[0,0.5],[1,0.5]];portConstraint=eastwest;" parent="RaMJIoxxGXZGlO1l5RyE-3" vertex="1">
                    <mxGeometry y="150" width="210" height="38" as="geometry"/>
                </mxCell>
                <mxCell id="RaMJIoxxGXZGlO1l5RyE-11" value="+ fahre(): void" style="text;align=left;verticalAlign=top;spacingLeft=4;spacingRight=4;overflow=hidden;rotatable=0;points=[[0,0.5],[1,0.5]];portConstraint=eastwest;" parent="RaMJIoxxGXZGlO1l5RyE-3" vertex="1">
                    <mxGeometry y="188" width="210" height="26" as="geometry"/>
                </mxCell>
                <mxCell id="RaMJIoxxGXZGlO1l5RyE-9" value="+ drehe(pRichtung: String):void" style="text;align=left;verticalAlign=top;spacingLeft=4;spacingRight=4;overflow=hidden;rotatable=0;points=[[0,0.5],[1,0.5]];portConstraint=eastwest;fontStyle=0" parent="RaMJIoxxGXZGlO1l5RyE-3" vertex="1">
                    <mxGeometry y="214" width="210" height="26" as="geometry"/>
                </mxCell>
                <mxCell id="RaMJIoxxGXZGlO1l5RyE-10" value="+ gesteinVorhanden(): boolean" style="text;align=left;verticalAlign=top;spacingLeft=4;spacingRight=4;overflow=hidden;rotatable=0;points=[[0,0.5],[1,0.5]];portConstraint=eastwest;fontStyle=0" parent="RaMJIoxxGXZGlO1l5RyE-3" vertex="1">
                    <mxGeometry y="240" width="210" height="26" as="geometry"/>
                </mxCell>
                <mxCell id="RaMJIoxxGXZGlO1l5RyE-14" value="+ funken(pNachricht: String): void" style="text;align=left;verticalAlign=top;spacingLeft=4;spacingRight=4;overflow=hidden;rotatable=0;points=[[0,0.5],[1,0.5]];portConstraint=eastwest;fontStyle=0" parent="RaMJIoxxGXZGlO1l5RyE-3" vertex="1">
                    <mxGeometry y="266" width="210" height="26" as="geometry"/>
                </mxCell>
                <mxCell id="RaMJIoxxGXZGlO1l5RyE-23" value="+ getName(): String" style="text;align=left;verticalAlign=top;spacingLeft=4;spacingRight=4;overflow=hidden;rotatable=0;points=[[0,0.5],[1,0.5]];portConstraint=eastwest;fontStyle=0" parent="RaMJIoxxGXZGlO1l5RyE-3" vertex="1">
                    <mxGeometry y="292" width="210" height="26" as="geometry"/>
                </mxCell>
                <mxCell id="RaMJIoxxGXZGlO1l5RyE-24" value="+ getFrequenz(): char" style="text;align=left;verticalAlign=top;spacingLeft=4;spacingRight=4;overflow=hidden;rotatable=0;points=[[0,0.5],[1,0.5]];portConstraint=eastwest;fontStyle=0" parent="RaMJIoxxGXZGlO1l5RyE-3" vertex="1">
                    <mxGeometry y="318" width="210" height="26" as="geometry"/>
                </mxCell>
                <mxCell id="RaMJIoxxGXZGlO1l5RyE-25" value="+ getFahrstrecke(): int" style="text;align=left;verticalAlign=top;spacingLeft=4;spacingRight=4;overflow=hidden;rotatable=0;points=[[0,0.5],[1,0.5]];portConstraint=eastwest;fontStyle=0" parent="RaMJIoxxGXZGlO1l5RyE-3" vertex="1">
                    <mxGeometry y="344" width="210" height="26" as="geometry"/>
                </mxCell>
                <mxCell id="RaMJIoxxGXZGlO1l5RyE-26" value="+ setFrequenz(pFrequenz: char) :void" style="text;align=left;verticalAlign=top;spacingLeft=4;spacingRight=4;overflow=hidden;rotatable=0;points=[[0,0.5],[1,0.5]];portConstraint=eastwest;fontStyle=0" parent="RaMJIoxxGXZGlO1l5RyE-3" vertex="1">
                    <mxGeometry y="370" width="210" height="26" as="geometry"/>
                </mxCell>
                <mxCell id="u3g3huVzn0V5L7_7kDvZ-17" value="meinFunkgeraet" style="edgeStyle=orthogonalEdgeStyle;rounded=0;orthogonalLoop=1;jettySize=auto;html=1;exitX=1;exitY=0.5;exitDx=0;exitDy=0;entryX=0;entryY=0.5;entryDx=0;entryDy=0;" parent="WIyWlLk6GJQsqaUBKTNV-1" source="u3g3huVzn0V5L7_7kDvZ-0" target="u3g3huVzn0V5L7_7kDvZ-10" edge="1">
                    <mxGeometry x="-0.0339" y="10" relative="1" as="geometry">
                        <Array as="points">
                            <mxPoint x="170" y="465"/>
                            <mxPoint x="210" y="465"/>
                            <mxPoint x="210" y="554"/>
                        </Array>
                        <mxPoint as="offset"/>
                        <mxPoint x="330" y="495" as="targetPoint"/>
                    </mxGeometry>
                </mxCell>
                <mxCell id="u3g3huVzn0V5L7_7kDvZ-0" value="Rover" style="swimlane;fontStyle=0;align=center;verticalAlign=top;childLayout=stackLayout;horizontal=1;startSize=26;horizontalStack=0;resizeParent=1;resizeLast=0;collapsible=1;marginBottom=0;rounded=0;shadow=0;strokeWidth=1;" parent="WIyWlLk6GJQsqaUBKTNV-1" vertex="1">
                    <mxGeometry x="40" y="390" width="130" height="215" as="geometry">
                        <mxRectangle x="20" y="450" width="160" height="26" as="alternateBounds"/>
                    </mxGeometry>
                </mxCell>
                <mxCell id="u3g3huVzn0V5L7_7kDvZ-1" value="name: Text" style="text;align=left;verticalAlign=top;spacingLeft=4;spacingRight=4;overflow=hidden;rotatable=0;points=[[0,0.5],[1,0.5]];portConstraint=eastwest;" parent="u3g3huVzn0V5L7_7kDvZ-0" vertex="1">
                    <mxGeometry y="26" width="130" height="26" as="geometry"/>
                </mxCell>
                <mxCell id="u3g3huVzn0V5L7_7kDvZ-2" value="fahrstrecke: Zahl" style="text;align=left;verticalAlign=top;spacingLeft=4;spacingRight=4;overflow=hidden;rotatable=0;points=[[0,0.5],[1,0.5]];portConstraint=eastwest;rounded=0;shadow=0;html=0;" parent="u3g3huVzn0V5L7_7kDvZ-0" vertex="1">
                    <mxGeometry y="52" width="130" height="26" as="geometry"/>
                </mxCell>
                <mxCell id="u3g3huVzn0V5L7_7kDvZ-4" value="" style="line;html=1;strokeWidth=1;align=left;verticalAlign=middle;spacingTop=-1;spacingLeft=3;spacingRight=3;rotatable=0;labelPosition=right;points=[];portConstraint=eastwest;" parent="u3g3huVzn0V5L7_7kDvZ-0" vertex="1">
                    <mxGeometry y="78" width="130" height="32" as="geometry"/>
                </mxCell>
                <mxCell id="u3g3huVzn0V5L7_7kDvZ-5" value="fahre" style="text;align=left;verticalAlign=top;spacingLeft=4;spacingRight=4;overflow=hidden;rotatable=0;points=[[0,0.5],[1,0.5]];portConstraint=eastwest;" parent="u3g3huVzn0V5L7_7kDvZ-0" vertex="1">
                    <mxGeometry y="110" width="130" height="26" as="geometry"/>
                </mxCell>
                <mxCell id="u3g3huVzn0V5L7_7kDvZ-6" value="drehe" style="text;align=left;verticalAlign=top;spacingLeft=4;spacingRight=4;overflow=hidden;rotatable=0;points=[[0,0.5],[1,0.5]];portConstraint=eastwest;fontStyle=0" parent="u3g3huVzn0V5L7_7kDvZ-0" vertex="1">
                    <mxGeometry y="136" width="130" height="26" as="geometry"/>
                </mxCell>
                <mxCell id="u3g3huVzn0V5L7_7kDvZ-7" value="gesteinVorhanden" style="text;align=left;verticalAlign=top;spacingLeft=4;spacingRight=4;overflow=hidden;rotatable=0;points=[[0,0.5],[1,0.5]];portConstraint=eastwest;fontStyle=0" parent="u3g3huVzn0V5L7_7kDvZ-0" vertex="1">
                    <mxGeometry y="162" width="130" height="26" as="geometry"/>
                </mxCell>
                <mxCell id="u3g3huVzn0V5L7_7kDvZ-8" value="funken" style="text;align=left;verticalAlign=top;spacingLeft=4;spacingRight=4;overflow=hidden;rotatable=0;points=[[0,0.5],[1,0.5]];portConstraint=eastwest;fontStyle=0" parent="u3g3huVzn0V5L7_7kDvZ-0" vertex="1">
                    <mxGeometry y="188" width="130" height="26" as="geometry"/>
                </mxCell>
                <mxCell id="u3g3huVzn0V5L7_7kDvZ-9" value="Funkgeraet" style="swimlane;fontStyle=0;align=center;verticalAlign=top;childLayout=stackLayout;horizontal=1;startSize=26;horizontalStack=0;resizeParent=1;resizeLast=0;collapsible=1;marginBottom=0;rounded=0;shadow=0;strokeWidth=1;" parent="WIyWlLk6GJQsqaUBKTNV-1" vertex="1">
                    <mxGeometry x="230" y="515" width="160" height="100" as="geometry">
                        <mxRectangle x="240" y="470" width="160" height="26" as="alternateBounds"/>
                    </mxGeometry>
                </mxCell>
                <mxCell id="u3g3huVzn0V5L7_7kDvZ-10" value="funkfrequenz: Buchstabe" style="text;align=left;verticalAlign=top;spacingLeft=4;spacingRight=4;overflow=hidden;rotatable=0;points=[[0,0.5],[1,0.5]];portConstraint=eastwest;" parent="u3g3huVzn0V5L7_7kDvZ-9" vertex="1">
                    <mxGeometry y="26" width="160" height="26" as="geometry"/>
                </mxCell>
                <mxCell id="u3g3huVzn0V5L7_7kDvZ-12" value="" style="line;html=1;strokeWidth=1;align=left;verticalAlign=middle;spacingTop=-1;spacingLeft=3;spacingRight=3;rotatable=0;labelPosition=right;points=[];portConstraint=eastwest;" parent="u3g3huVzn0V5L7_7kDvZ-9" vertex="1">
                    <mxGeometry y="52" width="160" height="8" as="geometry"/>
                </mxCell>
                <mxCell id="u3g3huVzn0V5L7_7kDvZ-16" value="funken" style="text;align=left;verticalAlign=top;spacingLeft=4;spacingRight=4;overflow=hidden;rotatable=0;points=[[0,0.5],[1,0.5]];portConstraint=eastwest;fontStyle=0" parent="u3g3huVzn0V5L7_7kDvZ-9" vertex="1">
                    <mxGeometry y="60" width="160" height="26" as="geometry"/>
                </mxCell>
                <mxCell id="u3g3huVzn0V5L7_7kDvZ-18" value="1" style="text;html=1;align=center;verticalAlign=middle;resizable=0;points=[];autosize=1;" parent="WIyWlLk6GJQsqaUBKTNV-1" vertex="1">
                    <mxGeometry x="210" y="532" width="20" height="20" as="geometry"/>
                </mxCell>
                <mxCell id="rzuMf1mowZgImw47wZ-Z-1" value="Rover" style="swimlane;fontStyle=0;align=center;verticalAlign=top;childLayout=stackLayout;horizontal=1;startSize=26;horizontalStack=0;resizeParent=1;resizeLast=0;collapsible=1;marginBottom=0;rounded=0;shadow=0;strokeWidth=1;" parent="WIyWlLk6GJQsqaUBKTNV-1" vertex="1">
                    <mxGeometry x="60" y="755" width="240" height="394" as="geometry">
                        <mxRectangle x="130" y="380" width="160" height="26" as="alternateBounds"/>
                    </mxGeometry>
                </mxCell>
                <mxCell id="rzuMf1mowZgImw47wZ-Z-2" value="- name: String" style="text;align=left;verticalAlign=top;spacingLeft=4;spacingRight=4;overflow=hidden;rotatable=0;points=[[0,0.5],[1,0.5]];portConstraint=eastwest;" parent="rzuMf1mowZgImw47wZ-Z-1" vertex="1">
                    <mxGeometry y="26" width="240" height="26" as="geometry"/>
                </mxCell>
                <mxCell id="rzuMf1mowZgImw47wZ-Z-3" value="- fahrstrecke: int" style="text;align=left;verticalAlign=top;spacingLeft=4;spacingRight=4;overflow=hidden;rotatable=0;points=[[0,0.5],[1,0.5]];portConstraint=eastwest;rounded=0;shadow=0;html=0;" parent="rzuMf1mowZgImw47wZ-Z-1" vertex="1">
                    <mxGeometry y="52" width="240" height="26" as="geometry"/>
                </mxCell>
                <mxCell id="rzuMf1mowZgImw47wZ-Z-5" value="" style="line;html=1;strokeWidth=1;align=left;verticalAlign=middle;spacingTop=-1;spacingLeft=3;spacingRight=3;rotatable=0;labelPosition=right;points=[];portConstraint=eastwest;" parent="rzuMf1mowZgImw47wZ-Z-1" vertex="1">
                    <mxGeometry y="78" width="240" height="8" as="geometry"/>
                </mxCell>
                <mxCell id="rzuMf1mowZgImw47wZ-Z-6" value="+ Rover(pName: String, &#10;pFunkfrequenz: char)&#10;" style="text;align=left;verticalAlign=top;spacingLeft=4;spacingRight=4;overflow=hidden;rotatable=0;points=[[0,0.5],[1,0.5]];portConstraint=eastwest;" parent="rzuMf1mowZgImw47wZ-Z-1" vertex="1">
                    <mxGeometry y="86" width="240" height="38" as="geometry"/>
                </mxCell>
                <mxCell id="S36DxifoUsPr3A8fcq5J-1" value="+ Rover()&#10;" style="text;align=left;verticalAlign=top;spacingLeft=4;spacingRight=4;overflow=hidden;rotatable=0;points=[[0,0.5],[1,0.5]];portConstraint=eastwest;" parent="rzuMf1mowZgImw47wZ-Z-1" vertex="1">
                    <mxGeometry y="124" width="240" height="38" as="geometry"/>
                </mxCell>
                <mxCell id="rzuMf1mowZgImw47wZ-Z-7" value="+ fahre(): void" style="text;align=left;verticalAlign=top;spacingLeft=4;spacingRight=4;overflow=hidden;rotatable=0;points=[[0,0.5],[1,0.5]];portConstraint=eastwest;" parent="rzuMf1mowZgImw47wZ-Z-1" vertex="1">
                    <mxGeometry y="162" width="240" height="26" as="geometry"/>
                </mxCell>
                <mxCell id="rzuMf1mowZgImw47wZ-Z-8" value="+ drehe(pRichtung: String):void" style="text;align=left;verticalAlign=top;spacingLeft=4;spacingRight=4;overflow=hidden;rotatable=0;points=[[0,0.5],[1,0.5]];portConstraint=eastwest;fontStyle=0" parent="rzuMf1mowZgImw47wZ-Z-1" vertex="1">
                    <mxGeometry y="188" width="240" height="26" as="geometry"/>
                </mxCell>
                <mxCell id="rzuMf1mowZgImw47wZ-Z-9" value="+ gesteinVorhanden(): boolean" style="text;align=left;verticalAlign=top;spacingLeft=4;spacingRight=4;overflow=hidden;rotatable=0;points=[[0,0.5],[1,0.5]];portConstraint=eastwest;fontStyle=0" parent="rzuMf1mowZgImw47wZ-Z-1" vertex="1">
                    <mxGeometry y="214" width="240" height="26" as="geometry"/>
                </mxCell>
                <mxCell id="rzuMf1mowZgImw47wZ-Z-10" value="+ funken(pNachricht: String): void" style="text;align=left;verticalAlign=top;spacingLeft=4;spacingRight=4;overflow=hidden;rotatable=0;points=[[0,0.5],[1,0.5]];portConstraint=eastwest;fontStyle=0" parent="rzuMf1mowZgImw47wZ-Z-1" vertex="1">
                    <mxGeometry y="240" width="240" height="26" as="geometry"/>
                </mxCell>
                <mxCell id="rzuMf1mowZgImw47wZ-Z-11" value="+ getName(): String" style="text;align=left;verticalAlign=top;spacingLeft=4;spacingRight=4;overflow=hidden;rotatable=0;points=[[0,0.5],[1,0.5]];portConstraint=eastwest;fontStyle=0" parent="rzuMf1mowZgImw47wZ-Z-1" vertex="1">
                    <mxGeometry y="266" width="240" height="26" as="geometry"/>
                </mxCell>
                <mxCell id="rzuMf1mowZgImw47wZ-Z-13" value="+ getFahrstrecke(): int" style="text;align=left;verticalAlign=top;spacingLeft=4;spacingRight=4;overflow=hidden;rotatable=0;points=[[0,0.5],[1,0.5]];portConstraint=eastwest;fontStyle=0" parent="rzuMf1mowZgImw47wZ-Z-1" vertex="1">
                    <mxGeometry y="292" width="240" height="26" as="geometry"/>
                </mxCell>
                <mxCell id="rzuMf1mowZgImw47wZ-Z-28" value="+ setFunkfrequenz(pFrequenz char): void" style="text;align=left;verticalAlign=top;spacingLeft=4;spacingRight=4;overflow=hidden;rotatable=0;points=[[0,0.5],[1,0.5]];portConstraint=eastwest;fontStyle=0" parent="rzuMf1mowZgImw47wZ-Z-1" vertex="1">
                    <mxGeometry y="318" width="240" height="26" as="geometry"/>
                </mxCell>
                <mxCell id="rzuMf1mowZgImw47wZ-Z-27" value="+ getFunkfrequenz(): char" style="text;align=left;verticalAlign=top;spacingLeft=4;spacingRight=4;overflow=hidden;rotatable=0;points=[[0,0.5],[1,0.5]];portConstraint=eastwest;fontStyle=0" parent="rzuMf1mowZgImw47wZ-Z-1" vertex="1">
                    <mxGeometry y="344" width="240" height="26" as="geometry"/>
                </mxCell>
                <mxCell id="rzuMf1mowZgImw47wZ-Z-15" value="Funkgeraet" style="swimlane;fontStyle=0;align=center;verticalAlign=top;childLayout=stackLayout;horizontal=1;startSize=26;horizontalStack=0;resizeParent=1;resizeLast=0;collapsible=1;marginBottom=0;rounded=0;shadow=0;strokeWidth=1;" parent="WIyWlLk6GJQsqaUBKTNV-1" vertex="1">
                    <mxGeometry x="414" y="885" width="220" height="170" as="geometry">
                        <mxRectangle x="240" y="470" width="160" height="26" as="alternateBounds"/>
                    </mxGeometry>
                </mxCell>
                <mxCell id="rzuMf1mowZgImw47wZ-Z-16" value="- funkfrequenz: char" style="text;align=left;verticalAlign=top;spacingLeft=4;spacingRight=4;overflow=hidden;rotatable=0;points=[[0,0.5],[1,0.5]];portConstraint=eastwest;" parent="rzuMf1mowZgImw47wZ-Z-15" vertex="1">
                    <mxGeometry y="26" width="220" height="26" as="geometry"/>
                </mxCell>
                <mxCell id="rzuMf1mowZgImw47wZ-Z-17" value="" style="line;html=1;strokeWidth=1;align=left;verticalAlign=middle;spacingTop=-1;spacingLeft=3;spacingRight=3;rotatable=0;labelPosition=right;points=[];portConstraint=eastwest;" parent="rzuMf1mowZgImw47wZ-Z-15" vertex="1">
                    <mxGeometry y="52" width="220" height="8" as="geometry"/>
                </mxCell>
                <mxCell id="rzuMf1mowZgImw47wZ-Z-18" value="+ Funkgeraet(char pFunkfrequenz)" style="text;align=left;verticalAlign=top;spacingLeft=4;spacingRight=4;overflow=hidden;rotatable=0;points=[[0,0.5],[1,0.5]];portConstraint=eastwest;fontStyle=0" parent="rzuMf1mowZgImw47wZ-Z-15" vertex="1">
                    <mxGeometry y="60" width="220" height="26" as="geometry"/>
                </mxCell>
                <mxCell id="rzuMf1mowZgImw47wZ-Z-19" value="+ funken(String pNachricht): void" style="text;align=left;verticalAlign=top;spacingLeft=4;spacingRight=4;overflow=hidden;rotatable=0;points=[[0,0.5],[1,0.5]];portConstraint=eastwest;fontStyle=0" parent="rzuMf1mowZgImw47wZ-Z-15" vertex="1">
                    <mxGeometry y="86" width="220" height="26" as="geometry"/>
                </mxCell>
                <mxCell id="rzuMf1mowZgImw47wZ-Z-20" value="+ getFrequenz(): char" style="text;align=left;verticalAlign=top;spacingLeft=4;spacingRight=4;overflow=hidden;rotatable=0;points=[[0,0.5],[1,0.5]];portConstraint=eastwest;fontStyle=0" parent="rzuMf1mowZgImw47wZ-Z-15" vertex="1">
                    <mxGeometry y="112" width="220" height="26" as="geometry"/>
                </mxCell>
                <mxCell id="rzuMf1mowZgImw47wZ-Z-21" value="+ setFrequenz(pFrequenz: char) :void" style="text;align=left;verticalAlign=top;spacingLeft=4;spacingRight=4;overflow=hidden;rotatable=0;points=[[0,0.5],[1,0.5]];portConstraint=eastwest;fontStyle=0" parent="rzuMf1mowZgImw47wZ-Z-15" vertex="1">
                    <mxGeometry y="138" width="220" height="26" as="geometry"/>
                </mxCell>
                <mxCell id="rzuMf1mowZgImw47wZ-Z-22" style="edgeStyle=orthogonalEdgeStyle;rounded=0;orthogonalLoop=1;jettySize=auto;html=1;exitX=1.015;exitY=0.814;exitDx=0;exitDy=0;exitPerimeter=0;" parent="WIyWlLk6GJQsqaUBKTNV-1" source="rzuMf1mowZgImw47wZ-Z-3" target="rzuMf1mowZgImw47wZ-Z-16" edge="1">
                    <mxGeometry relative="1" as="geometry"/>
                </mxCell>
                <mxCell id="rzuMf1mowZgImw47wZ-Z-25" value="meinFunkgeraet" style="edgeLabel;html=1;align=center;verticalAlign=middle;resizable=0;points=[];" parent="rzuMf1mowZgImw47wZ-Z-22" vertex="1" connectable="0">
                    <mxGeometry x="-0.1365" y="-1" relative="1" as="geometry">
                        <mxPoint as="offset"/>
                    </mxGeometry>
                </mxCell>
                <mxCell id="rzuMf1mowZgImw47wZ-Z-26" value="1" style="text;html=1;align=center;verticalAlign=middle;resizable=0;points=[];autosize=1;" parent="WIyWlLk6GJQsqaUBKTNV-1" vertex="1">
                    <mxGeometry x="380" y="902" width="20" height="20" as="geometry"/>
                </mxCell>
                <mxCell id="TbAkC_YSICTbr2viedvz-0" value="Rover" style="swimlane;fontStyle=0;align=center;verticalAlign=top;childLayout=stackLayout;horizontal=1;startSize=26;horizontalStack=0;resizeParent=1;resizeLast=0;collapsible=1;marginBottom=0;rounded=0;shadow=0;strokeWidth=1;" parent="WIyWlLk6GJQsqaUBKTNV-1" vertex="1">
                    <mxGeometry x="90" y="60" width="160" height="230" as="geometry">
                        <mxRectangle x="130" y="380" width="160" height="26" as="alternateBounds"/>
                    </mxGeometry>
                </mxCell>
                <mxCell id="TbAkC_YSICTbr2viedvz-1" value="name: Text" style="text;align=left;verticalAlign=top;spacingLeft=4;spacingRight=4;overflow=hidden;rotatable=0;points=[[0,0.5],[1,0.5]];portConstraint=eastwest;" parent="TbAkC_YSICTbr2viedvz-0" vertex="1">
                    <mxGeometry y="26" width="160" height="26" as="geometry"/>
                </mxCell>
                <mxCell id="TbAkC_YSICTbr2viedvz-2" value="fahrstrecke: Zahl" style="text;align=left;verticalAlign=top;spacingLeft=4;spacingRight=4;overflow=hidden;rotatable=0;points=[[0,0.5],[1,0.5]];portConstraint=eastwest;rounded=0;shadow=0;html=0;" parent="TbAkC_YSICTbr2viedvz-0" vertex="1">
                    <mxGeometry y="52" width="160" height="26" as="geometry"/>
                </mxCell>
                <mxCell id="TbAkC_YSICTbr2viedvz-3" value="funkfrequenz: Buchstabe" style="text;align=left;verticalAlign=top;spacingLeft=4;spacingRight=4;overflow=hidden;rotatable=0;points=[[0,0.5],[1,0.5]];portConstraint=eastwest;rounded=0;shadow=0;html=0;" parent="TbAkC_YSICTbr2viedvz-0" vertex="1">
                    <mxGeometry y="78" width="160" height="26" as="geometry"/>
                </mxCell>
                <mxCell id="TbAkC_YSICTbr2viedvz-4" value="" style="line;html=1;strokeWidth=1;align=left;verticalAlign=middle;spacingTop=-1;spacingLeft=3;spacingRight=3;rotatable=0;labelPosition=right;points=[];portConstraint=eastwest;" parent="TbAkC_YSICTbr2viedvz-0" vertex="1">
                    <mxGeometry y="104" width="160" height="8" as="geometry"/>
                </mxCell>
                <mxCell id="TbAkC_YSICTbr2viedvz-5" value="fahre" style="text;align=left;verticalAlign=top;spacingLeft=4;spacingRight=4;overflow=hidden;rotatable=0;points=[[0,0.5],[1,0.5]];portConstraint=eastwest;" parent="TbAkC_YSICTbr2viedvz-0" vertex="1">
                    <mxGeometry y="112" width="160" height="26" as="geometry"/>
                </mxCell>
                <mxCell id="TbAkC_YSICTbr2viedvz-6" value="drehe" style="text;align=left;verticalAlign=top;spacingLeft=4;spacingRight=4;overflow=hidden;rotatable=0;points=[[0,0.5],[1,0.5]];portConstraint=eastwest;fontStyle=0" parent="TbAkC_YSICTbr2viedvz-0" vertex="1">
                    <mxGeometry y="138" width="160" height="26" as="geometry"/>
                </mxCell>
                <mxCell id="TbAkC_YSICTbr2viedvz-7" value="gesteinVorhanden" style="text;align=left;verticalAlign=top;spacingLeft=4;spacingRight=4;overflow=hidden;rotatable=0;points=[[0,0.5],[1,0.5]];portConstraint=eastwest;fontStyle=0" parent="TbAkC_YSICTbr2viedvz-0" vertex="1">
                    <mxGeometry y="164" width="160" height="26" as="geometry"/>
                </mxCell>
                <mxCell id="TbAkC_YSICTbr2viedvz-8" value="funken" style="text;align=left;verticalAlign=top;spacingLeft=4;spacingRight=4;overflow=hidden;rotatable=0;points=[[0,0.5],[1,0.5]];portConstraint=eastwest;fontStyle=0" parent="TbAkC_YSICTbr2viedvz-0" vertex="1">
                    <mxGeometry y="190" width="160" height="26" as="geometry"/>
                </mxCell>
                <mxCell id="TbAkC_YSICTbr2viedvz-9" value="vom ED zum ID" style="shape=flexArrow;endArrow=classic;html=1;fontSize=15;endWidth=49.16666666666667;endSize=6.941666666666667;width=28.333333333333336;" parent="WIyWlLk6GJQsqaUBKTNV-1" edge="1">
                    <mxGeometry width="50" height="50" relative="1" as="geometry">
                        <mxPoint x="270" y="174.57999999999998" as="sourcePoint"/>
                        <mxPoint x="430" y="174.57999999999998" as="targetPoint"/>
                        <mxPoint as="offset"/>
                    </mxGeometry>
                </mxCell>
                <mxCell id="TbAkC_YSICTbr2viedvz-10" value="Nur eine Klasse: Rover&amp;nbsp;" style="text;html=1;align=center;verticalAlign=middle;resizable=0;points=[];autosize=1;fontSize=18;fillColor=#d5e8d4;strokeColor=#82b366;" parent="WIyWlLk6GJQsqaUBKTNV-1" vertex="1">
                    <mxGeometry x="220" y="15" width="210" height="30" as="geometry"/>
                </mxCell>
                <mxCell id="TbAkC_YSICTbr2viedvz-11" value="2 Klassen: Rover mit separatem Funkgerät" style="text;html=1;align=center;verticalAlign=middle;resizable=0;points=[];autosize=1;fontSize=18;fillColor=#d5e8d4;strokeColor=#82b366;" parent="WIyWlLk6GJQsqaUBKTNV-1" vertex="1">
                    <mxGeometry x="40" y="340" width="360" height="30" as="geometry"/>
                </mxCell>
                <mxCell id="TbAkC_YSICTbr2viedvz-12" value="vom ED zum ID" style="shape=flexArrow;endArrow=classic;html=1;fontSize=15;endWidth=49.16666666666667;endSize=6.941666666666667;width=28.333333333333336;" parent="WIyWlLk6GJQsqaUBKTNV-1" edge="1">
                    <mxGeometry width="50" height="50" relative="1" as="geometry">
                        <mxPoint x="180" y="615" as="sourcePoint"/>
                        <mxPoint x="260" y="735" as="targetPoint"/>
                        <mxPoint as="offset"/>
                    </mxGeometry>
                </mxCell>
                <mxCell id="CCWQgzfjSL_vMbTPLR8w-0" value="funky:Funkgeraet" style="shape=umlLifeline;perimeter=lifelinePerimeter;whiteSpace=wrap;html=1;container=1;collapsible=0;recursiveResize=0;outlineConnect=0;rounded=1;shadow=0;comic=0;labelBackgroundColor=none;strokeWidth=1;fontFamily=Verdana;fontSize=12;align=center;" parent="WIyWlLk6GJQsqaUBKTNV-1" vertex="1">
                    <mxGeometry x="380" y="1295" width="120" height="230" as="geometry"/>
                </mxCell>
                <mxCell id="CCWQgzfjSL_vMbTPLR8w-1" value="" style="html=1;points=[];perimeter=orthogonalPerimeter;rounded=0;shadow=0;comic=0;labelBackgroundColor=none;strokeWidth=1;fontFamily=Verdana;fontSize=12;align=center;" parent="CCWQgzfjSL_vMbTPLR8w-0" vertex="1">
                    <mxGeometry x="55" y="130" width="10" height="70" as="geometry"/>
                </mxCell>
                <mxCell id="CCWQgzfjSL_vMbTPLR8w-2" value="rover1:Rover" style="shape=umlLifeline;perimeter=lifelinePerimeter;whiteSpace=wrap;html=1;container=1;collapsible=0;recursiveResize=0;outlineConnect=0;rounded=1;shadow=0;comic=0;labelBackgroundColor=none;strokeWidth=1;fontFamily=Verdana;fontSize=12;align=center;" parent="WIyWlLk6GJQsqaUBKTNV-1" vertex="1">
                    <mxGeometry x="190" y="1295" width="100" height="240" as="geometry"/>
                </mxCell>
                <mxCell id="CCWQgzfjSL_vMbTPLR8w-3" value="" style="html=1;points=[];perimeter=orthogonalPerimeter;rounded=0;shadow=0;comic=0;labelBackgroundColor=none;strokeWidth=1;fontFamily=Verdana;fontSize=12;align=center;" parent="CCWQgzfjSL_vMbTPLR8w-2" vertex="1">
                    <mxGeometry x="45" y="100" width="10" height="120" as="geometry"/>
                </mxCell>
                <mxCell id="CCWQgzfjSL_vMbTPLR8w-4" value="funken(pNachricht: String)" style="html=1;verticalAlign=bottom;endArrow=block;entryX=0;entryY=0;labelBackgroundColor=none;fontFamily=Verdana;fontSize=12;edgeStyle=elbowEdgeStyle;elbow=vertical;" parent="WIyWlLk6GJQsqaUBKTNV-1" source="CCWQgzfjSL_vMbTPLR8w-3" target="CCWQgzfjSL_vMbTPLR8w-1" edge="1">
                    <mxGeometry relative="1" as="geometry">
                        <mxPoint x="310" y="1405" as="sourcePoint"/>
                        <Array as="points">
                            <mxPoint x="410" y="1425"/>
                        </Array>
                    </mxGeometry>
                </mxCell>
                <mxCell id="CCWQgzfjSL_vMbTPLR8w-5" value="" style="endArrow=classic;html=1;dashed=1;" parent="WIyWlLk6GJQsqaUBKTNV-1" source="CCWQgzfjSL_vMbTPLR8w-0" target="CCWQgzfjSL_vMbTPLR8w-3" edge="1">
                    <mxGeometry width="50" height="50" relative="1" as="geometry">
                        <mxPoint x="420" y="1545" as="sourcePoint"/>
                        <mxPoint x="240" y="1545" as="targetPoint"/>
                        <Array as="points">
                            <mxPoint x="370" y="1495"/>
                        </Array>
                    </mxGeometry>
                </mxCell>
                <mxCell id="CCWQgzfjSL_vMbTPLR8w-6" value="funken(pNachricht: String)" style="html=1;verticalAlign=bottom;endArrow=block;labelBackgroundColor=none;fontFamily=Verdana;fontSize=12;edgeStyle=elbowEdgeStyle;elbow=vertical;" parent="WIyWlLk6GJQsqaUBKTNV-1" target="CCWQgzfjSL_vMbTPLR8w-2" edge="1">
                    <mxGeometry relative="1" as="geometry">
                        <mxPoint x="40" y="1394.5" as="sourcePoint"/>
                        <mxPoint x="230" y="1394.5" as="targetPoint"/>
                    </mxGeometry>
                </mxCell>
                <mxCell id="CCWQgzfjSL_vMbTPLR8w-7" value="Sequenzdiagramm vom Anwendungsfall: Rover funkt Nachricht" style="text;html=1;align=center;verticalAlign=middle;resizable=0;points=[];autosize=1;fontSize=18;fillColor=#d5e8d4;strokeColor=#82b366;" parent="WIyWlLk6GJQsqaUBKTNV-1" vertex="1">
                    <mxGeometry x="85" y="1240" width="520" height="30" as="geometry"/>
                </mxCell>
            </root>
        </mxGraphModel>
    </diagram>
    <diagram id="cYsZNYUj9L_57H7n7zRP" name="OD">
        <mxGraphModel dx="2574" dy="1480" grid="1" gridSize="10" guides="1" tooltips="1" connect="1" arrows="1" fold="1" page="1" pageScale="1" pageWidth="827" pageHeight="1169" math="0" shadow="0">
            <root>
                <mxCell id="MlkaR-2e-FJZlJSboHZZ-0"/>
                <mxCell id="MlkaR-2e-FJZlJSboHZZ-1" parent="MlkaR-2e-FJZlJSboHZZ-0"/>
                <mxCell id="ixdyqLtk1WyAntTPixAN-0" value="rover1: Rover" style="swimlane;fontStyle=0;align=center;verticalAlign=top;childLayout=stackLayout;horizontal=1;startSize=26;horizontalStack=0;resizeParent=1;resizeLast=0;collapsible=1;marginBottom=0;rounded=1;shadow=0;strokeWidth=1;sketch=0;" vertex="1" parent="MlkaR-2e-FJZlJSboHZZ-1">
                    <mxGeometry x="600" y="120" width="160" height="140" as="geometry">
                        <mxRectangle x="550" y="140" width="160" height="26" as="alternateBounds"/>
                    </mxGeometry>
                </mxCell>
                <mxCell id="ixdyqLtk1WyAntTPixAN-1" value="name = bladeRunner" style="text;align=left;verticalAlign=top;spacingLeft=4;spacingRight=4;overflow=hidden;rotatable=0;points=[[0,0.5],[1,0.5]];portConstraint=eastwest;" vertex="1" parent="ixdyqLtk1WyAntTPixAN-0">
                    <mxGeometry y="26" width="160" height="26" as="geometry"/>
                </mxCell>
                <mxCell id="ixdyqLtk1WyAntTPixAN-2" value="fahrstrecke = 123" style="text;align=left;verticalAlign=top;spacingLeft=4;spacingRight=4;overflow=hidden;rotatable=0;points=[[0,0.5],[1,0.5]];portConstraint=eastwest;rounded=0;shadow=0;html=0;" vertex="1" parent="ixdyqLtk1WyAntTPixAN-0">
                    <mxGeometry y="52" width="160" height="26" as="geometry"/>
                </mxCell>
                <mxCell id="ixdyqLtk1WyAntTPixAN-3" value="geschwindigkeit = 12" style="text;align=left;verticalAlign=top;spacingLeft=4;spacingRight=4;overflow=hidden;rotatable=0;points=[[0,0.5],[1,0.5]];portConstraint=eastwest;rounded=0;shadow=0;html=0;" vertex="1" parent="ixdyqLtk1WyAntTPixAN-0">
                    <mxGeometry y="78" width="160" height="26" as="geometry"/>
                </mxCell>
                <mxCell id="ixdyqLtk1WyAntTPixAN-4" value="energie = 85" style="text;align=left;verticalAlign=top;spacingLeft=4;spacingRight=4;overflow=hidden;rotatable=0;points=[[0,0.5],[1,0.5]];portConstraint=eastwest;rounded=0;shadow=0;html=0;" vertex="1" parent="ixdyqLtk1WyAntTPixAN-0">
                    <mxGeometry y="104" width="160" height="26" as="geometry"/>
                </mxCell>
                <mxCell id="ixdyqLtk1WyAntTPixAN-5" value="rover2: Rover" style="swimlane;fontStyle=0;align=center;verticalAlign=top;childLayout=stackLayout;horizontal=1;startSize=26;horizontalStack=0;resizeParent=1;resizeLast=0;collapsible=1;marginBottom=0;rounded=1;shadow=0;strokeWidth=1;sketch=0;" vertex="1" parent="MlkaR-2e-FJZlJSboHZZ-1">
                    <mxGeometry x="610" y="280" width="160" height="140" as="geometry">
                        <mxRectangle x="550" y="140" width="160" height="26" as="alternateBounds"/>
                    </mxGeometry>
                </mxCell>
                <mxCell id="ixdyqLtk1WyAntTPixAN-6" value="name = sprinter" style="text;align=left;verticalAlign=top;spacingLeft=4;spacingRight=4;overflow=hidden;rotatable=0;points=[[0,0.5],[1,0.5]];portConstraint=eastwest;" vertex="1" parent="ixdyqLtk1WyAntTPixAN-5">
                    <mxGeometry y="26" width="160" height="26" as="geometry"/>
                </mxCell>
                <mxCell id="ixdyqLtk1WyAntTPixAN-7" value="fahrstrecke = 41" style="text;align=left;verticalAlign=top;spacingLeft=4;spacingRight=4;overflow=hidden;rotatable=0;points=[[0,0.5],[1,0.5]];portConstraint=eastwest;rounded=0;shadow=0;html=0;" vertex="1" parent="ixdyqLtk1WyAntTPixAN-5">
                    <mxGeometry y="52" width="160" height="26" as="geometry"/>
                </mxCell>
                <mxCell id="ixdyqLtk1WyAntTPixAN-8" value="geschwindigkeit = 18" style="text;align=left;verticalAlign=top;spacingLeft=4;spacingRight=4;overflow=hidden;rotatable=0;points=[[0,0.5],[1,0.5]];portConstraint=eastwest;rounded=0;shadow=0;html=0;" vertex="1" parent="ixdyqLtk1WyAntTPixAN-5">
                    <mxGeometry y="78" width="160" height="26" as="geometry"/>
                </mxCell>
                <mxCell id="ixdyqLtk1WyAntTPixAN-9" value="energie = 37" style="text;align=left;verticalAlign=top;spacingLeft=4;spacingRight=4;overflow=hidden;rotatable=0;points=[[0,0.5],[1,0.5]];portConstraint=eastwest;rounded=0;shadow=0;html=0;" vertex="1" parent="ixdyqLtk1WyAntTPixAN-5">
                    <mxGeometry y="104" width="160" height="26" as="geometry"/>
                </mxCell>
                <mxCell id="KBVo1ZxPNMA_dr2_UmbE-0" value="mars: Planet" style="swimlane;fontStyle=2;align=center;verticalAlign=top;childLayout=stackLayout;horizontal=1;startSize=26;horizontalStack=0;resizeParent=1;resizeLast=0;collapsible=1;marginBottom=0;rounded=1;shadow=0;strokeWidth=1;" vertex="1" parent="MlkaR-2e-FJZlJSboHZZ-1">
                    <mxGeometry x="180" y="470" width="160" height="110" as="geometry">
                        <mxRectangle x="230" y="140" width="160" height="26" as="alternateBounds"/>
                    </mxGeometry>
                </mxCell>
                <mxCell id="KBVo1ZxPNMA_dr2_UmbE-1" value="gravitation = 6g" style="text;align=left;verticalAlign=top;spacingLeft=4;spacingRight=4;overflow=hidden;rotatable=0;points=[[0,0.5],[1,0.5]];portConstraint=eastwest;" vertex="1" parent="KBVo1ZxPNMA_dr2_UmbE-0">
                    <mxGeometry y="26" width="160" height="26" as="geometry"/>
                </mxCell>
                <mxCell id="KBVo1ZxPNMA_dr2_UmbE-2" value="tageslänge = 33" style="text;align=left;verticalAlign=top;spacingLeft=4;spacingRight=4;overflow=hidden;rotatable=0;points=[[0,0.5],[1,0.5]];portConstraint=eastwest;rounded=0;shadow=0;html=0;" vertex="1" parent="KBVo1ZxPNMA_dr2_UmbE-0">
                    <mxGeometry y="52" width="160" height="26" as="geometry"/>
                </mxCell>
                <mxCell id="KBVo1ZxPNMA_dr2_UmbE-3" value="durchmesser = 23.500 " style="text;align=left;verticalAlign=top;spacingLeft=4;spacingRight=4;overflow=hidden;rotatable=0;points=[[0,0.5],[1,0.5]];portConstraint=eastwest;rounded=0;shadow=0;html=0;" vertex="1" parent="KBVo1ZxPNMA_dr2_UmbE-0">
                    <mxGeometry y="78" width="160" height="26" as="geometry"/>
                </mxCell>
                <mxCell id="KBVo1ZxPNMA_dr2_UmbE-4" value="esa: Basis" style="swimlane;fontStyle=2;align=center;verticalAlign=top;childLayout=stackLayout;horizontal=1;startSize=26;horizontalStack=0;resizeParent=1;resizeLast=0;collapsible=1;marginBottom=0;rounded=1;shadow=0;strokeWidth=1;" vertex="1" parent="MlkaR-2e-FJZlJSboHZZ-1">
                    <mxGeometry x="360" y="470" width="160" height="160" as="geometry">
                        <mxRectangle x="230" y="140" width="160" height="26" as="alternateBounds"/>
                    </mxGeometry>
                </mxCell>
                <mxCell id="KBVo1ZxPNMA_dr2_UmbE-5" value="rover = " style="text;align=left;verticalAlign=top;spacingLeft=4;spacingRight=4;overflow=hidden;rotatable=0;points=[[0,0.5],[1,0.5]];portConstraint=eastwest;" vertex="1" parent="KBVo1ZxPNMA_dr2_UmbE-4">
                    <mxGeometry y="26" width="160" height="26" as="geometry"/>
                </mxCell>
                <mxCell id="KBVo1ZxPNMA_dr2_UmbE-6" value="zustand = 100" style="text;align=left;verticalAlign=top;spacingLeft=4;spacingRight=4;overflow=hidden;rotatable=0;points=[[0,0.5],[1,0.5]];portConstraint=eastwest;" vertex="1" parent="KBVo1ZxPNMA_dr2_UmbE-4">
                    <mxGeometry y="52" width="160" height="26" as="geometry"/>
                </mxCell>
                <mxCell id="KBVo1ZxPNMA_dr2_UmbE-7" value="erz = 456.123" style="text;align=left;verticalAlign=top;spacingLeft=4;spacingRight=4;overflow=hidden;rotatable=0;points=[[0,0.5],[1,0.5]];portConstraint=eastwest;rounded=0;shadow=0;html=0;" vertex="1" parent="KBVo1ZxPNMA_dr2_UmbE-4">
                    <mxGeometry y="78" width="160" height="26" as="geometry"/>
                </mxCell>
                <mxCell id="KBVo1ZxPNMA_dr2_UmbE-8" value="wasser = 71.500" style="text;align=left;verticalAlign=top;spacingLeft=4;spacingRight=4;overflow=hidden;rotatable=0;points=[[0,0.5],[1,0.5]];portConstraint=eastwest;rounded=0;shadow=0;html=0;" vertex="1" parent="KBVo1ZxPNMA_dr2_UmbE-4">
                    <mxGeometry y="104" width="160" height="26" as="geometry"/>
                </mxCell>
                <mxCell id="KBVo1ZxPNMA_dr2_UmbE-9" value="energie = 13 " style="text;align=left;verticalAlign=top;spacingLeft=4;spacingRight=4;overflow=hidden;rotatable=0;points=[[0,0.5],[1,0.5]];portConstraint=eastwest;rounded=0;shadow=0;html=0;" vertex="1" parent="KBVo1ZxPNMA_dr2_UmbE-4">
                    <mxGeometry y="130" width="160" height="26" as="geometry"/>
                </mxCell>
                <mxCell id="KBVo1ZxPNMA_dr2_UmbE-10" value="funky: Funkgeraet" style="swimlane;fontStyle=2;align=center;verticalAlign=top;childLayout=stackLayout;horizontal=1;startSize=26;horizontalStack=0;resizeParent=1;resizeLast=0;collapsible=1;marginBottom=0;rounded=1;shadow=0;strokeWidth=1;" vertex="1" parent="MlkaR-2e-FJZlJSboHZZ-1">
                    <mxGeometry x="440" y="230" width="130" height="80" as="geometry">
                        <mxRectangle x="230" y="140" width="160" height="26" as="alternateBounds"/>
                    </mxGeometry>
                </mxCell>
                <mxCell id="KBVo1ZxPNMA_dr2_UmbE-11" value="frequenz = a" style="text;align=left;verticalAlign=top;spacingLeft=4;spacingRight=4;overflow=hidden;rotatable=0;points=[[0,0.5],[1,0.5]];portConstraint=eastwest;" vertex="1" parent="KBVo1ZxPNMA_dr2_UmbE-10">
                    <mxGeometry y="26" width="130" height="26" as="geometry"/>
                </mxCell>
                <mxCell id="KBVo1ZxPNMA_dr2_UmbE-12" value="Akku = 77 " style="text;align=left;verticalAlign=top;spacingLeft=4;spacingRight=4;overflow=hidden;rotatable=0;points=[[0,0.5],[1,0.5]];portConstraint=eastwest;rounded=0;shadow=0;html=0;" vertex="1" parent="KBVo1ZxPNMA_dr2_UmbE-10">
                    <mxGeometry y="52" width="130" height="26" as="geometry"/>
                </mxCell>
                <mxCell id="KBVo1ZxPNMA_dr2_UmbE-13" value="funky: Funkgeraet" style="swimlane;fontStyle=2;align=center;verticalAlign=top;childLayout=stackLayout;horizontal=1;startSize=26;horizontalStack=0;resizeParent=1;resizeLast=0;collapsible=1;marginBottom=0;rounded=1;shadow=0;strokeWidth=1;" vertex="1" parent="MlkaR-2e-FJZlJSboHZZ-1">
                    <mxGeometry x="430" y="120" width="130" height="80" as="geometry">
                        <mxRectangle x="230" y="140" width="160" height="26" as="alternateBounds"/>
                    </mxGeometry>
                </mxCell>
                <mxCell id="KBVo1ZxPNMA_dr2_UmbE-14" value="frequenz = a" style="text;align=left;verticalAlign=top;spacingLeft=4;spacingRight=4;overflow=hidden;rotatable=0;points=[[0,0.5],[1,0.5]];portConstraint=eastwest;" vertex="1" parent="KBVo1ZxPNMA_dr2_UmbE-13">
                    <mxGeometry y="26" width="130" height="26" as="geometry"/>
                </mxCell>
                <mxCell id="KBVo1ZxPNMA_dr2_UmbE-15" value="Akku = 77 " style="text;align=left;verticalAlign=top;spacingLeft=4;spacingRight=4;overflow=hidden;rotatable=0;points=[[0,0.5],[1,0.5]];portConstraint=eastwest;rounded=0;shadow=0;html=0;" vertex="1" parent="KBVo1ZxPNMA_dr2_UmbE-13">
                    <mxGeometry y="52" width="130" height="26" as="geometry"/>
                </mxCell>
                <mxCell id="KBVo1ZxPNMA_dr2_UmbE-16" value="rover1: Rover" style="swimlane;fontStyle=0;align=center;verticalAlign=top;childLayout=stackLayout;horizontal=1;startSize=26;horizontalStack=0;resizeParent=1;resizeLast=0;collapsible=1;marginBottom=0;rounded=1;shadow=0;strokeWidth=1;sketch=0;" vertex="1" parent="MlkaR-2e-FJZlJSboHZZ-1">
                    <mxGeometry x="440" y="830" width="160" height="110" as="geometry">
                        <mxRectangle x="550" y="140" width="160" height="26" as="alternateBounds"/>
                    </mxGeometry>
                </mxCell>
                <mxCell id="KBVo1ZxPNMA_dr2_UmbE-17" value="name = bladeRunner" style="text;align=left;verticalAlign=top;spacingLeft=4;spacingRight=4;overflow=hidden;rotatable=0;points=[[0,0.5],[1,0.5]];portConstraint=eastwest;" vertex="1" parent="KBVo1ZxPNMA_dr2_UmbE-16">
                    <mxGeometry y="26" width="160" height="26" as="geometry"/>
                </mxCell>
                <mxCell id="KBVo1ZxPNMA_dr2_UmbE-18" value="fahrstrecke = 123" style="text;align=left;verticalAlign=top;spacingLeft=4;spacingRight=4;overflow=hidden;rotatable=0;points=[[0,0.5],[1,0.5]];portConstraint=eastwest;rounded=0;shadow=0;html=0;" vertex="1" parent="KBVo1ZxPNMA_dr2_UmbE-16">
                    <mxGeometry y="52" width="160" height="26" as="geometry"/>
                </mxCell>
                <mxCell id="KBVo1ZxPNMA_dr2_UmbE-19" value="funkgeraet = " style="text;align=left;verticalAlign=top;spacingLeft=4;spacingRight=4;overflow=hidden;rotatable=0;points=[[0,0.5],[1,0.5]];portConstraint=eastwest;rounded=0;shadow=0;html=0;" vertex="1" parent="KBVo1ZxPNMA_dr2_UmbE-16">
                    <mxGeometry y="78" width="160" height="26" as="geometry"/>
                </mxCell>
                <mxCell id="KBVo1ZxPNMA_dr2_UmbE-20" value="rover2: Rover" style="swimlane;fontStyle=0;align=center;verticalAlign=top;childLayout=stackLayout;horizontal=1;startSize=26;horizontalStack=0;resizeParent=1;resizeLast=0;collapsible=1;marginBottom=0;rounded=1;shadow=0;strokeWidth=1;sketch=0;" vertex="1" parent="MlkaR-2e-FJZlJSboHZZ-1">
                    <mxGeometry x="510" y="1000" width="160" height="110" as="geometry">
                        <mxRectangle x="550" y="140" width="160" height="26" as="alternateBounds"/>
                    </mxGeometry>
                </mxCell>
                <mxCell id="KBVo1ZxPNMA_dr2_UmbE-21" value="name = &quot;Jadehase&quot;" style="text;align=left;verticalAlign=top;spacingLeft=4;spacingRight=4;overflow=hidden;rotatable=0;points=[[0,0.5],[1,0.5]];portConstraint=eastwest;" vertex="1" parent="KBVo1ZxPNMA_dr2_UmbE-20">
                    <mxGeometry y="26" width="160" height="26" as="geometry"/>
                </mxCell>
                <mxCell id="KBVo1ZxPNMA_dr2_UmbE-22" value="fahrstrecke = 45" style="text;align=left;verticalAlign=top;spacingLeft=4;spacingRight=4;overflow=hidden;rotatable=0;points=[[0,0.5],[1,0.5]];portConstraint=eastwest;rounded=0;shadow=0;html=0;" vertex="1" parent="KBVo1ZxPNMA_dr2_UmbE-20">
                    <mxGeometry y="52" width="160" height="26" as="geometry"/>
                </mxCell>
                <mxCell id="KBVo1ZxPNMA_dr2_UmbE-23" value="funkgeraet = " style="text;align=left;verticalAlign=top;spacingLeft=4;spacingRight=4;overflow=hidden;rotatable=0;points=[[0,0.5],[1,0.5]];portConstraint=eastwest;rounded=0;shadow=0;html=0;" vertex="1" parent="KBVo1ZxPNMA_dr2_UmbE-20">
                    <mxGeometry y="78" width="160" height="26" as="geometry"/>
                </mxCell>
                <mxCell id="KBVo1ZxPNMA_dr2_UmbE-24" value="funk1: Funkgeraet" style="swimlane;fontStyle=2;align=center;verticalAlign=top;childLayout=stackLayout;horizontal=1;startSize=26;horizontalStack=0;resizeParent=1;resizeLast=0;collapsible=1;marginBottom=0;rounded=1;shadow=0;strokeWidth=1;" vertex="1" parent="MlkaR-2e-FJZlJSboHZZ-1">
                    <mxGeometry x="455" y="330" width="130" height="80" as="geometry">
                        <mxRectangle x="230" y="140" width="160" height="26" as="alternateBounds"/>
                    </mxGeometry>
                </mxCell>
                <mxCell id="KBVo1ZxPNMA_dr2_UmbE-25" value="frequenz = e" style="text;align=left;verticalAlign=top;spacingLeft=4;spacingRight=4;overflow=hidden;rotatable=0;points=[[0,0.5],[1,0.5]];portConstraint=eastwest;" vertex="1" parent="KBVo1ZxPNMA_dr2_UmbE-24">
                    <mxGeometry y="26" width="130" height="26" as="geometry"/>
                </mxCell>
                <mxCell id="KBVo1ZxPNMA_dr2_UmbE-26" value="Akku = 48" style="text;align=left;verticalAlign=top;spacingLeft=4;spacingRight=4;overflow=hidden;rotatable=0;points=[[0,0.5],[1,0.5]];portConstraint=eastwest;rounded=0;shadow=0;html=0;" vertex="1" parent="KBVo1ZxPNMA_dr2_UmbE-24">
                    <mxGeometry y="52" width="130" height="26" as="geometry"/>
                </mxCell>
                <mxCell id="KBVo1ZxPNMA_dr2_UmbE-27" value="roverxyz: Rover" style="swimlane;fontStyle=0;align=center;verticalAlign=top;childLayout=stackLayout;horizontal=1;startSize=26;horizontalStack=0;resizeParent=1;resizeLast=0;collapsible=1;marginBottom=0;rounded=1;shadow=0;strokeWidth=1;sketch=0;" vertex="1" parent="MlkaR-2e-FJZlJSboHZZ-1">
                    <mxGeometry x="620" y="870" width="160" height="110" as="geometry">
                        <mxRectangle x="550" y="140" width="160" height="26" as="alternateBounds"/>
                    </mxGeometry>
                </mxCell>
                <mxCell id="KBVo1ZxPNMA_dr2_UmbE-28" value="name = &quot;Jadehase&quot;" style="text;align=left;verticalAlign=top;spacingLeft=4;spacingRight=4;overflow=hidden;rotatable=0;points=[[0,0.5],[1,0.5]];portConstraint=eastwest;" vertex="1" parent="KBVo1ZxPNMA_dr2_UmbE-27">
                    <mxGeometry y="26" width="160" height="26" as="geometry"/>
                </mxCell>
                <mxCell id="KBVo1ZxPNMA_dr2_UmbE-29" value="fahrstrecke = 45" style="text;align=left;verticalAlign=top;spacingLeft=4;spacingRight=4;overflow=hidden;rotatable=0;points=[[0,0.5],[1,0.5]];portConstraint=eastwest;rounded=0;shadow=0;html=0;" vertex="1" parent="KBVo1ZxPNMA_dr2_UmbE-27">
                    <mxGeometry y="52" width="160" height="26" as="geometry"/>
                </mxCell>
                <mxCell id="KBVo1ZxPNMA_dr2_UmbE-30" value="funkgeraet = " style="text;align=left;verticalAlign=top;spacingLeft=4;spacingRight=4;overflow=hidden;rotatable=0;points=[[0,0.5],[1,0.5]];portConstraint=eastwest;rounded=0;shadow=0;html=0;" vertex="1" parent="KBVo1ZxPNMA_dr2_UmbE-27">
                    <mxGeometry y="78" width="160" height="26" as="geometry"/>
                </mxCell>
            </root>
        </mxGraphModel>
    </diagram>
    <diagram id="2kVXIU4H7MCNA4UgAbho" name="ED">
        <mxGraphModel dx="1024" dy="601" grid="1" gridSize="10" guides="1" tooltips="1" connect="1" arrows="1" fold="1" page="1" pageScale="1" pageWidth="827" pageHeight="1169" math="0" shadow="0">
            <root>
                <mxCell id="SvDjPs0FLOlSSPxpTw0N-0"/>
                <mxCell id="SvDjPs0FLOlSSPxpTw0N-1" parent="SvDjPs0FLOlSSPxpTw0N-0"/>
                <mxCell id="D94SZHbS1xZardqIlHbV-0" value="Rover" style="swimlane;fontStyle=0;align=center;verticalAlign=top;childLayout=stackLayout;horizontal=1;startSize=26;horizontalStack=0;resizeParent=1;resizeLast=0;collapsible=1;marginBottom=0;rounded=0;shadow=0;strokeWidth=1;" parent="SvDjPs0FLOlSSPxpTw0N-1" vertex="1">
                    <mxGeometry x="70" y="55" width="160" height="230" as="geometry">
                        <mxRectangle x="130" y="380" width="160" height="26" as="alternateBounds"/>
                    </mxGeometry>
                </mxCell>
                <mxCell id="D94SZHbS1xZardqIlHbV-1" value="name: Text" style="text;align=left;verticalAlign=top;spacingLeft=4;spacingRight=4;overflow=hidden;rotatable=0;points=[[0,0.5],[1,0.5]];portConstraint=eastwest;" parent="D94SZHbS1xZardqIlHbV-0" vertex="1">
                    <mxGeometry y="26" width="160" height="26" as="geometry"/>
                </mxCell>
                <mxCell id="D94SZHbS1xZardqIlHbV-2" value="fahrstrecke: Zahl" style="text;align=left;verticalAlign=top;spacingLeft=4;spacingRight=4;overflow=hidden;rotatable=0;points=[[0,0.5],[1,0.5]];portConstraint=eastwest;rounded=0;shadow=0;html=0;" parent="D94SZHbS1xZardqIlHbV-0" vertex="1">
                    <mxGeometry y="52" width="160" height="26" as="geometry"/>
                </mxCell>
                <mxCell id="D94SZHbS1xZardqIlHbV-3" value="funkfrequenz: Buchstabe" style="text;align=left;verticalAlign=top;spacingLeft=4;spacingRight=4;overflow=hidden;rotatable=0;points=[[0,0.5],[1,0.5]];portConstraint=eastwest;rounded=0;shadow=0;html=0;" parent="D94SZHbS1xZardqIlHbV-0" vertex="1">
                    <mxGeometry y="78" width="160" height="26" as="geometry"/>
                </mxCell>
                <mxCell id="D94SZHbS1xZardqIlHbV-4" value="" style="line;html=1;strokeWidth=1;align=left;verticalAlign=middle;spacingTop=-1;spacingLeft=3;spacingRight=3;rotatable=0;labelPosition=right;points=[];portConstraint=eastwest;" parent="D94SZHbS1xZardqIlHbV-0" vertex="1">
                    <mxGeometry y="104" width="160" height="8" as="geometry"/>
                </mxCell>
                <mxCell id="D94SZHbS1xZardqIlHbV-5" value="fahre" style="text;align=left;verticalAlign=top;spacingLeft=4;spacingRight=4;overflow=hidden;rotatable=0;points=[[0,0.5],[1,0.5]];portConstraint=eastwest;" parent="D94SZHbS1xZardqIlHbV-0" vertex="1">
                    <mxGeometry y="112" width="160" height="26" as="geometry"/>
                </mxCell>
                <mxCell id="D94SZHbS1xZardqIlHbV-6" value="drehe" style="text;align=left;verticalAlign=top;spacingLeft=4;spacingRight=4;overflow=hidden;rotatable=0;points=[[0,0.5],[1,0.5]];portConstraint=eastwest;fontStyle=0" parent="D94SZHbS1xZardqIlHbV-0" vertex="1">
                    <mxGeometry y="138" width="160" height="26" as="geometry"/>
                </mxCell>
                <mxCell id="D94SZHbS1xZardqIlHbV-7" value="gesteinVorhanden" style="text;align=left;verticalAlign=top;spacingLeft=4;spacingRight=4;overflow=hidden;rotatable=0;points=[[0,0.5],[1,0.5]];portConstraint=eastwest;fontStyle=0" parent="D94SZHbS1xZardqIlHbV-0" vertex="1">
                    <mxGeometry y="164" width="160" height="26" as="geometry"/>
                </mxCell>
                <mxCell id="D94SZHbS1xZardqIlHbV-8" value="funken" style="text;align=left;verticalAlign=top;spacingLeft=4;spacingRight=4;overflow=hidden;rotatable=0;points=[[0,0.5],[1,0.5]];portConstraint=eastwest;fontStyle=0" parent="D94SZHbS1xZardqIlHbV-0" vertex="1">
                    <mxGeometry y="190" width="160" height="26" as="geometry"/>
                </mxCell>
                <mxCell id="3rZtywOMPf8drsKk33FH-0" value="Rover" style="swimlane;fontStyle=0;align=center;verticalAlign=top;childLayout=stackLayout;horizontal=1;startSize=26;horizontalStack=0;resizeParent=1;resizeLast=0;collapsible=1;marginBottom=0;rounded=0;shadow=0;strokeWidth=1;" parent="SvDjPs0FLOlSSPxpTw0N-1" vertex="1">
                    <mxGeometry x="604" y="520" width="160" height="270" as="geometry">
                        <mxRectangle x="130" y="380" width="160" height="26" as="alternateBounds"/>
                    </mxGeometry>
                </mxCell>
                <mxCell id="3rZtywOMPf8drsKk33FH-1" value="name: Text" style="text;align=left;verticalAlign=top;spacingLeft=4;spacingRight=4;overflow=hidden;rotatable=0;points=[[0,0.5],[1,0.5]];portConstraint=eastwest;" parent="3rZtywOMPf8drsKk33FH-0" vertex="1">
                    <mxGeometry y="26" width="160" height="26" as="geometry"/>
                </mxCell>
                <mxCell id="3rZtywOMPf8drsKk33FH-2" value="fahrstrecke: Zahl" style="text;align=left;verticalAlign=top;spacingLeft=4;spacingRight=4;overflow=hidden;rotatable=0;points=[[0,0.5],[1,0.5]];portConstraint=eastwest;rounded=0;shadow=0;html=0;" parent="3rZtywOMPf8drsKk33FH-0" vertex="1">
                    <mxGeometry y="52" width="160" height="26" as="geometry"/>
                </mxCell>
                <mxCell id="3rZtywOMPf8drsKk33FH-3" value="geschwindigkeit: zahl" style="text;align=left;verticalAlign=top;spacingLeft=4;spacingRight=4;overflow=hidden;rotatable=0;points=[[0,0.5],[1,0.5]];portConstraint=eastwest;rounded=0;shadow=0;html=0;" parent="3rZtywOMPf8drsKk33FH-0" vertex="1">
                    <mxGeometry y="78" width="160" height="26" as="geometry"/>
                </mxCell>
                <mxCell id="3rZtywOMPf8drsKk33FH-4" value="energie: zahl" style="text;align=left;verticalAlign=top;spacingLeft=4;spacingRight=4;overflow=hidden;rotatable=0;points=[[0,0.5],[1,0.5]];portConstraint=eastwest;" parent="3rZtywOMPf8drsKk33FH-0" vertex="1">
                    <mxGeometry y="104" width="160" height="26" as="geometry"/>
                </mxCell>
                <mxCell id="3rZtywOMPf8drsKk33FH-5" value="" style="line;html=1;strokeWidth=1;align=left;verticalAlign=middle;spacingTop=-1;spacingLeft=3;spacingRight=3;rotatable=0;labelPosition=right;points=[];portConstraint=eastwest;" parent="3rZtywOMPf8drsKk33FH-0" vertex="1">
                    <mxGeometry y="130" width="160" height="8" as="geometry"/>
                </mxCell>
                <mxCell id="3rZtywOMPf8drsKk33FH-6" value="fahre" style="text;align=left;verticalAlign=top;spacingLeft=4;spacingRight=4;overflow=hidden;rotatable=0;points=[[0,0.5],[1,0.5]];portConstraint=eastwest;fontStyle=0" parent="3rZtywOMPf8drsKk33FH-0" vertex="1">
                    <mxGeometry y="138" width="160" height="26" as="geometry"/>
                </mxCell>
                <mxCell id="3rZtywOMPf8drsKk33FH-7" value="untersucheGestein" style="text;align=left;verticalAlign=top;spacingLeft=4;spacingRight=4;overflow=hidden;rotatable=0;points=[[0,0.5],[1,0.5]];portConstraint=eastwest;fontStyle=0" parent="3rZtywOMPf8drsKk33FH-0" vertex="1">
                    <mxGeometry y="164" width="160" height="26" as="geometry"/>
                </mxCell>
                <mxCell id="3rZtywOMPf8drsKk33FH-8" value="drehe" style="text;align=left;verticalAlign=top;spacingLeft=4;spacingRight=4;overflow=hidden;rotatable=0;points=[[0,0.5],[1,0.5]];portConstraint=eastwest;fontStyle=0" parent="3rZtywOMPf8drsKk33FH-0" vertex="1">
                    <mxGeometry y="190" width="160" height="26" as="geometry"/>
                </mxCell>
                <mxCell id="3rZtywOMPf8drsKk33FH-9" value="ladeEnergie" style="text;align=left;verticalAlign=top;spacingLeft=4;spacingRight=4;overflow=hidden;rotatable=0;points=[[0,0.5],[1,0.5]];portConstraint=eastwest;fontStyle=0" parent="3rZtywOMPf8drsKk33FH-0" vertex="1">
                    <mxGeometry y="216" width="160" height="26" as="geometry"/>
                </mxCell>
                <mxCell id="3rZtywOMPf8drsKk33FH-10" value="" style="shape=image;verticalLabelPosition=bottom;labelBackgroundColor=#ffffff;verticalAlign=top;aspect=fixed;imageAspect=0;image=data:image/png,iVBORw0KGgoAAAANSUhEUgAAAbAAAALXCAYAAADsVxVVAAAgAElEQVR4Aey9b3BcxZk3er5s1W7tux9TzFt1P0QVVyW+S+3iL8GqulXB864317pFiCd4s9Zd3o2jZBNHS/5pXVky2PhqZ0nW0TpZr0KIM7EdmxFge2SwMwbLHttgIxlspGUhMpLMCDBkABOGxKAxyPC71TOn+3Sfv33OjEbjw+Mq+ZzT/fS/39PP8+vu06fHgPRvbm4OV69elUIW5vbKlSuYn59fmMxtuV64cMEW0vxHhhnDrhX/SEfRUCYdRcONpyI74kiEu5KvC4eXLK3j64ywCWT5qPek1KjIoUaUNMgIjx8RWHjM5BREYDIa+vfk6/SxsksSgQEgw7N3C71nMjw9nNykdAzPLV3YMNJRWMQsedKRhUWYu3YbCNIMLIz2PGTbTake1QwVTM4xFFyKMDlHBQ7tB7IjbahcBT+Kg3UiMNeuEC6QDC8cXnbpj6Lh2TGI8kyDjCio1dPQICMadu3m64jAoulRSdVuSlUqF/GBnGNE4EDvKaMiR3YUFbl6uo/iQJAIrLE+U0tNhtcYiB9Fw2sMsXpqGmRER5FmYNGwazdfRwQWTY9KqnZTqlK5iA/kHCMCRzOwyMCRHUWGrpbwozgQVAjsyJEjKBaLOHHixIL+jYyM4NixYwtaBm9DLpdb8HIYZgw7XuZCXklH0fom6Sgabrwvkx1Fw498XTTcWL+TfZ0XtRts1MP/DMMA/REG1AeoD1AfoD7QLn1g06ZNgqM4V/GrwdaC+V+7VJjqQcZDfYD6APUB6gOsD6TTacFRnKv4VVlC5B1m8+bNoD/CgPoA9QHqA9QHFqsPyHzkuYQoR+gkkOXpnhAgBAgBQoAQaDYC7B2YDh95zsCaXSHKjxAgBAgBQoAQ0EGACEwHJZIhBAgBQoAQaDsEiMDaTiVUIUKAECAECAEdBIjAdFAiGUKAECAECIG2Q4AIrO1UQhUiBAgBQoAQ0EGACEwHJZIhBAgBQoAQaDsEiMDaTiVUIUKAECAECAEdBIjAdFAiGUKAECAECIG2Q4AIrO1UQhUiBAgBQoAQ0EGgZQT2zMtvgf2def5VnByfwbEzz6F45lmcOPMMTp6ZwMkz4zh55hxOPTWO0bP/hdGzEzg1dg4nTz+Jk6fPWH+jT+Hk2Fmcfvq/ce78C3juxdfwm5ff0GkryRAChAAhQAjECIGWEdgjz7yC3GgJPz10Dv+66wjuHNyPzYMP4l8Gh5AZ3IPM4E5kBrPY8rNd+I/te/AfP9+NH/1nFv/67z9FZmDQ+vvxz5D5z19gYMf9yD5cxL7Tz+Lgk8/HSCXUFEKAECAECAEdBFpGYA+duYDs0Wfxi8NP4+cPj+HnBx5H9sBJ7HzoOHY9dBS7HjqCXz18GEOHjmBf4Sj2//ooHnjoMPbsexh79j1U+9u972Hszh/Crw4U8KuDI/hV4THsfvQMHiie02kryRAChAAhQAjECIGWEVju6AR+su80do9MoPDUNB5/7iU8Mfkizjw/iyenSnhy6gU8OXUBT0+/gGdmSnh2poRnpi5g4vwUxietv3Pnp/HU8zM4PvEb7D02ip8+8Ch+vu9ojFRCTSEECAFCgBDQQaBlBJY9cAqZbAEPHn8GEy/9Dq9dAS7NA299CFRg/f0BwLsAqh5/lwG8DWD6jd/h4cfO4t9+/iB+tH2vTltJhhAgBAgBQiBGCLSQwB5DJnsQDx6fwMRLb9YI7HfzwO8/BN7+4EO8Nf8B3nzvKt5+/yrenb+KK1ev4r0PP8T7AN4DcAXAHIDfX/0Ql96/it+8egkHTjxFBBajzkhNIQQIAUIgDAItJLDjyGQP4MHjT2PipUt4/Qrw1jzwzofAH65+gN9V5/H65fdQefc9vFN9D1fefx/vX72KDwDMmyQ29yHw1vtX8dt338fEi69h/7En8cN7aQYWRuEkSwgQAoRAXBBoHYENH0XmF3vxYPEpTMy+jterH6Ly/od490PgnfkPUJmbx6U/XMHb71TxztwcrlypYn7+fXzwwQeY/+ADXPngA7xz9SouVd/Hy7+/gnMvlLH36BkisLj0RGoHIUAIEAIhEWgdge0/jMy99+HBkdOYuPAqXn9nHpX3PqgR2NwHH+Ld9z/AO1fm8W71Cuaq7+LKlXfw3ntVvP/++7jy3nt498oV/H5uDm9cruLlt6tEYCEVTeKEACFACMQNgdYR2IMPIfPTX+LBR05gYuolvP6H91BhhPXBh7V3XPMfAh988CHm56/gypXLqFZ/j2r1ndpM7N1338UfLl9G5e3f47W3L+OlyhwRWNx6IrWHECAECIGQCLSMwHY8eAB3D2ax/9ETePbCy7h46W2ce3YSvx45igOHDuHhQ4dwiF0fPoADB/ZiePhBDA/vw/BwHvv378fevXuxb/9+nHjiSfx36VWcnbqIB4+M0hJiSIWTOCFACBACcUGgZQS268ED+LfBLB4eOYnnX3oVF175LXbeN4Qvf/WrWP2FLyD1hS/gC+yaWo3Vq2/B5z//OXz+8+z6edxyyy343Oc+h7/5my9iy4//EyfOTODMcyU8cPgUfnjvA7SNPi69kdpBCBAChEAIBFpGYHsePICBwSx+feyxGnk9Xyrhrn/5F3zyk5/En/3Zn/n8/Q/8jz+r/yX+5//EV77+j3jokeN4YmIK9x96DD/8GRFYCH1/9EQv5pAyDBgh/jqWJ5Fc14fs4UlU2BZY+kcIEAJtiUDLCCy3/wB+/LMsCsdOYubFV/DSq69h//BD+N73/hlf//rXHX9f+9o/4B/+4Sv4ylfWoecr6/Dlr/Tga729+I97tuPo40/i5FPP4b6HjxOBtWW3aqNKRSAwheyW9CA320btoaoQAoSAQECbwObm5sD/uIFv3rxZZBR088DwAWzbnsXhoycwdeFlvPHm7zE1/QLGxs7g8ccfd/w99thJnDhxFMeOFXDk2CN45NgRHC4WUXziSTzx9HM49sQEfjV8FD/42f20hBgE/kc5XiawlWnkjxdR9PkrDA0ivb4LHfKM7YY0RtkRMPSPECAE2goBmcDS6bTgKM5V/GpcvXoV/C8KgQ3lh/EfP9+Og48ew3PnS3jjzcu49ObbePPN3+HSpUt449IlvP7GG3jt9ddRfu01lMu/xW9/+zJefXUWL78yixdefhHPv/hi7XzEp555HkdOncOu/AgRWFt1pzasjExga3Io61ZxNo/e5dbS47It47opSY4QIARahIBMYJs2bRIcxbmKXw25PlEIbPcD+/Gj//wZ9h18FOeemcJLr/4OF199Ha+++ltcfOUVzL78Mi68+CKmX3gBU9PTmJqawgsvzOCll17AC6UZTE6dx3899xzOPfMbnJmYJAKTFUL33ghEJTB2FudYBsv4TOyGARCFecNMMYTAYiAgE5jfimDDBPbLPQ/iX/99EPft/zVOnX0Wz8+WMTN7EaXZFzHzwgv4zfQ0Js6fx9PPPIOnzp7FuXPn8Nxzz+GFFy7g/PPnMTExgbEzT2KM/eDl088SgS1Gb7kWy2yAwIBRpDmBGSnkLl6LAFCdCYH4ItAyAtuRy+MHP96O3XsLODH23/iv51/GxOQLGH/ueZz779/gyf96FqNP/xdOP3kOjz9xBqeeOIMzTz2Npyf+G0+dm8ATY0/h5KkxnHjiLI6PTeDQ8TP45d5H8YN76B1YfLtnE1rWIIFlNAmsPJbDwPoUktcnzB2PCSxdkULvlhxGXdctS8iuNJcoE2kU2c8v+P4bx8ANprzXbLBSQmFbL1IrliLB672kE6n1A8iNuVaiXqKEUWqoDFyeRG5DF5YmWHkd6FzTi8GRcu0XInyrSJGEQIsRaBmB/er+Q9iybRd2730UR089gyefKeHU0+dRPDOBY6PncOyJczh2+mxth+HIY2MYOTmKo+zvsTEcfWy09szCHnnsDAqPP4V9R07h5w8UcDcRWIu7zDVWnOScjTDvwFgzZ7JIciJIZDDq1vTKOAbXdARs0+9Aatt47WeD5CxKO7pEur6RAAabGBDLmcntJTmb2n1puBedvK4e1441gxh324wiYZTaPYrcbZyE6R2gA2gKaCsEWkZguf0j+PG9D+JX+47i18WnURybROGxcew/Olojo+Ejp/Cw9PfQo48jXziOvYfYrzMXMfzISTx05BSYHCOvPYeO456hX+Pftu/Fj3cMtxWoVJk2QkByzuEIrKQ48mX9o84ZyOVRZKSNHsaSrtqMq8B2OR5mMzJ1N2OnPQ+5bhuKzvwlGMe3LDPJrgvZGSkCQGmo25pxGR3oYjOuw/XdlvkdfegWs0IDxvKMc0elVI9Eok5eHWsy9TyGs+hb242crUy1BvRECCwOAi0jsAPHnsQv9h3DruETuO/hxzF08HHsGi7iF/sexS/2PoJf7n0EO+S/BwvIPnAQ24eG8Yv7H8IvH/x1LT6795Ga/M/3Pop7943gZ/uO4ZcPnVwc9KjU9kdAcs46BFatlDF5PIu+FdIsJNGLwiV7UysorLdkOm/Po+T20bOymzGB3oPs51v5vwry6/gspxcFOYqL1K6jyNSW8ww42jAxYM28lvci7/rNWgWT2y2Sc5CxjJFhILGh4JgtKtWhB0KgTRBoGYEdOfs8Hjg+jh0HH8dPc4ex9Zd5DGT340e/2Ff7jov9qvKA9Pej7ex3vnL40c9340fb78OPtt9fi2dy7O8nv3oYvzhwArni09j/+DNtAidVo+0QsDlnvoNW++pFCtKSnrEqC+einoTETBZdfFnP9v6qcrBXLCOq5Galrx5PixlWz7DMcjIBOmdmVg7sroriBk64tg0pCkZJxwxPzYeeCIH2QaBlBFZ8poT86CR2HDqNrbseRmYwF/B3HzKDu5AZ/CUygzuRGdytyA/sOIDsw49h3+nncPDJ59sHUapJeyGgOGc+2wm6JrD05l4MDI97HiU1vpUv6RkIfH9VIw9e5jIMTEgQVYtI89nVurzLzKeK4h2ceGyztEoBvZwY12vMmk6lBVl275U2dcgYJTL0uYCkHrptbwRaRmBv/mEO7O/1t36PV1//HS7+9g2Nv9dx8bev4eJv2VWVf+X1N/Ha736PN3//bi3f9oaZardoCMjO2fUkjjyyG1LSyRtJpEck5+5a8TLyt3FC6kY+SBxAeW+3O3kwchME1YO8famyWkSfSVKJO2zvycYyIs+l38n6njBSO31kb9ralNIvbUmRMQq70cUVHwokBFqDQMsIrDXNoVIIARsCus7Z9q4qebfLpg2RdQm51ZzAPHYnClnzRiKbZVttn0RLy5HqEiFQHekzSSqB9HF1p2J5KCUITHtJlM/YZKKSMdooEZu9DfRMCLQZAkRgbaYQqk6TEZCds+y03YqZzaGbL+cZBhy7BkWaUVjfh4UnMEOe/dTylL7xUupYQWG9SZS2d2cs2YIQmKNuotF0Qwi0HQJEYG2nEqpQUxEIQ2DmUp/4CNjoRGZMnfXU69bYDCy127nlo7Q9ac6mpM0Yl/LoMWdMbmcxygRW+wA5KnAyRkRgUVGkdIuAABHYIoBORbYQAdk5K7MbrzqwWQ/fNGHAcD2JvpnvwMx6SDsVu3bUCa4y3GOSmsfOQL9lSa/muYXLGBGBuSFEYW2KABFYmyqGqtUkBGTnrEVgAC7m1aXEu8cdHxmH24UoLQUatl2IopnSlvjatvwycmvM5UOvbfpy21YOYlLkFfJGzocILCR4JL6YCBCBLSb6VPbCIyA7Z10CY6db7JY3SHSqW99ZraWNF418ByYDYM24UsiNWb8k7b08KJGcYf9IWs65fs92QiaWdCK5MonuHRLdyRgRgTmBo5C2RYAIrG1VQxVrCgKycw5BYEAJ2VXmDIi9h3LMgtSlRt2TOJTvr+wNlLbMd63i5yS6bK2X0ik/+ZJIInNK/tDZEqycHUCX2KAivWdjIjJGRGAWaHTX9ggQgbW9iqiCDSEgO+dQBAZUz2asY5oMA46ZUNizEG8v+J/YoXwTZpJn4AfKVYz2d0rb6RNYurYP2eH6WYjsF6b71kqn0xsJdA/ZNpHIGBGBNdTdKHFrESACay3eVFqrEZCdc0gCY8cvjW60Ttww3M5EvDSKzM3Spg/+nZVy7UBqy6jLKRsuYIxlxLFR7Nuu4FM+WB5VTO7okT7GlmaOtnr07Jh0vM+jGZiLHijomkCACOyaUBNVMjICDREYgMtF9ImlN3bQre00DLNi/PfAOpdw8gj6PTCvFknfhGn9TpiUz6VJFHb0oWdlp0RmHehc2YO+HQVM2k/54ElljGgGxlGh6zWAABHYNaAkqiIhQAgQAoSAEwEiMCcmFEIIEAKEACFwDSBABHYNKImqSAgQAoQAIeBEgAjMiQmFEAKEACFACFwDCBCBXQNKoioSAoQAIUAIOBHQJrArV66A//Gfbti8ebMzRwohBAgBQoAQIARagIBMYHfeeafgKM5V/GrMz8+D/xGBtUAzVAQhQAgQAoSALwIygW3atElwFOcqfjXkXIjAZDTonhAgBAgBQmAxEJAJzG9FkAhsMbRDZRIChAAhQAh4IkAE5gkNRRAChAAhQAi0MwJEYO2sHaobIUAIEAKEgCcCRGCe0FAEIUAIEAKEQDsjQATWztqhuhEChAAhQAh4IkAE5gkNRRAChAAhQAi0MwJEYO2sHaobIUAIEAKEgCcCRGCe0FAEIUAIEAKEQDsjQATWztqhuhEChAAhQAh4IkAE5gkNRRAChAAhQAi0MwJEYO2sHaobIUAIEAKEgCcCRGCe0FAEIUAIEAKEQDsj0BCB/dEf/RH+9E//lP4IA+oD1AeoD1AfaHkf+OM//mPoHC6vHOb7F3/xF/iTP/kTkZBnQFeDMDEIA7ID6gPUB1rbBz75yU/i7//+7z0niwqBceX8+Z//OdasWbNgf6lUCl/4whcWLH+57qtWrVrwcm699VawNsnlLtQ9K4eVt1D583xJR9H7P+koGnZkR9Fw4zYbJ1/3mc98Rkwa2u7nVNivabIfJGvFvwsXLix4MVevXsXc3NyCl8MKYOWw8hb6H+koOsKko2jYkR1Fw42nipOva+gdmB/jcbAauZJzjI4eOcdo2JFzjIYbTxUn58jaRHbENRvu2io7IgIz9UKGF66DcmkaZHAkwl/JOYbHjKVolXNkZZGO2ltHRGCmfojAonVUIrBouLFU5ByjYUcEFg03nipOvo4IzNRqnJTKmkTOkZtruCs5x3B42aXJjuyI6D3TQFAPJ7sUEZiJCBmevWvoPZPh6eHkJkWDDDdUgsNokBGMkZ9EnHwdEZip6TgplTWJnKOfCXvHkXP0xkYnhuxIByWnDA0EnZjohBCBmSiR4el0F6cMGZ4TE90QGmToIqXK0SBDxSPsU5x8HRGYqf04KZU1iZxjWLOuy5NzjIYbT0V2xJEId6WBYDi8uLQ2gbGOyf/4SRzf/OY3RRiPa+Z1enoaMzMzC1pGM+sblBdrz9TUVEvaw8ph5QXVqdF40pFlF2GxJB1Fw47sKBpuYftnI/Kt0lEulxMncfjxketRUvQhMx8H6F1pdK+Hk5cUM6iF/kc6agxh0lE0/GgGFg037RmYnD2fgRGByagE35NzDMbIT4Kcox863nHkHL2xCYqhpfgghNzjW+XriMBM/Mk5unfEoFByjkEIeceTc/TGxi+mVc6R1YF05KcJ77hW6YgIzNQBEZh3Z/SLIQLzQ8c/jpyjPz5esa1yjqx80pGXFvzDW6UjIjBTD0Rg/h3SK5YIzAuZ4HByjsEYuUm0yjmysklHbhoIDmuVjojATF0QgQV3SjcJIjA3VPTCyDnq4WSXapVzZOWSjuzo6z23SkdEYKY+iMD0OqZdigjMjoj+MzlHfaxkyVY5R1Ym6UhGXv++VToiAjN1QgSm3zllSSIwGY1w9+Qcw+HFpVvlHFl5pCOOerhrq3REBGbqhQgsXAfl0kRgHInwV3KO4TFjKVrlHFlZpKP21hERmKkfIrBoHZUILBpuLBU5x2jYEYFFw42nipOvIwIztRonpbImkXPk5hruSs4xHF52abIjOyJ6zzQQ1MPJLkUEZiJChmfvGnrPZHh6OLlJ0SDDDZXgMBpkBGPkJxEnX0cEZmo6TkplTSLn6GfC3nHkHL2x0YkhO9JBySlDA0EnJjohRGAmSh89wxtFxjDESc78fMvw189j9+y8Tl9rWCZQR+UiBvrzKDdQEhFYA+ABtV8/aCyH4NSko2CM/CQC7cgvsWZcq3REBGYqJE5KZU0KnoHFicAqGN2SQgcj5DU5IjCbk6HRvQ2QEI/BdhQiMx9R0pEPOD5RRGAmOB89AiuhsGUAA15/67us2dmqXk+5H959L05dWuwZmETGRGAOcyfn6IBEO4AITBsqRZBmYADI8JQ+EeqhYcMby1gE1j/qWXZ76IgIzFNBZEd+0ATGNWxHgSXUBdrDjjQrqyFGBEaGp9FNvEUaNjwiMG9wmxTTsI4060HOURMoFzHSkQsoGkFEYERgGt3EW6RhwyMC8wa3STEN60izHkRgmkC5iJGOXEDRCPqIEFgZuTXmTji+TFWZRH5LL1LLO8wlrASWruhB344iyjqvWsrjyO/oQ8/KzvpLfXOnXcfyJFLrB1E4X3GF/8KFMfe69PcgeX2iXpfEUiTXZZA7a8ujXMTg+hQ6l5htWdJZK6to2w7nqtRKCYVtvUitWIoE3xVYSz+A3JgtA3vNZZIxMpAX+ho2PDlvrht7+bZBRmWmUMNB4GUY6FieQu+WHEY9mlLe2221+4Y0Ri+7FFILKmHrKr5rMoHuoRJwMYcUx8zt6lNvr1JcdeQl3GB4wzrSLJ8ITBMoFzHSkQsoGkGtsqNF3sShElh1LINkgjspl+uSHuRnvdCrYHybuRPNzZlJYZ23F1CyZWMnsMpI2qcupgMFUDrYi04pb3UbeicyY1VRkl2ppWG/tPX2d6wZxLiXU5dJZjEJrDqD/O2d1jszVzw6kNo2DgsNDksZ+dvMAYJhoLN/1EUGKG23NpUk1hdQG0IQgXEQfa9EYL7w+EYSgfnC4xlp93Wegg1GtA+BrelGd428Eli6tg/Z4SIePfIQdv9wPbr4zIY5xlVZB/kAVYzfLTnQJV3o3ZhF/ngRxeNFFIYG0bdWmuEYBlJD6pRAIbDlnSYpdaBr/QByh1k+eQx+NWnNFowuDOzI1OUSSfRsyaHAyhseRO8qPns0YCTSKJpeW1ZqaUiaeRhyOcXaDLKbz/pYm5dn3GcmbUFgz2P331kEZDDsORbH88hu6MZSaVDiSlCXCugVMp3InLXR3MSANUiQsaiWMV7T8SB6OGmuTAu9Fz1m2342I+vIT64ZceQco6FIOoqGG08Vpx3X7UNgzAElujAgLc+JkWNlFJnlfEa2DAMTXBXmdSaLLu7AZAdnE6ucMgmHya7OKUSoEFitLt3Inrc5UlQx2i8RJZNj5dlWFIESctKsIn2qXhFheIpD7vWYVVYwud0iuWUeMxNbE8Vjw85RJkefpbgzW24UM6/O2/MouS3zViaRFXgsU2alvMLVkT5rcLB8AOMiYlzRvTyj5SIA7UK0sHDeCTtyRjU9JE7OkYHTsB1pIkw60gTKJtZWBNa1XV3Yk5VaHkoJR2mfPZW2J824BNLH7aQjt7iE3GpOhOo7IzuB2esicpnJIsnJ0nAhUy54Ku2ob53Aysiv43XoQnaGJ3C7VlHcwGc3KeQuusm4hzVseDoEdimPL3EsXGfGUt0uF9HHZ1mu32pVMbpxmcCsjr86YFiWPihlKN8Sgclo2O9lO7LHNfuZCCwaoqSjaLhpExhzvvyPv+fZtGmTCONx4a6vYM+t3Jmvxp4LVhksH67UWp5P9osR+updM1K57+DcT76MFX+1AkuX9OO0VE9nXeTyVNnp6Sd862LldRrf50470Y9zXuVd2IPVXG7zaVHfufIBfIOHf/0Q3vRKz8Mf+75w6msfeEXkY9VHxYyHcwLjz6GvT/SLcg2p/nI+bz70DSHzjYfeDKzb6Tu5rtdi3ysu9X77NL7/l1xmNbbd14/lHKtb9+D49LRHGafRL8m9wrGLeG0YO81yW1WOYkeadZP1HOZ+2lNHLvpuoC6twq5V5ZCOovWPYrEofJAfHxlMkfyPE1g6nRZhPC7cdRY7U9xh3YUTUhmOfGZ24hbupDae0C/3jTJmJ07gwK4f41v/+0Z8nOdhqOVNTT2hWZcTuIvnkdqJWa86e9X35F0C8E/dfg8OP3LY/+++7+EmXl6YdnvVSzdcqqfhUe6JjVx3n8K37g1oxyOHcf8dN4m233XS6k+yrt86eRdu5O3l1+u+iJ3n5zA1NeWhd02d6Lad5DxwdteZrD9vHQWnlfOh+4XDK046OnLkiPApfnxkyBM8TmCbN2+WgyPcS7sQbbvoWGZ8VFLLWN5x5vVOhr3UH84ivT6FpLwtnTtC5eq3hKjGqQ3TXK5yqS8byc7uukUAznHUvrouvam140/MAbDyIv8LXEKUdceJTP9qXwa26qkuGxpGAt176xtuvJenNHViFeJ5xzBj2LXiX8M60qykYkeaaaKKeesoao7OdKQjJyZhQuKkI+0lRBkg7nDbicBKw30+297Z90hJ9GzIoHcld7IqSanvwNQ4ue3aGwaIwHyJ2pvAgMrBXrFczAis92B9l4y34RGBqX1UfSICU/EI80SDjDBoWbKtGmTEgsCUj2GNBJbe3Iv0jjyKx8dRqlRQFTvj5FmDSlKLQWB+TtzqCtHuGja8UDOw1aE2mPi26GLe/JyCDzTY7tRu5C/6/VQHEZgfpkRgfuj4xzVsR/7Zi1jSkYAi1M21T2DVItJ8d5vRicwpx552CZDFJ7A56d3Ssq1is7hUx+bcNmx4gQQGjPZzkrnB+WlDpGbInx8sQ19/H5aZy76J2/IYu3DBI1ciMA9gasHkHP3Q8Y9r2I78sxexpCMBRaiba5/Azmas5aYNRddTHAQi1SL6xHuwxZmBzc3stI4/WjmISVG55t40bHgaBCZ/2t5HIl8AACAASURBVJC8p/GWyB93J2q6lD8jSOBzPz7pARIRmAcwtWByjn7o+Mc1bEf+2YtY0pGAItTNtU9gsqPdKJ8G6MShtNv6lsywbRpp1RLi3Nysdeai9H7HWdt6SG15dEknkiuT6N6hTxING56Mq9emmYs5fJ4PCBK9KFzyagULrx8Zxd5FJleyj8RtsrM5a+kw0YciPz5LPqXjY59DzvUoMSIwG5rKIzlHBY5QDw3bkWZppCNNoGxi1z6ByZslEt0eDq4K57mD6ofBrSOwObAzH/nSmJFIei57Vs4OoEssjwZ99KxqtmHD0yEwVPHYphvEZo3ECrdTSVi9Khjf2mXNlB0fPZd8SV3Z1LFGPUGl3mqJwGwnrKioBD+16uUzq0nDOgpuTk2CnKMmUC5ipCMXUDSCWmVH1z6BoYLCen5aBXvhn0SPOAexgNy2PljnCnYguYKf9rB4BMbOblSPpLLOf3Q/u9E6PFjpOzLJ2GaUDRuenLfXDIx96vDmY+i/kb8LY/gvRfcGfg6lHf/6hgz7LEqeGYuDepWGqgf+pnarJ7awo7uyYndpB1Jb2AaeIugsxDqIRGBKZwr10LAdaZZGOtIEyiYWAwIDcFk+K1Fypnx5i12X9CD7bKW2Rbv+GUACmTELjVbOwOqlVjG5o0f5yRf+eYJ67UDPjkn3d3syySwWgV25gvnKs8iukw4wlnGX75kO7OdLyudY+i1DXszjcx/junXORuXT6gV+Qe9ELfWLu1aNHFmB5BwF7KFuSEeh4HIIe3+O4hCNHNAqHcWDwBjM82WMDmXU3wFj747W9SF7uFT/+Q0mJy05Ju6wNn20nsDMvnFpEgXH75d1oHMl+w20Aib93iu1C4HN179TqJwvILuhB0nxW25s4MB1MImK+JyB28U4BsQhzdYHyzzWfj058FmxXGnIB/7WBKuYHOqTfkfOgLHS7ZcL7Lmqz60yPFYqEZiKve4T6UgXKXc5IjBzVN34h8zuAPNQmlZzJMJfyTmGx4ylIOcYDTeeKk7OkbWJ7IhrNty1VXa0yDMwf1CIwPzx8Yslw/NDxzuuVYbHakA68taDXwzpyA+d4Lg4DTKIwEx9x0mprEnkHIMN2U2CnKMbKvphZEf6WMmSNFiX0dC/JwIzsSLD0+80siQZnoxGuHsaZITDi0vTIIMjEe0aJ19HBGb2gTgplTWJnGM04ybnGA03norsiCMR7koDwXB4cWkiMBMJMjzeJcJdyfDC4SVL0yBDRkP/ngYZ+li5ScbJ1xGBmRqOk1JZk8g5uplucBg5x2CM/CTIjvzQ8Y6jgaA3Nn4xRGAmOmR4ft3EO44MzxuboBgaZAQh5B5Pgwx3XHRD4+TriMBMrcdJqaxJ5Bx1zVmVI+eo4hH2iewoLGJ1eRoIRsONCMzEjQwvWgciw4uGG0tFg4xo2NEgIxpuPFWcfB0RmKnVOCmVNYmcIzfXcFdyjuHwskuTHdkR0XumgaAeTnYpIjATETI8e9fQeybD08PJTYoGGW6oBIfRICMYIz+JOPk6IjBT03FSKmsSOUc/E/aOI+fojY1ODNmRDkpOGRoIOjHRCSECM1Eiw9PpLk4ZMjwnJrohNMjQRUqVo0GGikfYpzj5OiIwU/txUiprEjnHsGZdlyfnGA03norsiCMR7koDwXB4cWltAmMOkf/xHwxMp9MijMddq9epqanYtOVa1UFQvUlHlg0GYbVY8aQj0lEr+96RI0fEbwT68ZHBRqb8jxPYpk2bRBiPa+aVj0qamadXXtPT0wvaFl4uUy6/X8hrq8ohHVl2EVafpKP2x4501N46KhaLgsD8+MjgUzZ25QRGP2gpoxJ8zxwcM4hW/OOGt9BlcQJb6HJY/rQ8FQ1l0lE03FgqsqNo2LXK12kvIcrNIAKT0dC/b5VSWY3I8PT1IkuSjmQ0wt/TICM8ZiwFDTKi4UYEZuJGhhetA5HhRcONpaJBRjTsaJARDTeeKk6+jgjM1GqclMqaRM6Rm2u4KznHcHjZpcmO7IjoPdNAUA8nuxQRmIkIGZ69a+g9k+Hp4eQmRYMMN1SCw2iQEYyRn0ScfB0RmKnpOCmVNYmco58Je8eRc/TGRieG7EgHJacMDQSdmOiEEIGZKJHh6XQXpwwZnhMT3RAaZOgipcrRIEPFI+xTnHwdEZip/TgplTWJnGNYs67Lk3OMhhtPRXbEkQh3pYFgOLy4NBGYiQQZHu8S4a5keOHwkqVpkCGjoX9Pgwx9rNwk4+TriMBMDcdJqaxJ5BzdTDc4jJxjMEZ+EmRHfuh4x9FA0BsbvxgiMBMdMjy/buIdR4bnjU1QDA0yghByj6dBhjsuuqFx8nVEYKbW46RU1iRyjrrmrMqRc1TxCPtEdhQWsbo8DQSj4UYEZuJGhhetA5HhRcONpaJBRjTsaJARDTeeKk6+jgjM1GqclMqaRM6Rm2u4KznHcHjZpcmO7IjoPdNAUA8nuxQRmIkIGZ69a+g9k+Hp4eQmRYMMN1SCw2iQEYyRn0ScfB0RmKnpOCmVNYmco58Je8eRc/TGRieG7EgHJacMDQSdmOiEEIGZKJHh6XQXpwwZnhMT3RAaZOgipcrRIEPFI+xTnHwdEZip/TgplTWJnGNYs67Lk3OMhhtPRXbEkQh3pYFgOLy4NBGYiQQZHu8S4a5keOHwkqVpkCGjoX9Pgwx9rNwk4+TriMBMDcdJqaxJ5BzdTDc4jJxjMEZ+EmRHfuh4x9FA0BsbvxgiMBMdMjy/buIdR4bnjU1QDA0yghByj6dBhjsuuqFx8nVEYKbW46RU1iRyjrrmrMqRc1TxCPtEdhQWsbo8DQSj4UYEZuJGhhetA5HhRcONpaJBRjTsaJARDTeeKk6+jgjM1GqclMqaRM6Rm2u4KznHcHjZpcmO7IjoPdNAUA8nu5Q2gTGA+Z9hGGB/d955pwjjcdfqdXp6uiVtYcTSCoxaVU4r2sLLIB1ZNsgxabcr6Yh0xPtkK3zQyMhIjYuC+MiYn58H/+MEtmnTJhHG45p5ZUA0Mz+/vGZmZlpSFlOqXz2aFdeqckhHll2E1R3pqP2xIx21t46OHTsmCMyPjwx56sYJbPPmzXJw0++5c2x6xi4Z0tKHCygaQaQjDZA8RJhzZEuWC/2PdBQdYdJRNOxatRSvvYQoN4MITEZD/75VSmU1IsPT14ssSTqS0Qh/TwPB8JixFDTIiIZb2xBY+fggetd0osN8v2YYHbjx//kJzs7PR2uZLVV5KCWmmpkxWySAdjW88vEBZIbLzgoHhLQdgY1lBP6pofDtYc1tFx2N9tffAfOBXOhr/2hNe83TURm5NbxOGdRztzqIrnMMshErR++7dtGRdw3DxTRPR/7l6urIPxe92DjpqC0IrDTUjYQgLm6IBox/eAiXPqoEdmkUA2s6ak4/isNvO8MjAhMEbhCB6XlaDymaJXsAoxlMBGaSTXPegY0ik+CklUDXd7LIHy+ieLyAXUeer2140NSLr1jQ6LLtlNqgwycC8+0OnpE6zrF0cAADW0L89fcgKQ3QEneP18pvno5oBuap0AYjmqcj/4rQDMwfH6/YxZ+BXcwhxY379gKqUk2bqVQiMAnYJt5q66hBQmZVbrtBhhaOFRTv6LRmX8szGL1cT9g850gEpqWKCELN05F/4dp25J+NVuy1aUfuTWsrAktuLym1bKZSicAUaJv2oK2jjySBVTHaL5FXohu5WQv65jlHIjAL1ebeNU9H/vXStiP/bLRiicCauYQozcDs73qaqVQiMK2+HVpIW0cfQQKrnkpjGV9dMDqRGZPXF5q5U5QILHTH1UxABKYJlE1MZyneliTS46LNwAJ3cq3J4SXzQ2bRsvkyxoez6FuXROcS/t7MgLGkE8k1vRg8PImKx6ZFJ4FVUDqs7nxMXJ9Ez4Ysil6b5Oxke3kSuQ1dWFp7h9eBTlaHkbKyDFo5X0B2Qw+S1yfEMhIrJ7V+ALkxZ0FyPd12t4kdlAF1uTH1NWx79BWlLjUcKyUUtvUitWKptXFmSadnfQT2yk0V5bEcMuuSuPETXA/19g8MjaLspgMNAqucyqCTO/xEN7LnVYcvRo6NtEGqh2E4d+w1zfBmc+gW73YNdPaPOnThcI7lceR39KFnpbwb10DHctZfBlE4X1G0YD24EBjHaHl9I5BhJLB0RQ/6dhTd9QNA7nuin1mFaN0JHWlJRxNqmo40infoSCNNFBHtgWCUzG1p4qSja4bAKmcHkZJJizs6+3V5LwrSMg3XnWKch8cxcLNFKE6i6EDPXnU5s5aPTBq7R5G7zZnHsi31F/RACYXbpeUjez3N58TNAxg334mwMuR6OutlQDgWjbrc8MNzvPm1a2m41yIIj/p0rBlU6qNkwB5m8+hb4Wy3Ulc3HUjEYZ9ps2yrY/7kxWSY4TXcBqkeC0Zgl0eRWc6J3UDithxcepP0rV4F49tS0ickVloFV8NA5+0Fl7xUAitMDKBLIk97HsaSHuSDbMTlUxNHX3AJiJNzZM0jAnNRskZQqwYZi0ZglfNsp2ERxb1psUMruTFfD2PhZ8t425yBVc9Kzs3oQNf6NLLDZvrDOQxu6DZnQabhr8nBPrdxI4bE9d3o21Evc889P0CfuW29bvCdGJiwaUoijUSi7sQ71mSQO1xEkc0M13YjN1NPM77VIq9aOdtyOHTsKA4/cgC5bX0KGSfWF8DH1tWL43UM7ukRMzYZl8lLZp0C6vKtv/ki9jxvnfKgfqrAMByo1/t4sTbq75ZmiIa00UBBwDarYO369vYHMHJ0BMXhQfSu4qN9A448JOKwE5gOebF6nPzx56xZY60fRGiDVI+FIbAKCuslgvfCUjjHdzB+t9VXjCVd6N3Id+IWURgaRN9aabZsGLDjB8gExskvgaVr+2p28uiRR7E3+x2lzxnLB8CHWlzHso2IgRKP1LwSgWkCZROjGZgNEM3HRSMwUT/JEdsNs67UGWRXcaN0vkcQ+VTkUW9KeVnOZGTjZATVeUdRkAaLrxue+tKdb3cWZUh1ZXkkNljEI2TYTbWINB8Br7FG38qoRBmldyFrEp/IR3K0dlxqMgF1UUaOEwPWzGt5r+voG6hgcrv1Pd4yx5KX6pg5fqrhVZRNC9ZsFIBHe6rybMFl2VDgMTFgvU+K3AaRm+eNoiNPKe8IZaBg27RhT1XT0fPb0cVnwz5kpyyvrrb6VD1PO4F1Ij3Ch0TSKQ9Kn0sgc1atkWwjRGB1bBQ7UuFq6pNqR03N2pFZnAYZ7U9gz28XM7TEHUXHewRZO6Xd3qdtyMZprMo6lmGEUi/l0cMdin0mp5BG0kk6vDKSnEw+dudYHekDex+WXNmD7LPq+x4vh8+LgFSGYTjrYhleBfl1fADgQpQiQ3ZTRXEDnz2kkLsoRcoEIpGy0/DGMXCDWV5CesfkQmDV81nrPZGvs29SG6TmeN3adeQl5xauzCSNBHoPWiTiJs90NHPvCnOmnUD6uK0PKIlKyK3mepRwrcmoBNbls5u3MmzN7OW+ybKRbYQIrA6+ZUeKMpr+4LSjphchMhS+ToQ0/6YROwpTm7YnsMtntqFnZRLJ6zus9z8eLfQzQDnObrgsO0upJWRXWg5YWWaRSSORcSzBiGqV8+jmJMhG1aYfC6VUF4cv8mc3AXURhlcpoJfXRVqqVPKSH06lxdJl915rIba0PSnC+0YsR+tmeGz5dOmK+kYVsSHG3h55OdKXvAA0qQ1yM73uQ+lIzkRuD5vhO2awsnD9fm7uLZz7yZeRXJnE0iV2UrLLyyRll5XjbAMP+zl7M1lrQGh+UM1Lkm2ECIzriA5c5v0jzDWyHYUpBEDbExj7iQrPf/NVVMqTGK29B+tRdibaDTDIOC0Ck52BzVHIpGGfnSmVlPMwYCSW1t457fn1OUy+MadIej7YHb5dMKAugsCkfJZ+J2u9Y6yddmK+R5TvpXeS/MgjtrxYWM9H/93IW7ymfwipVI/Uxow18zIM2GcM9qbKs9HobXDk6hoQzfBK0lmE3ps27AUKHdkj+PPlCsrnR+vvwdbJOxNt/VJ5B2aPk5YQWb5yvzGPtOLFBdkIl/O7WnbkJ9VYXDQdRSszUEfRsnWkchsIOoSaFBAnHV1DBFZFeSKP7MZepNiIlb9j4rML23XBCWyj/chUW++azaPHY9dk4vou9G7JoXi+4r0kKjt8t8NvZUfkUhdueLJTcuxGs2HmiBckLROy6iC1DU9qj6OcgBlYc9pg04/HY3jnqL43dWxe8SiHBXMd1USq9U9E0utTSMqfOLjqSNWBuonDHkcE5qOCwChFR4HS0QW07Sh6ESIlEZhpVE05C1FyxPalPaHUoK3b7DuwdX3IrLeWuRacwGyjV9E75JvKJPL9th2Sdoe0JIWBUy7vSiSHb8elVoSEmzVTsgrnhtcc578ABJboRuZua9NI4ra8Y+cob01z2sBz87+GJTBl04bh3DzkVxrXUWm4D0mfARn7DqxnQwa9fGnb8f2at35Y+cKO2INPv5FxttuPXzvkuDg5R9YuriO5jQtxr+hoIQqQ8oyTjtp/Bja7V1luqs1ezG3G47MVVDy+obIbYJBxWkr1cQY+xi/1D5fbKthnA3t+8l186dMfF++SrJlIh/MF/gIQmCsRutTWGeSNibbhSe0xxG7DMvLiW7oE5Hduch1k3UVvg5yj930oApN3dxoJdA+5fe3lXRZzjq88sFb6NCCBpTf3Il37tGMcpUoFVbGC7q0DmoF5Y9xoDBFYNARD2VG0Imqp2pzA3sbI9/iuuPqLcZe5imi+7Ojai8DqVRRKrVYweTyHjPzd2UrbzkjJ4bs67QAyFYYn5bNsq7IlReAWfMOIponvwHZLjn5WOsw50Y28vPORV6wpbeCZ+V+FjvzFAGVLut6mDXuWc28dxvfFzKsTGbeZuEhEBMah0NYRT9DAVdhRA3noJNUeCOpkFiBjDdYDBBuIbpWO2pzAzqBfGHgfitbmNxdo2RZw7mSlEytMST9yYyKWUn0cRQBp8EqVDqbRu4btnFSXlJxKncSgWBbqRUFmZ8lpN0Rgcp1XDmKSVzLkdXzrMjFzDNqFyDZddJifBwyMmY3yaU9pe5fIW/6oW1SxSW0Q+fncOHXkJlxSTmHxOmnDLaUcNnf6Lmv2tcH/ExH2bWGfWH62v+fy6bO0hChDHvqeCCw0ZLUEenYULW85VZsT2GPoF0abdvzSrNwQyCN5Y3EJrHKwVzjkrh3WbMOpVPnbHlv7fBx+rd2yU3d5H2cZnuzcgr9NKu/tRoK9U1yZRPcOie5s34HxjYjOkWMVxTv4rHmZdZqJb3vGMSCOXnKrY5PaoHQY9wenjuxy0Tdt2HOaO3mX6CeGy0YcWV7+xtF5goiMj53c6B2YjGPYe8uOwqYMJ++0o3Dpw0hbg/UwqcLJBttRuPy8pNucwF7C7lv5rMr7HUN1Jo9e4QDr8vZZSytnYMpJHOJ9D2BXqnK6wrq8cjKIvHU8JS+5cU1qE1j9nEFxKnoi6blUVTkrn6Fn/+hZfV/VtXW8Vl+74VVG0tapH2IXo/dJHLw5ynFhiV4U+JFZpgD7SPj/5IOZyG3gpXlf7TqySyonzAfsnrSntT/PzezEatEm9adWLNmqy/mP9m+9iMAsvJp7RwQWDc8gO4qWqzNVmxPYFVw6sN5aZjESSH7VOgfRfk5cx4qkOG5oUQkMgLo7rX5+4/b97CzEw7VzE9NfTUrtcjl3Ufrg1GA7Fc2zH93OQvTbhVhXuW3WwE4mN8/JY+dR2nFkJ5e7bkiwfaybWNGDfxZnIbKzIKUz++zO3XcGxmpZxehGa5ky4VhSq2Lft6342unqUdog1cM5k3EOMlSTGZd+PdzA0jV94X6ZWfyKc7b2cfvcXBmHvs5nq+x7wSR6xDmIhdqZmdYZlR1IruDtJwJjxNKKf0Rg0VAmAhNr95eV8/WsnXt8ZsauHejZMYnKJevUiYRtWa2lM7CazqsY39olkZRcX+k+0YWBs/LLL95hStIZkJa8eP8UYgZWz7GKyR09Giee17H0fN04Wwg+jX5Jj+OnUJQZpdt3baySl0eR5sdQGQmItpqQXLjwm8bb0BCBjSLDZ0wNXesEVHOOb59WTq537d8Mz2crsJamE7ZTaWgGxq2m2VcisGiIEoEJAqvvI+a/P2X9DlgHOley3zcqoCT8v2TIibSy6aP1BFZXfPXiKHJbbL+/lVha+/0yz9/O4n2m9ntjKeWEEfGr1aEJzMz00iQKjt+csrAUMzxeB9cr+y21+u+yfeo6Tq6N/x4YK6p2PiQnh0QfitJnEmLtvpE2tBuBXb0KzJcxOpRRfwfM/LYxe7hkLS1LOlfPBZX6veMbMXoH5tqFNQOJwDSBsom1HYEx58H/+Cjxm9/8pgjjcc28Tk9PY2ZmZkHLaGZ9g/Ji7ZmammpJe1g5rLygOjUaTzqy7CIslqSjaNiRHUXDLWz/bES+VTrK5XJiI5QfHxkywXICa8pJHHLGtnv7BgFbdFMfmbIW+l+rRiWsHTRyjKZN0lE03HgqsiOORLgr+bpweHHpxd/EwWviciWluoCiGUQEpgmUTYwIzAZIyEcisJCAmeLk66LhRgRm4kaGF60DkeFFw42lokFGNOxokBENN54qTr6OCMzUapyUyppEzpGba7grOcdweNmlyY7siOg900BQDye7FBGYiQgZnr1r6D2T4enh5CZFgww3VILDaJARjJGfRJx8HRGYqek4KZU1iZyjnwl7x5Fz9MZGJ4bsSAclpwwNBJ2Y6IQQgZkokeHpdBenDBmeExPdEBpk6CKlytEgQ8Uj7FOcfB0RmKn9OCmVNYmcY1izrsuTc4yGG09FdsSRCHelgWA4vLg0EZiJBBke7xLhrmR44fCSpWmQIaOhf0+DDH2s3CTj5OuIwEwNx0mprEnkHN1MNziMnGMwRn4SZEd+6HjH0UDQGxu/GCIwEx0yPL9u4h1HhueNTVAMDTKCEHKPp0GGOy66oXHydURgptbjpFTWJHKOuuasypFzVPEI+0R2FBaxujwNBKPhRgRm4kaGF60DkeFFw42lokFGNOxokBENN54qTr6OCMzUapyUyppEzpGba7grOcdweNmlyY7siOg900BQDye7FBGYiQgZnr1r6D2T4enh5CZFgww3VILDaJARjJGfRJx8HRGYqek4KZU1iZyjnwl7x5Fz9MZGJ4bsSAclpwwNBJ2Y6IQQgZkokeHpdBenDBmeExPdEBpk6CKlytEgQ8Uj7FOcfB0RmKn9OCmVNYmcY1izrsuTc4yGG09FdsSRCHelgWA4vLg0EZiJBBke7xLhrmR44fCSpWmQIaOhf0+DDH2s3CTj5OuIwEwNx0mprEnkHN1MNziMnGMwRn4SZEd+6HjH0UDQGxu/GCIwEx0yPL9u4h1HhueNTVAMDTKCEHKPp0GGOy66oXHydURgptbjpFTWJHKOuuasypFzVPEI+0R2FBaxujwNBKPhRgRm4kaGF60DkeFFw42lokFGNOxokBENN54qTr6OCMzUapyUyppEzpGba7grOcdweNmlyY7siOg900BQDye7lDaBMcPmf4ZhgP1t2rRJhPG4Zl65UpuZp1de09PTC9oWXi4nFv68UNdWlUM6suwirC5JR+2PHemovXVULBZrXBTERwZTJP/jBJZOp0UYj7tWr1NTU7Fpy7Wqg6B6k44sGwzCarHiSUeko1b2vSNHjggC8+MjQ566cQLbvHmzHNz0ez66b3rGLhnS0ocLKBpBpCMNkDxEmKGzWdtC/yMdRUeYdBQNO9avGXYL/U97CVGuCBGYjIb+fauUympEhqevF1mSdCSjEf6eBoLhMWMpaJARDTciMBM3MrxoHYgMLxpuLBUNMqJhR4OMaLjxVHHydURgplbjpFTWJHKO3FzDXck5hsPLLk12ZEdE75kGgno42aWIwExEyPDsXUPvmQxPDyc3KRpkuKESHEaDjGCM/CTi5OuIwExNx0mprEnkHP1M2DuOnKM3NjoxZEc6KDllaCDoxEQnhAjMRIkMT6e7OGXI8JyY6IbQIEMXKVWOBhkqHmGf4uTriMBM7cdJqaxJ5BzDmnVdnpxjNNx4KrIjjkS4Kw0Ew+HFpYnATCTI8HiXCHclwwuHlyxNgwwZDf17GmToY+UmGSdfRwRmajhOSmVNIufoZrrBYeQcgzHykyA78kPHO44Ggt7Y+MUQgZnokOH5dRPvODI8b2yCYmiQEYSQezwNMtxx0Q2Nk68jAjO1HielsiaRc9Q1Z1WOnKOKR9gnsqOwiNXlaSAYDTciMBM3MrxoHYgMLxpuLBUNMqJhR4OMaLjxVHHydURgplbjpFTWJHKO3FzDXck5hsPLLk12ZEdE75kGgno42aWIwExEyPDsXUPvmQxPDyc3KRpkuKESHEaDjGCM/CTi5OuIwExNx0mprEnkHP1M2DuOnKM3NjoxZEc6KDllaCDoxEQnhAjMRIkMT6e7OGXI8JyY6IbQIEMXKVWOBhkqHmGf4uTriMBM7cdJqaxJ5BzDmnVdnpxjNNx4KrIjjkS4Kw0Ew+HFpYnATCQW3fDGMuKnsVNDZa6fyNfmE9goMoZRr+OaHHgNF8fw3OtSB8svLhhOHQIrD6WErjJjwXl6STSkI53+UplE7juDOHPlCubn572q0dTw1ttRGbk1Zr80MhiN2BovnTakoxB1WRw7ClHBkKI6dhQyS1dxIjATltYbnk0fOg7JlsTvsfmG504Mi2N47nWp4+EX54dYPU7H8LycXXDuqkRDOvLtL1WU9vYhmWCOPYPHiMBU4F2evHTakI5cyvEKWhw78qpN4+E6dtR4KQARmIkiEVhQd3InhsUxPPe61FvgFxfURkDH8LycXXDuqkRDztGXwNRZCRGYirvbk5dOG9KRW0EeYYtjRx6VaUKwjh01oRgiMA4iERhHItx1cQyvMZLya6GO4Xk5O7983eIWzjkSgbnh7RfmpdOFhyMisAAAIABJREFU05Fam8WxI7UOzXzSsaNmlEczMBNFIrBo3WlxDI8IzF9bRGD++DhjicCcmDQSQgQGYHGcYyNq80/rq1TfJSH/fN1i4z1yJAJz07kVRgRmYaF3RwSmh5OulK+v081EQ659ZmDzZYwOZdCzshMd5m63j3/681j/kxGUaxuoJKfV77PXyCUfI7EUyXV9yB4uoeIBipiBzVcweTiLvnVJLK29BGcvwhNYuiKF3i05jPLtdx751IOrKI/lkFmXROcSvkOqA8tv/QZ+sOuE2R5bBi4ExvMQ9VjSidT6AeSftbeiiuIGXk4KuYte2+hHkRFtSiI7Y6uDeBzHwA1mfusLJmYS/o5diKfEDkWxg7JcRHZDD5LXJ8wdex3oXNOLgeFJTx2I4gGBH2974vok1nz7p5isNd29LvX0fnFSCZUSCtt6kVqxFIlaf2M67kH//mdRnpsDLuaQMvuhaJOZ3MvZSbmjtLvbzNeAsTyN4iU5tn7PBhlvPn8Ig+tTEk4GOpZr9DWX/gJIbec7RuWrpDdAJjkD9jY6a2sPCShLLle+97Ld8jjyO/oU+zcMhkUSqfWDKJy3+rzqHOV2mLsQuW6Xd5h9r67bvh1Fd9tj/c1jZ2m8B4J2nTbvWdVR8/K156RNYEyR/I91LPaXTqdFGI+LdD1/P772ae6AXa6f+BJ2nj+Mu7ghbDzhWm759A/w2etc0vN0hoHrPvMtHDhvtYXXd2pqCnPnD/jXo5bPdfjsv43hLQkPnkftev5+fOsz14lt1hwr5frprznrcPIukeaW7AkcWH+jeFbSmnW46f87odShvP9rQv5r+8uu+Mw9ew9ukrD44n2zgXJfeoDndcLCP7UTs0r7rbhbdk1i8r4v4eNSOfb6X/eZu3DiDacOavi9MY57/vfHRVvsaY3rbsJdJw9o1cVw1LNeZlA/qdXv3E7cYrbhll0qTrO7bhH1u+uksx2Tu76I63j7P/09HL7olJn7wyTu99Ux68cfxy3/7tHX5P4i6mfpwYEbq4+Cxyx2pixbsbdR6dOKrnlbAsri7bdfHbZbxti/3+LbX3hbblx/AJOOusjtuAsHzgT4gE98Cfe72H+QToPx4Li0/7Xm6xw4tn+93XRw5MgRYYt+fGQwRuV/vENt2rRJhPG40NcX92GtmBUYSNz0ZWy57xCOHjuKB7Z/G6s/YRpZImGNaDefdpT7zhP9WC6MJYGlf/tdbN9/tJbPofu24Bv/Nx+NGTASa7HngtUeVufp6Yew5UZu0PX028x6HP31Hmz7p9ViZshmZN946E1HHa5e2KO25c/X4rvZfbU6HN2/Ta3Djf04/bZUhyf6hSI4vsaSVfjGD/fg0LGjYHXY8pUVFgb2Ory2D1/m7f+nozVys+vilftWq2X801G8I+mVy8/cu8KUW409L/I6nkY/z//WPXjFTFdf5j0l4lb83VpTDx1Y9fUt2PNrpoN92P5Pa6UZrYGEa9kz2PN3fMZmQGn//u348qr/o14vuS9IdanX372evG3vPCn3EwMdt/J+cgh7fvhlrOB9USpj9X2vKLqWcex/guNTv87ct9bS0Y3fx9HX1Ph6PXza6YLV8s2nnXqS+otVvzfxLOsrx/bh+3/F+/KX8ZMjj2Lk6AiOPvmKlM8r2HMrlzFg5eFWX7cwXlbdxpi9sr/du3fX+7v5fDT7DSzl/cZhd+/gXGa51SdZf79zO/aZaQ/dtw3f/Vs+Q67XldeTObM6lmo76raj2v++7HexWqyEGDBu3IJztn7vpVOrHDcMmhfGX5fwfrqQ1+npaaU/L1RZrcCuWCyK/uPHR4Y8deMOdvPmzXJwhPsKCuu5w0ogefeosrxUU2p1BvnbO0Ula2XblyEuFdArHE8XBs5ayw1ypcqH0+jkxqQspwC/ue8bwvGkdpfkZOK+Opax0q/KQpWS22Kg846i0haWydWrb+LERmtmtWzLuMgb0pIQa2PitiwmL1vR/K40JC1N3ZYXHxQrS0KJDE6YBs7TAax+dSfA9WckMpBqYIpKSzIKRtKSkRTOCUx85MzwXd6L/KxVsribzaGb68noRcGmpsrBXqGDxM0DGLfFs2VeZWmOlSXVpV6Oez3rceMYWM4x6EDPkKpBJnP1zXP4QZc6g7Yvr3ktN5UO9lr9w2PZkJUxvtXqz8v/cR9Kbt8YVyaRvY3bxjJkxqr1JvD/pf5ir5/SFxbzO7DLo8gIvDudbZjJoovb4/IMRl36O2tu5ZRkd6tzmLl6tbZyUIdC6q+1vDqRHrF1HCao1CWBzFkOpJkLLSGqgDT4xEiREdhC/9NeQpQrwh1gwwQmd2CHI5I3cZSQXcUdjwHDRmDjW5aZBJdA34jN0OWKAyht7xKy8ikKYz/+rBlef4dkS2Y+sndNbD09ieS6LCbloiYGsIwb45qcjdzqyetKHbPeLyWkkwMkh2Qk+lD0MGZAej9lO3mgtD1ptmEZfnCmPkK12mG9/+rd0GcShct7sEoBvWY7kttlB+9ODE4C89fBaD93ygZk/AFZx+46qL+nrGJ0I9d3OAKrHk8LglzWPwpZfRynmo7eOIw+QbTO90NuBFYZkQZHzBm7+NBaGZfy6OH95K/vqTljXrbjerlo1cNuH1J/aU8CKyEnCDiBbpfBgtVfE0gfd9MGR6SE3Gpu/xmcVpyjSmBdSp/l6evXynCPaR96OmWp+CxCzan5T3wG1vycnTmK9/3OqKaFfCQITO7AqjOr4ygrlY3OOXGqBCY59BsGXGYUNp3MWi/nE3db84+x//ycyL+zX50J2nJwfbTaYniSKFcqG4EzEmQbMop8U4jkkBI2glYLlDdsdCPP0zOhmSySpnNk7zRYeeKfINheFGYskuo9qHpaC2c7uekSWNr3OJ/y3m6Bc/qUqJ1Sd2ND0ZVchOH5Dnzc6wnIuLkTJKuNpSOLJO0EYScwZWbuR15sNiH1Y/auUtGRBAe/Hd3IHbdN11J/sddv8WdgVYz2W7NMZk9OeqpifFsPkiuTWLpEGsjxhitXmaT8CMxbr7XsJPuQbZ/F2XXKiycC40iEu3I7CpcqvPQizsDKyN/GjbMPRWcPV7fRl/Po5iNX2cFLu8WMNQMoHC+i6Ps3aI2ApVHthdNbxa6z2hLe9V21XYeFiRKqbks8CtYVaXnO5mgkOV+l+jokKRMAo/0cN7vBSmT+1QN4UyIwQbAr2dJnCdmVZh4KWUhO3jEYcCcGxwxMwlSttfnk0U7ZsXfvlVnZykUQmDwLdZTnXk82cxU7MGsYWPnKd0JHZzNitmYnCNnZ9fZLy1vGUvS5LV9JBVi6W4pv3Xu49r7Ir7/mN/JZtW3G6oFjvSjV4bf6JA55mTtxm/tqhASJ++3lCsrnR1EYGkTfOmtnMjsay3sGFkCEsq+QfQgRmLsOGggVdtRAHjpJF5HAJGdrWwrjFZdnYMoWYbnzSYYsZmic6AKvVodnzrG0t0faqMFJgl0TWHpzLwaGipi85MK0ypZkK0/eDn71VarUDrvD5On51XKCdgJj5MaX6L6Fo+/wGVhFEOyyrfVZ5/jdppxCVNYyI5fjZSr4S6TRLAKTScFtNs7qYRGY5KClutTr6kFg0tKo872Z1UqhI8nZ2fUh19XR53ze5agzI7l/6d0r9fDtLxI+LX4H9pv935XeA3q/17IQB1AtY3w4izT7nEB81uCFCRGYgl2EB8uOIiTWTCLsSFM+qtgiEpjkaNqEwBiIlWfzyKxVdz7ZnVTHmgGMKt/1qA7D6ys1X6X6OiRVvX4ExjaD1L9rug5sh1ztX7WIvhqZJ8R7p+pIn7mUJy0VirTLMDChltleBCbNFHUJTCKkphPY8jQG7pCWzO4ed1kyY3jK/cTLQXuHtz2BzebwuY+Z9U90I+e2kcfWrUrD/NBh93az78B6NmTQy1cMaAZmQzD8IxGYObNpbBOHtKTTLAKTZ2Yh9epQarWCyeM5DG7okT5GloxsSVraaCE7psWdgUGQlYEbBs7VURDLYdLOP2lJlr8HG99qvveRN5cIHKUBh0QaizUDE8vPUl3qVXWvJ6T2NpXA+G7D6ri64+5s0Ew9hZ0z9o02AuzgG98Bj9ofW7KEqOwwddlx6NIi9j60PthidlVf5UjvyKN4fBylSkVaulfbQ0uILmCGCHL4uhBpdUV9B+u6mWjILeIMTH4HJjlWqdLKEqLsgGSikkfW4tQIKRPN2yClVi9NojiUQUr6nsTapSe3ZTHfgbHGVsRyofFX22u7IcX7L8XZS+/BNrI5o/XsvonEnRiaRWDWjNC5Q4yr0NKRtCtNaROTdK+n8g5MWTbludevwvAE6TvrIy8hyhtRqqfS1k7U5RmMu3CYNXt22ymq1sX3qZ0ITNmi/jHXHYeOtlSLSIudnp3InFI3E6nyRGAqHo09WXbUWD5+qYUd+Qk1IW4RCYx9D8N3ellLW3KbZAKTHZy6C9F6b2Owb4s8t5/LOdvvS8j+498hxXZEeWyBFynOD4qdfoZEmFZbgnchsmW+juuTSK7swcCYabi+DkmUXruxnKDzHRgTsDZErEW+bBm/Rbj1/JT3YNJAwP1TBHdiaBaByUc3ybjKLReGJ29F1yYwidgNd9xYWdzwBOkb/gSmvq9jS5v8HaSBTvN9o9wGmfxu+o/xwF2Iclrl3re/WDpf+N8Dk7fLG1j27X0ey6dK7QFpgOC161SkkFYVaBOHQCXyjbCjyDkEJ+R2FCzZmMSiEhjb9s0/ZExIZMCbZBFYSfrVVed3YNbGBXenwfNj1+rZDDrZ2Ygrk0hu5Nu1K8j+v3x5sMvnjEAA0jZ8ozZzMXMX29Tdvk2qy9SV+haKd3AnJ71r8nVIcgv8diGachdz4hikvqGc+V2Xc5BgDQpSSG/kvzLsviPUa2bTNAJTvgNz1wE3POtbPjes3YmWISN/B+ZGLkympqM3TiDNz4IMRWAA5I/qjU7nu0RpoGBc9zUceo1vtFF1XH9iM/tE7TzA5MpuZM9LMr79pVUEpm6XZzsOT164IFXS51aqv2JHLklKu3nfZDZKmzhcIAoVxO0oVKKQwh8NAqstd3FnnkDX1nHl9Iq6c7ykfFNS21AhLyEyYGWnYLifsFDDfzaPXnEygPrxpHwSh9cpGGx5Tv6+pWdYXvaoO5v6hg9nW1j5TKnlQ9+zdmnJswfJoJWX9S4dJ2gGxpYD7/nrOiEnlnSY7xlciEnemcd3bLoMJOpVcCeG5hEYwL6nEh+DL0+jYNtNzwxP+WCY1VnGsFZR93rW2yCfxNGJ3mH5Q+26xNUrM9jZHe0kjnoOgPJuZ7n920Tm9PnKAzs6rd/jo+cKxrd2We+I7Ce/+PYXmcDSC/aLzPJ2ecPcfantHGWb9dzwUUVpWDrdpNZHU7XjzaxTHuS2er9/rulGLtPmQ+SZsTyrpu/AeK8Od/2IEBgjn7x0vJCBxIoeDAwVat9ysbMQ1/65SXDS2XTqEmIdWMWY2CnWq9i293o+xdoW3S5li7z948oLF05KJwewc/i60Lsxi7z5TVl+Rxo9KzjZsuOS7I6pPjuzjkqqt6X+UroIVgd2rps45NVutL4OSe08wQQGTP70JvHBcI1UXYnJeu/Fd1ryDR1qiezJnRiaSWDsY2N5gMB+RaB7g6mD4Sx6bv6E5dA54YYiMHMGztOyfrKmD9lh9u1gAbktvVhlvuNMJCxd2wcUXs7OwkxdMXCcDqG8M2Jnc0rtZPXY1oducYo/i3fZ0efbX6RdmkYCN33zXhw8OoLi2bK0vCc7fucyqdUW97vaSobAsQsDh0drNrvnvj0B32GOo1x7N8iWdC2MjUQSPcLe7Bh0ILmCkz4RmLtG9EO1Bxn6WTokPzoExpo+m0OPtDmCO1NxXd6LwinrBA03AmPZsNF5UrwY5kuC9muitnQoz51Y2ppSL49j4GbJqISBqnm4ndMnNDhbQJ9MdG55LOlB9rztDb+vQxK51250CGzuzA9wg1S2/f0Xz1F+d2cYPcgrnwdwKXZtBYGxcmwzD6kN9f7AzszMYXCNqZOQBFYr4VTGt59c1/UDjB/OiAFAeAKzLTUbLkuilyf9T93n7XbrK6wRAf2FLQ9bO/xMrJQPuBsjMJnEhZ3yOvtepfePdiJ3S8fa/2xFeq+bqH0eQjMw1gmi/SMCMztaY9vobeDz3/GSPmRUfg9MevfkddhuLccq+12xAfSu8fg9r4s24jCrYSm1/lteA7bfaGK/R8WOfsqN2da1bM2oP1ZQcvymWPjfA3PN2vckDivF3NwJ9Asyl961WSK1O+s9mNtynCzcKgKrl1mZKdR+J0v8nlpiKTpv/a6Jv+R8IxBYrQSP34wSvwd2Ki0ITN5pyNLKzltebpLRYvfKuzr7EqB5zt6bzx2q/26a+O0qNvvvNH+/bhIVr1NgAgiMlV85NYCeFdKs35CXkSUMXd7z2dtif5YxiExgLFNu99LvAFrtl36/T1r+S/xz/dcW6nWS20FLiHY9uT1bvs4ttjlhH60ZmAdm9eUp04Ilg/Ve5vLISCM4TkplzaW1ew2lu4hww7MctDf5uyQPFUQ6CgWXEOY6EgELeEM6igZuq3S0uLsQ2Xby5fXt5MoOKxMzmcCsE+elkyOiYeuaigjMFZbAQFlHgcINCjSqo/JQd/2XBNZkXH8hmVWvbnhl5NfxZWN51tJgA2zJyTnaANF8bJVzZNUhHWkqxSbWKh0tLoHJp0O7HPrJnaPye0AuSzE27CI9NuocdQptlVJZXcjwnBqRl0vtm3i4NNPRZPaL4v1R4g7+qQWXaN6VdBQNS7KjaLjxVHHydYtLYJC3nrO1/xT6tuXEifIP/eon+M7ffko4E8PoRMb1iB6umujXOCmVoUDO0aUvKMc92XaJHi+C7TRVf7m7G/mLLvk0KYh0FA1IIrBouPFUcfJ1i0xg7JdSxzG4pkO8MPd8IbwkhcEJ9w0YXDGNXOOkVIYDOUeP3qCzS5T9IvaKPhQ0DqP1KEUrmHSkBZNDiAjMAUmogDj5usUnMBP68lgO9p1/xiduxIq//w6yh312Y4VSnbdwnJTKWknO0VvXbKs+3yUqdjky0ro+idVf34KdJ2el76X88mksjnQUDT8isGi48VRx8nVtQ2AcXPnK34HJYQt1HyelMozIOUbrKeQco+HGU5EdcSTCXcnXhcOLSxOBmUiQ4fEuEe5KhhcOL1maBhkyGvr3NMjQx8pNMk6+jgjM1HCclMqaRM7RzXSDw8g5BmPkJ0F25IeOdxwNBL2x8YshAjPRIcPz6ybecWR43tgExdAgIwgh93gaZLjjohsaJ1+nTWDMUfE/vlPwzjvvFGE87lq9Tk9Pt6QtzGm1AqNWldOKtvAySEeWDXJM2u1KOiId8T7ZCh80MjIidrD78ZExPz8P/scJbNOmTSKMxzXzyoBoZn5+ec3MzLSkLKZUv3o0K65V5ZCOLLsIqzvSUftjRzpqbx0dO3ZMEJgfHxny9JQTWFMP85ULMO+5c3SJanpQnKbVDBxmeGypZaH/kY6iI0w6ioYdLSFGw42nipOv015C5I1nVyIwGQ39ezI8fazcJONkeKx9RGBuWg4OIzsKxshPIk52RARmajpOSmVNIufoZ8LeceQcvbHRiSE70kHJKUMrGU5MdEKIwEyUyPB0uotThgzPiYluCA0ydJFS5WiQoeIR9ilOvo4IzNR+nJTKmkTOMaxZ1+XJOUbDjaciO+JIhLvSQDAcXlyaCMxEggyPd4lwVzK8cHjJ0jTIkNHQv6dBhj5WbpJx8nVEYKaG46RU1iRyjm6mGxxGzjEYIz8JsiM/dLzjaCDojY1fDBGYiQ4Znl838Y4jw/PGJiiGBhlBCLnH0yDDHRfd0Dj5OiIwU+txUiprEjlHXXNW5cg5qniEfSI7CotYXZ4GgtFwIwIzcSPDi9aByPCi4cZS0SAjGnY0yIiGG08VJ19HBGZqNU5KZU0i58jNNdyVnGM4vOzSZEd2RPSeaSCoh5NdigjMRIQMz9419J7J8PRwcpOiQYYbKsFhNMgIxshPIk6+jgjM1HSclMqaRM7Rz4S948g5emOjE0N2pIOSU4YGgk5MdEKIwEyUyPB0uotThgzPiYluCA0ydJFS5WiQoeIR9ilOvo4IzNR+nJTKmkTOMaxZ1+XJOUbDjaciO+JIhLvSQDAcXlyaCMxEggyPd4lwVzK8cHjJ0jTIkNHQv6dBhj5WbpJx8nVEYKaG46RU1iRyjm6mGxxGzjEYIz8JsiM/dLzjaCDojY1fDBGYiQ4Znl838Y4jw/PGJiiGBhlBCLnH0yDDHRfd0Dj5OiIwU+txUiprEjlHXXNW5cg5qniEfSI7CotYXZ4GgtFwIwIzcSPDi9aByPCi4cZS0SAjGnY0yIiGG08VJ19HBGZqNU5KZU0i58jNNdyVnGM4vOzSZEd2RPSeaSCoh5NdigjMRIQMz9419J7J8PRwcpOiQYYbKsFhNMgIxshPIk6+jgjM1HSclMqaRM7Rz4S948g5emOjE0N2pIOSU4YGgk5MdEKIwEyUyPB0uotThgzPiYluCA0ydJFS5WiQoeIR9ilOvo4IzNR+nJTKmkTOMaxZ1+XJOUbDjaciO+JIhLvSQDAcXlxam8BYx+R/hmGA/X3zm98UYTyumdfp6WnMzMwsaBnNrG9QXqw9U1NTLWkPK4eVF1SnRuNJR5ZdhMWSdBQNO7KjaLiF7Z+NyLdKR7lcrsZFQXxkcMZjV05gmzdvloObfk+jkuiQ0gwsGnY0A4uGG0/FnN5C/yMdNYZwnHSkPQOTISMCk9HQvyfD08fKTTJOhsfaR4MMNy0Hh5EdBWPkJxEnOyICMzUdJ6WyJpFz9DNh7zhyjt7Y6MSQHemg5JSh1SYnJjohRGAmSmR4Ot3FKUOG58REN4QGGbpIqXI0yFDxCPsUJ19HBGZqP05KZU0i5xjWrOvy5Byj4cZTkR1xJMJdaSAYDi8uTQRmIkGGx7tEuCsZXji8ZGkaZMho6N/TIEMfKzfJOPk6IjBTw3FSKmsSOUc30w0OI+cYjJGfBNmRHzrecTQQ9MbGL4YIzETnmjW8sYz4rCE1VBa6JgITUEg3o8iY3zAaa3Kw0LJEdAhstL/+HaRhpJC7aKUNe0c6CotYXV5HR9FydqYiHTkx0QlplY6IwExtEIHpdEunzLU1ciQCc2qwuSHXrB15wEAE5gFMQDARGIBryzkGaBTAgiiVZmDBwAsJIjABxQLdEIFFA5Z8XTTcaAZm4kaGF60DXVuGRwQWTcv6qciO9LGSJa8tO5Jr7n6/IIN1l6KIwExQyPBceodG0LVleERgGiptSITsKBp815YdBbeRCIyWEIN7iY8Erd27gUME5oZKM8OIwKKhSQQWDbe2moFVZgoYXJ9C8vqE2Fn38RtXo3dLDqNuW8Z4m8V7IGtXWPl4Fn3rkliaMHeMLelEav0A8s9WeCrlajc8t7p0LE8F1qU8lDLrXq9L9XwOfTcvRYLtfluyHLd89ccoXqwqZWO+jNGhDHpWdqLD3CVXK2tbEeV5Jio53v5RNa1ouwHfXYguZRiJpUiu60P2cAnuqJhFXcwhxXfv2XbeaRmeVEd+jqbONTOmNpXrqDJTRG5LL1IrTFxrdUtg6YokevpzGLXjK7KRcOS7EMujyPX3SH2uAzemvoaB4UlPTGgXogDUccN15IhoYkCrRvesyjQQjKa4VumoPQhsvoT87Z2CtNydWwdS28Zhc/11dIWDTCE3W0J+XYdPXgkk7x515CMMr8G6KAR2KoduTqCCAP4SAxNSp5jNo3c535btcl3Sg9xs0dr+HYHAKmcH0OWoh1pWYkUfCrNSveTbdiGwqZPIfydZHwwIPNV21PtOAl1b3fqKSmCjB3vR6ZNPYkUGo5dlIOr3RGBOTHiIsCMesADXVjlHVnUisGgKbJWO2oDASsjdZs24jCVdtVlO4XgRjx55ANv71lqzKMNAZ7+TfCAILInu20wilPIpDmfRt1YdrfeNqFRYNzzvuhSP55Hd0B1YF4vAEkjUSKMDqf4cWHv2Zb+LL3bvRIn3iYt5heASK3owMFRA8XgR+R19SC0xnXMiYTntkARWHctITjqBpWv7kB0u1sooDA2gd5VE9olu5NxIrFECuzRZK4+1y+8vu36pGHgkbstZONXwKuOnn/+YFX99N/q21XGt45VW22IsQ2ZM1bEykxXE1YGu9QPIHWZ1K2DPD7+Mm66zSDGxvuCYiRGB8Q7svBKBOTHRCdFaydDJSEMmTjpadAIb32rNvDpvz6NUWzKra0EotTKJrCA5F8ckCKzueOz5cJ2WdndbRGBzTEypfnXheSCgLhaBsbok0HfYWpxTRyUVFNZz4q7PCi1JszS32WAYAnvtEHr5zCvRhYGzjhJqBZUPpy2S40trosH+N0JH/mKBsQrRLnfOfKrH0/iYSTpOcrOyV3S80bbcKi/FsrwS3cieV0mupqPzO6WBRTfytuVrIjALb/tdnJwjaxvNwOwa1ntWfZ1emihSi0tgl/Lo4SPhVVnbiNv2HdjlIvq4M7Y7WZnAEn0ouiz71MEZRYbnYWQgu7cLZ3/qWxcFXJ+6KAS2Um2TotSZLLp42+3tUQorIbvKmhEYIQjs3A9vMGcsCdhnnEoRAErbu4Ss/d2TXVZ+bgqBzUpLra6zwCqKGzgGXcjOyDWw348i7YmrtITIBhe2WTjLietofMsyMduz40EEZsfceiYCs7AIc9cUO9IsME46WlQCqxzsFU6i96BzdmBX6uhG7sRso2KZwByjblmrZeRv43mkFQIb3/53vnWRc2H3XnWRCSxx97iSjDtHFljantQmDBknfQIbw5a/NNt6wwDUmijVqj/MWhs17PV2kRZBdh2JCN2by6PIiHeAnS7Lfiwj9o40hc7/axk6fMmeyUok5ZCV4hLqAIZXl+uoOtIn+kP3XnUKRgTG0XJe4+QcWetoBubUsU4ItyMd2UZkFpXALEffpP4dAAAgAElEQVSwFH07nO9HHj3yKEaOjoj3JvmN3OkbUEbFEoHJO/HcgLHKtHYsMrl93+bE5l4X+7sbr7rIBGavi6VUmUj7UFRXsZzVLufRzWcVujOwmZ1YzdOsGai9g7O3QX0etGagDsfvrBIPaYzA5HeOCXQPibeDPHvl6uUcq5UKShPsvWEavXzHJ2u7ox0SgTni6kUJHfn0Ka8+pFRW44GcowZILiJCRy5xzQ4iHUVDtFU6WkQCKyO3hpNG+KtCDj7Oxg6/u/MpY6u8TMcdv+ZVrotMYOlTaumWUscxcANvs/tMQE0pOV5dAjt5l5hBuO/q5OW7XXXqVK9hdAKrYrRfev/ptjlHBQE1AmMbQoYGa59IJJdLG1DcdOUgKQlHR1y9MKEjnz7l3odsldV4JOeoAZKLiNCRS1yzg0hH0RBtlY6IwGr6WRgCU2aJ0vsVZZnL9i7OvbtIjjcmBFYasjbU+G3KsPCo4OCmz4rv5JykzL4DY9/p9VnfrDlISsLREVcvSRgeEZgFfYg7r1lyiCwCRYWOAiUbFyACi4Zhq3TUJgSmLudxyLRH9z7OhufFr+6jZ5nA3OvC0wdd5RmYN4GNe24mcc9fcrxRCMyexr2QSKHaOpJyl8nLcNlxKImat1WM323N1gyjA53r+jDIPjkYm0S5UpG+65OwcpCUX1y9KGF4Pn3KvQ85ax0UQs4xCCH3eKEj9+imhpKOosHZKh0tIoEBliNYpn7ca2Km7Rx9nI0dfqtMlaisd2DudbHn4/WsR2DyO7BeFJz7V9TsG30HZvtkQM28sSdtHZnFKNvlXXccutRH3rEZmMaPpPzi6uUKw/PpU159yKXmvkHkHH3h8YwUOvKUaF4E6Sgalq3SkTaBsQrxP758s2nTJhHG48JcX7lvtXhPs2LwWUde3DkG5vlEv8hn9X2vOPKR05/ezN/5rMaeF602PbH1r0UebnWR8/C7l9vU/4SVP0/DDeLcgLXF3U2Oy7PrO49+V9TN2HxabZ9H2+fmTqBffDLwDRx621kXuYyo99o6Yv3nwh6sFXVajv4n3lHbIvUxuT6vPLBWtH/FvTP+aZ7fjhX8fdite/CKkudp9HvGWfjUdOSBK6uXVx+S66xzz/uCjmwjMqF0pOBlYaJb/vT0tL9+Gsyf16NV2LWqHNJR+L7G+kKxWBS+wY+PDKZI/scJLJ1OizAeF+o6sxO3cIdy3ddw4KJVhjOfWdzffR0+/umbcNP/+iLumZBkpQ0Lt+ya9a3TCbEV/xbsnLHymHpsoCl1md11iwD0rpNW/o72PHsPPmu2/bqvHkBZwleVncTOFCddA8bGE2r7fNp+YuN1oi43/tuYms5W3lun78KN130KN/2vm3DTHYfxli1erZNPu7zSvXECd32at+M6fHHXpG995PJkTG/J+qV7Cyfu+EvRZiO1E7NKfU7gLt7fHHG2Nvniytuh9iG5zh/V+6mpKW29flQxWux2x0lHR44cEfbux0eGPJHkBLZ582Y5OMI924lmfTBaO3tOWk7joxKggvGtXdYpGvaPnn2We+yV8lr+uXDhN751sfLxr4veEiLLraKcxMHO7pOabhZXUXbq1XC3v8/yaDszkqsv7rE2NBgd6PHapq6cx5hA+njQvn4LDUtHVpjzTt4u73EcmDORFTKWsXTv9c5svoJRuY/UiMq+m5KWEC1QF+aONnFEw1XPjqLlbU8VJx1pLyHKIDSPwAAoH7Ky432WontDFvnaWYgPYfdPvoNu6XR6dvyP47w+Dycu15nfexPYBd+6sHPyctv6AuuiT2AAAs5CFO1u4CxEZcOEYaBjVa84b5GdEZle36Xs7HM9a7KhsxBtGzBuHkBhzPnNn/pNmhl/tmxuzhjHgPjYmZ3qn5LOQcwju7EXXeLcyCSSQpYIjPV7co7c+sNfawPBq1fDJwyZgnQUEjBTfPEJjFXk8iSyvifIm0s2S3ocZ9fV2tEsAmtCXUIRGCtvNoce7nz58pZ8Xd6LwinrlAz9kzjmau8iWBGVkTSS4t0TX/6yXxNIbiy6zAIZ0Urlh/45lQa+95N3Ec7m8LmP2eusPidWpFEoA+Nb+axe3aijfL4g513rRPX/2Lo6c1rWAdHqz9QwKa9BkJSN1i05Ry2YHEJCR46Y5geQjqJh2iodtQeBmRhVzheQ3dAD5QPVTyw3f7NqEhXpoF8F1mYSmF9dlnQG1iU0gbHy+G91Sb9vpfwemHTMU2q37bQKj7Y7DK/KfnNsAL1rpN9IM/i3U36/odUmBAbgwvhJFLapvwOWuD5Z+5233Jh03JO05Ni1Q8aLlhAVu1mAhzgtTzF4HHa0AJixLGkGFg3YtiIwexNIqSYiEkm5nRlpx409k+G5oRIc1qqRI+koWBdeEqQjL2T0wuM0yCACM3XecqWOZdCxPInkSrYs6t/xrJPRkwEnsVv5EIFZWIS5I+cYBi2nbMvtyFmFpoaQHUWDs1V2RARm6qflhjeTRdJ81+V3lFLllPSDlPbdlz59iwzPBxyfqFYZHqsC6chHET5RpCMfcDSiWu7rNOoUVYQIzESu9Uplp3HwH7S076wrosAOrFV+RboTmbP629vJOUYzCXKO0XDjqVpvR7zkhbmSHUXDtVV2RARm6mdRDO/yOAbXBJyozmZpS1IYnNAnL9YkMrz2NjzSUTT9sFStco6ko/bXERGYqaNFITCz7PJYDgPrU0jK37tp7Hj0615EYH7oeMeRc/TGRidmMe1Ip35hZciOwiJWl2+VHRGBmfohw4vWUWmnaDTcWCpyjtGwa5VzJB1F0w9L1SodEYGZOiICi9ZZicCi4cZSEYFFw65VzpF0FE0/LFWrdEQEZuqICCxaZyUCi4YbS0UEFg27VjlH0lE0/bBUrdIREZipIyKwaJ2VCCwabiwVEVg07FrlHElH0fTDUrVKR0Rgpo6IwKJ1ViKwaLixVERg0bBrlXMkHUXTD0vVKh0RgZk6IgKL1lmJwKLhxlIRgUXDrlXOkXQUTT8sVat0RARm6ogILFpnJQKLhhtLRQQWDbtWOUfSUTT9sFSt0hERmKkjIrBonZUILBpuLBURWDTsWuUcSUfR9MNStUpHRGCmjojAonVWIrBouLFURGDRsGuVcyQdRdMPS9UqHRGBmToiAovWWYnAouHGUhGBRcOuVc6RdBRNPyxVq3REBGbqiAgsWmclAouGG0tFBBYNu1Y5R9JRNP2wVK3SERGYqSMisGidlQgsGm4sFRFYNOxa5RxJR9H0w1K1SkdEYKaOiMCidVYisGi4sVREYNGwa5VzJB1F0w9L1SodEYGZOiICi9ZZicCi4cZSEYFFw65VzpF0FE0/LFWrdEQEZuqICCxaZyUCi4YbS0UEFg27VjlH0lE0/bBUrdKRNoExY+N/BvuRRcNAOp0WYTzuWr1OTU3Fpi3Xqg6C6k06smwwCKvFiicdkY5a2feOHDlS46IgPjIYo/I/TmCbNm0SYTyumVc+um9mnl55TU9PL2hbeLlMufx+Ia+tKod0ZNlFWH3+/+198Y8cx3Vm/xOB54cA8cL8wUwERPzlxAUOOHFinsA9OGetTZy1CA9hFr6It5BO9oZnKCttFpu1EggLOmAYwxDmGEXyMD7pVk50WJ5Jc3RyaC8NMFidLXgp7irLE2hgDTC4McDAa2ANvEPNVHVXd1dVv6qZaQ7L3wKL7q561V31ffXe96qnpwccjT924Gi8Oep0OqmAufQo0ReTSsCWlpb04qHvq+A49BMbTohbiAZQGEXgiAGSxUQFR0v10IrBUTiU4CgMO5HMCexG/ce+hah3BAKmo8Hfr4tU0SM4Hp8X3RIc6Wj47yMR9MdMtECSEYYbBEziBscLm0BwvDDcRCskGWHYIckIw021iinWQcAkqzGRKoaE4Kjc1W+L4OiHV9EaflREhHeMRJCHU9EKAiYRgeMVpwbvGI7Hw8lkhSTDhEp1GZKMaoxcFjHFOgiYZDomUsWQEBxdLmyvQ3C0Y8OpgR9xUCrbIBEsY8IpgYBJlOB4nOlStoHjlTHhliDJ4CKVt0OSkcfD9yimWDeQgH3qU5+il156aWT/f/qnf0orKysjO7/e9z/6oz8a+XW+8pWv0PLy8sivI8YlriOup49xFPvgKHz+g6Mw7OBHYbgp/48p1n3hC19Ivwfm+lqX8Xtg6nF6bPtvJgEOwAFzAHMAc+DBzAEImHxFFibgg5mAwB24Yw5gDoTOAW8Be+aZZ+iDDz4Y2f+PfvQj+vGPfzyy8+t9v3r16sivs7W1RT/84Q9Hfh0xLnEdcT19jKPYB0fh8x8chWEHPwrDTfl/TLHutddeC7+F6FI83w8WTfZ4QMCECq8MDwjwcCpa4QGBIiJ+xzE9ICBGDj/y419Z1+VHAz3EAQFTdPG2dZEqegPH43FStAJHRUT8jiFgfngpayTrCgm/LQRM4gXH85s4yhqOp5Dw3yLJ8MdMtECSEYabahVTrIOASVZjIlUMCcFRuavfFsHRD6+iNfyoiAjvGIkgD6eiFQRMIgLHK04N3jEcj4eTyQpJhgmV6jIkGdUYuSxiinUQMMl0TKSKISE4ulzYXofgaMeGUwM/4qBUtkEiWMaEUwIBkyjB8TjTpWwDxytjwi1BksFFKm+HJCOPh+9RTLEOAibZj4lUMSQER1+37tsjOIbhplrBjxQSflskgn54KWsImEQCjqemhN8WjueHl26NJENHg7+PJIOPlckyplgHAZMMx0SqGBKCo8l1q8sQHKsxclnAj1zo2OuQCNqxcdVAwCQ6cDzXNLHXwfHs2FTVIMmoQshcjyTDjAu3NKZYBwGTrMdEqhgSgiPXnfN2CI55PHyP4Ee+iPXtkQiG4QYBk7jB8cImEBwvDDfRCklGGHZIMsJwU61iinVsAROBSv2r192/8MILaZmqe1i329vbtYxFBK06MKrrOnWMRV0DHGU+qDAZty04AkdqTtYRg8Sb9Tl6lBwcHJD6Vw0WFxfTMlU3zK0AYpjnc51rZ2enlmsJUl39GFZdXdcBR5lf+HIHjsYfO3A03hxdu3YtFTCXHhl/kRlvo1eLct4Wtz54ONmsYrr1IcYogqOYE6P+U0nGqK8jzg+OwlAGR2G4sW8h6qdXKzAImI5K9T4ErBojlwWCowsdex2Cox2bqhokGVUImevrinUQMIk/gqN5IlaVIjhWIWSvR3C0Y+OqqSs4ij6AIxcT9rq6OIKASQ4gYPbJ6KqBgLnQcdchOLrxsdXWFRzF9cGRjQV3eV0cQcAkDxAw94S01ULAbMhUlyM4VmNksqgrOIprgyMTA9VldXEEAZNcQMCqJ6XJAgJmQoVXhuDIw6loVVdwFNcFR0X0ecd1cQQBk3xAwHgTs2gFASsiwj9GcORjpVvWFRzFNcGRjjx/vy6OIGCSEwgYf3LqlhAwHQ2/fQRHP7yUdV3BUVwPHCnU/bZ1cQQBk7xAwPwmqLKGgCkk/LcIjv6YiRZ1BUdxLXA03hxBwCQ/ELCwiQoBC8NNtEJwDMMOAhaGm2oVU6yDgElWYyJVDAnBUbmr3xbB0Q+vojX8qIgI7xiJIA+nohUETCICxytODd4xHI+Hk8kKSYYJleoyJBnVGLksYop1EDDJdEykiiEhOLpc2F6H4GjHhlMDP+KgVLZBIljGhFMCAZMowfE406VsA8crY8ItQZLBRSpvhyQjj4fvUUyxDgIm2Y+JVDEkBEdft+7bIziG4aZawY8UEn5bJIJ+eClrCJhEAo6npoTfFo7nh5dujSRDR4O/jySDj5XJMqZYBwGTDMdEqhgSgqPJdavLEByrMXJZwI9c6NjrkAjasXHVQMAkOnA81zSx18Hx7NhU1SDJqELIXI8kw4wLtzSmWDc2Arb3zgWaOzlJE0kifyJ6gh77d39BNw8OuLw47fYuTac/Pb1yo2waE6lidAiOZY45JQiOHJTsNvAjOzauGiSCLnTsdWMhYLuXZqiRCpcSsISS//R3dA8CZmfPUQMBc4DjqIKAOcBhVEHAGCAZTCBgBlAYRWMgYBu00lCi1aCpL7Zo7Z0Odd5Zp1evfEAHEDAGjWUTCFgZE04JBIyDkt0GAmbHxlUDAXOhY6978AJ2t03TavX1zDrta30dJqm4hagBO8TdYXJU1S0ExyqEzPXgyIwLpxSJIAelsk1dieBYCVjzld0cEsN0PAhYDtqhHQyTo6pOQcCqEDLXgyMzLpxSCBgHpbLNr6SATV/ayyExTMeDgOWgHdrBMDmq6hQErAohcz04MuPCKYWAcVAq20QvYBvL6nMvy/Zkmz76xS/yn4Ed7NHmWy2aP92kyUNau0OT1Dw5Rxcub1HX8tBiWcC6tHs5/+Rj45EmzZ5tUSevoxk72u3Ontje36L22Sk63PsMb4ImRR+u7uVug/Yad3dp/fwcPfn4YfqYul16aJKmz6xS+4btYtllQ/bgeCGo4bemwlDLWiHJyLDw2UOS4YNWZsu+hSgmpvpPZBB+9tln0zJVx92++ZwmQCqo69sT5+j729u0s7PTu8bmt5boid+oaCPaP/p71Ho366vqz42vPpE+Rv+l//Y2Pd/8tfRYjSfb/jqd/Mt3y2P73jl6QvbxidU36dxnyuf4zS+/nWv37td+j47o4zLs//qJJXr7R+U+q76HbG/fvk3b29u5voScp6qNuIbiqMr2YagX4xHY1dFXcBQ258FRGG51zGl1jbo4arfbaRx36VGSaR6lDZaWlvRir/3uLfGkYYc6byxQUwb15otr/TJRfnOPfiZXYPs3V2gyDfwTNHVmgVpvyfaX23Th7IxcBUmBO9mm4rpGX4EpoWo8MkPzF/vXfP1rf0bzJyfSsSXJJK2+VxiStgJrNBo924mTK9S+3KGOWBk+NUPtnaxN/usBE3Ti6Zfpr//ucm+MaxfnaeaR/jl6/Tm6Qhv3s7aD7mEFFoZgXbc+RO/AEThSCGAFppDw27JXYPpplQAMImDp+TRRMH8GtkOtE2rlNUkrN/TnFNOzEHU3aOWospum9h2tjoiKAjb5fIe6monIHIj2aWN5MhWxxkubmgURaX0VGDTOrufOkTN+bzUT3aNztHbHdHuqS1uvZN+BO7K8Ub79mDsp/wDBkY+VbgkB09Hw3+/7kX87nxbgyAetsm1MHI2/gH3wSrpCazzfcQb43dfsb9vICdiJFuWfd6TeLaMe1ffWaFat9ooruZyANamlrbby06RLa6eVmE6ldmbH26fOWbUSm6b23fyZQo8gYGHImTkKO1dVK3BUhZC5HhyZceGWQsBkgK9jBXb/B+dp9niTmo9MkOkVUDppukgVbfW64kpPnCMjdZdax6X4NFYotwbTBaxYp3eku05zSgTPZKs0q+NdX0hXfTNvFG9+6ifm7yM48rHSLa0c6UZD2gdHYUCCozDcVKss1qmS4W/r4mj8V2CuN3Ec7FN3b4s2ep+DzeaeTHQJWLFO0JeRukftk2r1tEIbOre6gBVXZ7rdjZVUkA5/sZV+rveda9+hy/+r/xlY7/O/3htH8p8DJsu5K+pn9dpHcPSCKzWuy/HEBcFRCrvXDjjygqtknMW6UtXQCuri6CESsH3ae2+NWi/O0fTxZv6hDbXa0bZFkdJXYMU6wVpGKlPAXrQLjX4t9Xkhe+sSRo/pheDoAZZmWpfjiUuCIw14j11w5AGWwTSLdYbKIRXVxdHDIWB31mj+mPqcSK2OtK34HtjpeVo500xXPkWR0kWlWCc4y0hlCphjpaRfiy1cSnwhYFYXyjiymgxcUZfjiY5CwMLoAkdhuKlWMfnR+AvYnTdoJn3Zb0KNR6Zo7sX+C38373Spqz16rgtHUaRcdYLYjNThCpj+eRscT7lQ2DbjKKw9pxU44qBktwFHdmxcNXiM3oWOvW7MBexndPXL2cprcnnD/th64VH5BylgpH0GduRc9hgIgqN9InJqEBw5KJVtEBzLmHBLsErmIpW3qyvWjbmA/YCW09XXPHUsXwHrQyceR89uKz5QAdMf9jh+gbYkt3WRKi4Hx8s7FPcIHHGRMtshyTDjUlWKJKMKIXP9mAvYd2lZfTaULOSfCCyO5472syxJUnrkvs5biET6bcgGzb3d/8q0LTjuvTFDDfE53vEmzVxUclccoN8xBMwPL2Vt40jVD3MLjsLQBEdhuKlWMSUZYy5gH9Frn1OrqgbNXCp+/bhPyf7OGs2lb+Ho2+ufPQmregWMaP/GSvYOxEaTVq53yeR43ZurNJWuMrMvPavJFrpFcAxDzsRR2JmqW4GjaoxMFuDIhAq/DAImV0V1fJH53rfOUCNdhTWo+YXsPYjrly7Q/FOH0/qJY81UNB60gBVfS5UkDTr8+S/R177Z/x5Yse+i3ibQ/KmZWSI4Zlj47CE4+qBVto0pOIrRwY/KHHNK6vKjMV+BiZ9TuZ97P6H5sfQJmr24Rd172RswGoXH3OtegfVJ3qeti7M0kQqwWk0Wt/3+Oz/i48wazQaOp4HhsVuX44kugSMPYjRTcKSBEbAbU5LxEAhY/we+9m60aSX3O2ATNHl8luYvrtNu+lZe7bOnxkLuoY8HI2Bydt3bovWL8/QHnzpKH0/FLOv/1r2AWVjRBMGxAiBLNYKjBRhmcUzBUQwZfsQkvmBWlx89eAErDFw/xJM5Ohp++3A8P7yUdV2OJ64HjhTqfltw5IdX0TqmJAMCJtmNiVQxJATHotvyjhEceTjZrOBHNmTc5UjW3fjYaiFgEhk4nm2KuMvheG58XLVIMlzo2OuQZNix4dTEFOsgYJLxmEgVQ0Jw5Lhy2QbBsYyJTwn8yAetzBaJYIaFzx4ETKIFx/OZNpktHC/DwncPSYYvYn17JBlhuKlWMcU6CJhkNSZSxZAQHJW7+m0RHP3wKlrDj4qI8I6RCPJwKlpBwCQicLzi1OAdw/F4OJmskGSYUKkuQ5JRjZHLIqZYBwGTTMdEqhgSgqPLhe11CI52bDg18CMOSmUbJIJlTDglEDCJEhyPM13KNnC8MibcEiQZXKTydkgy8nj4HsUU69gCJiaN+levc1pcXEzLVN0wtyo4DvOctnNtb2+PdCzquipoqeNRbeu6DjjK/MKXS3A0/tiBo/HmqNPpEEePEkGk+lcNFhYW0jJV97Bub9++Hc1YHlYOqvoNjjIfrMLqQdWDI3BU59y7cuVKKmAuPUr0ZaoSsKG8jV4/cWFfZfeF4pEcxrSsFgCJSSRWBKP+A0fhCIOjMOzEvBbY1fEHjsJQrosj9i1EfRgQMB0N/n5dpIoewfH4vOiW4EhHw38fiaA/ZqIFEsEw3CBgEjc4XtgEguOF4SZaIckIww5JRhhuqlVMsQ4CJlmNiVQxJARH5a5+WwRHP7yK1vCjIiK8YySCPJyKVhAwiQgcrzg1eMdwPB5OJiskGSZUqsuQZFRj5LKIKdZBwCTTMZEqhoTg6HJhex2Cox0bTg38iINS2QaJYBkTTgkETKIEx+NMl7INHK+MCbcESQYXqbwdkow8Hr5HMcU6CJhkPyZSxZAQHH3dum+P4BiGm2oFP1JI+G2RCPrhpawhYBIJOJ6aEn5bOJ4fXro1kgwdDf4+kgw+VibLmGIdBEwyHBOpYkgIjibXrS5DcKzGyGUBP3KhY69DImjHxlUDAZPowPFc08ReB8ezY1NVgySjCiFzPZIMMy7c0phiHQRMsh4TqWJICI5cd87bITjm8fA9gh/5Ita3RyIYhhsETOIGxwubQHC8MNxEKyQZYdghyQjDTbWKKdZBwCSrMZEqhoTgqNzVb4vg6IdX0Rp+VESEd4xEkIdT0QoCJhGB4xWnBu8YjsfDyWSFJMOESnUZkoxqjFwWMcU6CJhkOiZSxZAQHF0ubK9DcLRjw6mBH3FQKtsgESxjwimBgEmU4Hic6VK2geOVMeGWIMngIpW3Q5KRx8P3KKZYBwGT7MdEqhgSgqOvW/ftERzDcFOt4EcKCb8tEkE/vJQ1BEwiAcdTU8JvC8fzw0u3RpKho8HfR5LBx8pkGVOsg4BJhmMiVQwJwdHkutVlCI7VGLks4EcudOx1SATt2LhqIGASHTiea5rY6+B4dmyqapBkVCFkrkeSYcaFWxpTrIOASdZjIlUMCcGR6855OwTHPB6+R/AjX8T69kgEw3CDgEnc4HhhEwiOF4abaIUkIww7JBlhuKlWMcU6CJhkNSZSxZAQHJW7+m0RHP3wKlrDj4qI8I6RCPJwKlpBwCQicLzi1OAdw/F4OJmskGSYUKkuQ5JRjZHLIqZYxxYw4WzqP0kSEv8LCwtpmap7WLe3b9+OZiwPKwdV/QZHmQ9WYfWg6sEROKpz7l25cqWnRVV6lIisR/0rAVtcXEzLVN0wtyq7H+Y5befa3t4e6VjUdQW5an+U27quA44yv/DlExyNP3bgaLw56nQ6qYC59CjRl6RKwJaWlvTioe+r4Dj0ExtOGNOyWgxPOZ5hqEMtAkfhcIKjMOxEoiCwq+MPHIWhXBdH7FuI+jAgYDoa/P26SBU9guPxedEtwZGOhv8+EkF/zEQLJIJhuEHAJG5wvLAJBMcLw020QpIRhh2SjDDcVKuYYh0ETLIaE6liSAiOyl39tgiOfngVreFHRUR4x0gEeTgVrSBgEhE4XnFq8I7heDycTFZIMkyoVJchyajGyGURU6yDgEmmYyJVDAnB0eXC9joERzs2nBr4EQelsg0SwTImnBIImEQJjseZLmUbOF4ZE24JkgwuUnk7JBl5PHyPYop1EDDJvk7q3jurtPLWnu+8qLT/1XS8DVqRX3xPTrZpEFR1jirB9jTo3upQ+/w8/cGnjtEnP9b/on7vadvGYWoen6X5823auLvveVa3+cgFrLtF7S9eoB/84hd0cHDg7kxQbZnbUXKkuvir6Udq9INvY+IIAibnQ4/Uexu0enKi98W46UuDhFrzJPvVdLxykDOjU106CscTycrMI430y5DqKyK27cTJFVq/U91XjsXoBGyfdt+YpyY9BoUAACAASURBVGZDCPEKfRcCxqHDaDM6jvKXw52MPB7cIwiYRKoXHG+spIEMAsabQtWON64C1qXOi01qqNWh2DYO04mn/5i++uq3qPNOp/e/dnGV5k9P0oRul0zSyo3BV2OjC4571D6pVpEQMN5MNluNjqP89ar9KG8/yNEoEsFif+pK1iFgEnkIWHEK8o6rHW8cBWyfNpYn02QlaTRp/tImdQ+o95ovEbRKf/t7tK4LXmOG2gOuxEYXHOsSsBJKFFNwFKMbHUd57Kr9KG8/yFFMHEHA5EyAgIW5RLXjjZ+A7b0xk628CkLkzhzzwtd4vkODrMNGFxwhYGGzudxqdBzlr1XtR3n7QY4gYPJ2SnTvQsQtRG+/qHa8MROw/Q4t9D4bErfYyrcC3QIm4Nmk1UfV7blZWrvnDVnaYHTBEQKWgjzgzug4ynes2o/y9oMcQcCGJmDu4JYj1SUuad00te/2qd17p0Xzp5t0WAWrQ5M0fWaV1t7vlrjfuzSd3U7KfdbRD1QrN0pNegV7N9q0crpJk4dUQGvQ4WOzNH9xnXbLl0lvT20sK/sV2iCi7vVVmj3af3ik8UiTZpfbtKkHxv092ri0SnMn9c9iJmhSPB1nuZZwvJ9848l0XLYxSLRyn5mIPtn+urfW6cKZaWqmDz58jD75+GlrP4gMHO9tUHt5VjvHBE2enKPVt7bIAFvaldTxuru0fn6Opo8dzlZSkt/2DffDN923ZlNMGmfLK6hqASPavThNk6fn6cKlDu3eT7tX3qnoZ2Vw9OZdw9owj61PgVb0szwwVaJdTz5hmnKk8Z5+nrzXodZZf97V1dSWw5GyHXRbydGgF5Dtc7FuSOe0nSbjyGYxeHldHD3gW4hlB9Chy5GailRCqUMo47Rumtp3dmntdF8MzE+SNaj50kbu1o+3gHU3afXTFU+uic9V3t5VPextFam6gK3fWKHJUrDJMvv991ZpSolwyU4J4STNFa41dAHrbtIF+YSmGVfxEMQUrb5XvKmW53jj7TnDeNU4EmocW6ENiygIx9t9y91e9G3i5AXaNJ5DX5kcodX3cvTkOCrX+JVw+vnx6a/SP/7sl8YTh/GuYW2aK4avMXD6acdTu55TwHZp943ZwoMwGeeCMxfvRYCUHxXLR3EMAQtDtS6OIhOwJs2ckh/OH5qiuZfbtC6eJnurRfNPadl60qD5q1mg3b+7Sa9/43XqfC3LzpsvrqVPom3pq6H7G7RyNHO+xiMzNH9R2l5u0+qZKc1RGzRzKRMxRWomYA1qCHFqNGn2vDjHOrVfnqOpZbkyuLdOc6l4TdDUmQVqvdV/Ok6MaeEL+lN0k7mAPFQBK4w50bD99t+/Ssuf/2S2Eip8ppRbgaVBVYxlldqXxVjEmGflI999XBtn1o0rsXe/+rvZdRL9HB1auziffxz+qEEIu+s0l/Zhobf6Lbqn4qhY7nO8e0n7jK2qn48tlwU7mPcubfWenlyjheNqjs7SX1z5Nl39zlXq3NzLJW5e/TThqa2y1Oouy+4zcWuempFJi87ZGrXOzmR3SISIGVbEJtyHwZHpvKYyCJgJleqyujiKTMD6Tjv5zBrtGr63ufuaFlgKQbLneOlKzrDK63HWpfUzauXVoKlzm8ZAS3vrtJCKXHZbU5GaCZjo7xRduGWeELsXp+TtriO0cD0TXN1aD0L6QwXDFLDNc9kTe41TLdrSVjdqlZzD9vSahksWyHort8YMtW4ZxnKnTTOpWM/QWvFO4HurdESJz9E5WjM+AdilrVcyjo8s51fadHMlE0DDakTgqjjSMfbaf281W2FW9PNjcjzFfg7Ce7+v+krT8hi9Rz/VVw2K/cwlJ44VWI93GxY53udo3XUPWRIxMEcehELAPMDSTOviKD4Ba8xTRwuwGqbUc7g0SPY/f1L1LAHTgmhltrjToikZoBrL/U+VFKk5AXNknZldvq+qz/3tLrWOi8/DmjT9/Hr6pouhCZi+anl0obRaUAJG1KW10yrrz0Q7F+QKK9/8OIg2Xz6Sfj6V/8xOP/cUtXaKLfXjfeqcVUmG3g+i7ttz6fkTyYneUuwrjorlvGO/fl7+4sdkf/L9HIT3fj+rBMyvnzY8c9w6BSx/x6OI5cay4iuhPO9Fy/7xYByZz2krhYDZkHGX18VRfAL2ousRhD1aO6WCbP4WEkfANs+pAGv+/CRP6S61n5TXaqzQphYcswCV0MwbxaVGdpbNl5RjN2jmtexWZGZh3xuWgO1fnU+DfvOVch8yAesLxMTRJjVPz9Pa+2qVpa3AGi4hJtKvlcNFF9HCytmIwPWFtM/6eXKfdVYKmNZvtfIzbfXzePbz59e+bOznILz38agQMM9+kgVPvoDlfa3ImfhaQ2+VliS0cL1YWz6uKziKK0PAyvhzSuriKDoBKz3gUUA7E4981lstYHpQmKbV3uc38vMo+dYG9fYGtb3wBSWW/WspUrM+uDPO/Rsr2W0z8XDCUfHU4Rpt3OrmPssoDLF3OCwBy0S7QSs3y1fSBaxcK0o0IbDctkvb2W7hauWHv9hKP5tUOJe2byxQU4mNJjB6oKxegWn9VucybbXzk2c/L3/jy3RMnVM7zyC897HU56rhFqJnPzsWPE3c9vyo1wkNv1De04mR31F+lC8dzREELAzXujiCgEl+qgVMc0gVdDy24taIIjUTMPHUpGuC7NPGS/qDGkoQxXai9yh3661N46PcwxKwXF/lVxT0HtchYLmVkwfmvaxeD55a4E5OraW3W/XxKI6Idmn95VVaNf0/P5MlFprwDK2fFM57fyxuARtePzWfcN1C1DnQwVb7Gi9VCahoknGkTjC6LQQsDNu6OIKASX4emIAZRKE4ZfbeuUBzJyq+GvDFdu7hCgiYFHs9eO6t0YwSQHlbt4g1y/HutmlanWckAtbvVQjvsmXue33Fl/lCwIqs248hYHZsXDUsP3KdgFkHAZNA+QmY+7McG/aK1KpVja093d+lTfH4/Jmp3OPH6vODxpMtUp9SxSpgnAzdih+JB17UKtb8OabiyH4OImIIGKef7ODowXu/3/wVGKefdiywArNj41dTfSfD73wu6+w2r8tqsDqWHw12iV7rh0fAtA+SS07ncQvCJh7VAqYHBd7jvkV+FKm2PhTtq47372zS2vn8d6jU99v8BEx74CTJi7P+QME4fAZ25Jx4HCb8L3tEPSH9awfqjIojdWzcWgRM/wyM00+2gBU64eK9b6rPVfdnYJx+Fi6vHULANDAG2oWAhcHHFjABsPpXGf8LL7yQlqk6v+0PaEn9eOBv/3nvh/ds7T/42uPpk0qf+ZuP8tf9hyV7ndZvce7vLqoM/DP06j9lY9re3qZfVJznu4vqseeEnv77n+X7ULiObRwiaNn6kGvz0+/S17/0+/T47zxGH//j7zqv9bO/fzod/6Mv/6BnK67zUfvzafnTaz+1n+Nn36bn1C2xZKn3+1GqLz9dy879+Nc+sJ9DjP+fXqXPfOIxevx3PkNPt5Xtd2lJnfuzr9JHLpxs+IvzqnP8zl/Q/3Gdo6run79Nz6k5lzxGS/9Q5lFgp8Zv3Or9WdS40csZ/TReZ0De+/39iF79rJrneT579Z79NGLQw7nMbc+PLHXW89h4d3BpxM5hb712RZu6rhPav5B2GUdZ/As5T1WbOrC7evVqGuNcepSIX3RV/0rAFhcX0zJV57e9S699TjnaaXpjL7uGOI8AqH++m/TyY8ouoSdfv5u/7veW00GU6rR+i3NdX1LneZJeu5Ndb2dnhw6qzvO95eyLsI+9TDcL586N/f5NWn6sQZ98/Bgd+9TzdLXbv5Yg1daHXPuDm/Tyb8u+Np6nq/ezvubtDujg3eez8f/1Tg8bcR19PI/++c08Zlrf733rTDauZJmua3UHe2/QaSUev71M1wv9yDg6oJ3WibQfZ751T17vOi2r9p97je7q5y7uW/HX50mDsnObMbn7t09R4xNH6dinjtFTrfdL4+7Vqz41nqLXPsyfp4ddsW/q+N779Nrc0XScydJ17fx+/bzzjf9g6OdgvPfnht6P5fQHLbN5o9cPgmeZ254f9bAq12XXz+Otz9Mq/1XncHKkuBrCtq7r6H6kxjiqbcZRgYch4KX3uQ7srl27lvqiS48SfYGnBGwYb6PPHtNOaLLw5oQeqft3af357E0Q4tq13EI0fu9KvzWT0MTptvGNH3SwS2vPZH1Wt6rU7SnuLUT9dtfk8x3t7RYaGwe71D6lvi+Wfa4jJs8v//l/Zq9OKr3iqX+O7vst7Q0YQjDztxCJ9mnzpWwsxbecKMfbv6Wd59EV2lBfAxvGY/REJB4t/81UdJq0ct38yobuTf3dkbYvPed/FkW8lX72fIf29h1PuB3s0cZF9SvHKglKqPg4fu4R+Ia7n0+kK8F8Pwfhvc+qPk8XUgHTZk0Pz/TNJhX9zN7Fme8nHqPXER1sX/nRYGfhtcZnYDKQDEPASHtjhRCniZPz8n1/6/TqS0/TiU/0g0Xj1Ez65NfIBGynlX1/6NA0rcr3DubehZh79U1C+nsBO++sUevFOZpK306fUKK9Q85XwKjwDsLeexfPy/c7incInp+nae1a+jsEewL2y3/R3koh37lofD/kJM2caspMpihgRMV+JIemaV72Q7wL8eU/PKG9/7H4EyXlz0msbub8LHOf3nxOfZFczIkGHX5KzZUOrV+6UHrfpf4eyvI192nz/LTWb3HOCTr6+1+iP/v636bfNTP/IrO6/ipt6O/J7F2kKI4B/RyA9/44xdtI+n4jcHr82a/T26V3IQ6hn4bkJAuOw+K9zJzyo3LN8Ev6fmR+4fIwrwYBC0OT/RmYfvphrsDEeaveVN1f6WQOMTIBE0+pnVCOn23VgxEpBvc6tHBMrXoyO4WL2jaOLVBHC3DK8bgrsN717qzTXPpeRfu1iiuj1PFEMHT1VWbfu5fUT8oYBEx05D7nbfRNWrhaXBllvKkXvqY4FnecAkb04Yc/pq2L7rea97GfoNmLW5Vf9haX7+6s02ruRc92jPvnFoK0Sus7xXHqg9ln9vPj9Aet9839DORd9UK81US9w1DNx+R49pRq347bTxueZW4hYIoBvy0EzA8vZT0WAtbrjOE3oh777NN0/jvqi1KZs4xOwESg3qL22WntN74SMr1CSdxaE78Htpr7bayExO95id8dE79Lld5Fk2gHCZhoe9Clrcv93zfLfntMvJmjSbNnW8ZgmgpY79pd2r18Ifd7Yv3fHVujLRmHs+8GWQRMjkGNOetHwO+ByXOVNpUC9mG/yb0tWr84T7PHzb+Pllsxly5iLti/t0WdSxfoS79/jB7/zexhnd4Xxo8LnC9Q+/Jm7zaj+QyG0op+bt79ee9LuYaW/aIA3vVz9X5n7thhUi8NTpJ56hQnpWhQ0U87nplPquQEAqYzwN+HgPGx0i3HR8D0Xsl9kGoAhVmUFzBmowAzcBQAmmwCjsKwU4lgWGu/VuDIDy9lXRdHEDCJeJY5KgqGv62LVNFzOF4Yf+AoDDfVCn6kkPDbIhH0w0tZQ8AkEnA8NSX8tnA8P7x0ayQZOhr8fSQZfKxMljHFOgiYZDgmUsWQEBxNrltdhuBYjZHLAn7kQsdeh0TQjo2rBgIm0YHjuaaJvQ6OZ8emqgZJRhVC5nokGWZcuKUxxToImGQ9JlLFkBAcue6ct0NwzOPhewQ/8kWsb49EMAw3CJjEDY4XNoHgeGG4iVZIMsKwQ5IRhptqFVOsg4BJVmMiVQwJwVG5q98WwdEPr6I1/KiICO8YiSAPp6IVBEwiAscrTg3eMRyPh5PJCkmGCZXqMiQZ1Ri5LGKKdRAwyXRMpIohITi6XNheh+Box4ZTAz/ioFS2QSJYxoRTAgGTKMHxONOlbAPHK2PCLUGSwUUqb4ckI4+H71FMsQ4CJtmPiVQxJARHX7fu2yM4huGmWsGPFBJ+WySCfngpawiYRAKOp6aE3xaO54eXbo0kQ0eDv48kg4+VyTKmWAcBkwzHRKoYEoKjyXWryxAcqzFyWcCPXOjY65AI2rFx1UDAJDpwPNc0sdfB8ezYVNUgyahCyFyPJMOMC7c0plgHAZOsx0SqGBKCI9ed83YIjnk8fI/gR76I9e2RCIbhBgGTuMHxwiYQHC8MN9EKSUYYdkgywnBTrWKKdRAwyWpMpIohITgqd/XbIjj64VW0hh8VEeEdIxHk4VS0goBJROB4xanBO4bj8XAyWSHJMKFSXYYkoxojl0VMsQ4CJpmOiVQxJARHlwvb6xAc7dhwauBHHJTKNkgEy5hwSiBgEiU4Hme6lG3geGVMuCVIMrhI5e2QZOTx8D2KKdaxBUwMWv0nSULi/9lnn03LVN0wt9vb27SzszPSawyzv1XnEuO5fft2LeMR1xHXq+rToPXgKPMLXyzBURh28KMw3Hzn5yD2dXHUbrd7WlSlR4mu8krAlpaW9OKh7yO7D4cU2X0Ydsjuw3BTrUTQG/UfOBoM4Zg4Yq/AdMggYDoa/H04Hh8rk2VMjifGhyTDxHJ1GfyoGiOXRUx+BAGTTMdEqhgSgqPLhe11CI52bDg18CMOSmUb3G0qY8IpgYBJlOB4nOlStoHjlTHhliDJ4CKVt0OSkcfD9yimWAcBk+zHRKoYEoKjr1v37REcw3BTreBHCgm/LRJBP7yUNQRMIgHHU1PCbwvH88NLt0aSoaPB30eSwcfKZBlTrIOASYZjIlUMCcHR5LrVZQiO1Ri5LOBHLnTsdUgE7di4aiBgEh04nmua2OvgeHZsqmqQZFQhZK5HkmHGhVsaU6yDgEnWYyJVDAnBkevOeTsExzwevkfwI1/E+vZIBMNwg4BJ3OB4YRMIjheGm2iFJCMMOyQZYbipVjHFOgiYZDUmUsWQEByVu/ptERz98Cpaw4+KiPCOkQjycCpaQcAkInC84tTgHcPxeDiZrJBkmFCpLkOSUY2RyyKmWAcBk0zHRKoYEoKjy4XtdQiOdmw4NfAjDkplGySCZUw4JRAwiRIcjzNdyjZwvDIm3BIkGVyk8nZIMvJ4+B7FFOsgYJL9mEgVQ0Jw9HXrvj2CYxhuqhX8SCHht0Ui6IeXsoaASSTgeGpK+G3heH546dZIMnQ0+PtIMvhYmSxjinUQMMlwTKSKISE4mly3ugzBsRojlwX8yIWOvQ6JoB0bVw0ETKIDx3NNE3sdHM+OTVUNkowqhMz1SDLMuHBLY4p1EDDJekykiiEhOHLdOW+H4JjHw/cIfuSLWN8eiWAYbhAwiRscL2wCwfHCcBOtkGSEYYckIww31SqmWAcBk6zGRKoYEoKjcle/LYKjH15Fa/hRERHeMRJBHk5FKwiYRASOV5wavGM4Hg8nkxWSDBMq1WVIMqoxclnEFOsgYJLpmEgVQ0JwdLmwvQ7B0Y4NpwZ+xEGpbINEsIwJp+ThEbAbK5QkSe9/+tIeZ2xeNl6OF9gXBEcvSkrGXhyVWvMKwBEPJ5sVOLIh4y6HgLnxsdWyBUw4tvpXQrK4uJiWqbphbhWpvXN+fzkVsCe/8ZOhX3d7e5t/zgH6olZGw8TJdK66rpPjSJsjpj4NWubF0QB9qQu7uq4DjrLY5TsHwdF4Y9fpdFJdcOlRIohU/0rAFhYW0jJVN7Ltu3+SdvTfv3pn6Ne9ffs2/5wj7svIMNQ4fBiv4cXRQz7Wh5Ef0WdwlMXJceUwJo6uXLmS6oJLjxJ9CacEbGlpSS8e+r7KHHsnDrxtx+2U162PwL6I7E9M6jr+xHXE9Ub9l+NoxBfz4iiwL+AoEDjZDByF4Qc/CsONfQtRPz0ELOzzOARHfRb57yM4+mMmWiA4huEmWiERDMOurlgHAZP8eAVHrMDSWY3gmELhvYPg6A1Zr0FdwVFcDByNN0fjI2AHe7RxaYVmjx2mRu9pwwZ98t/8Pi2/+T51BYYO0di7NC3vg05T+y7R/q02zX9anufQJE2fuUCdu/slJro763ThzDQ1H2mk91Enjk7T3Mtt2nA96Gjoy96NNq2cbtLhRv9JyaR33VVae7/X+961XY4X3JfSqPoFcDwLMBXFLo4qmnpXgyNvyHoNwFEYbqqVV7KuGnlu6+JoLARs/1aLZg/JwC8flVe3KcW2cWyFNi7bb9vlBOx6m2aUiKTnOkKr72kMHOzS2jOTqWjp18r2J2j6/CaVZa8gpq9t0LrzXA1qvrTRO4+R1EH7og1L30Vw1NHg7xs54jf3sgRHXnClxuAohSJoBwImhWEoD3HcyQvOxIk5Wr20Tp13OvTNV56jJz/RF7ZGI1slFb8HlglYgxo98Zqg6eU2rb/TobWL8zRzqk27KdW71D6VnSs5NNVbcbW+8Tp13lmj1tmZbBWVJDS53BeftLnY0VZgqeDJ84hrdi63afULTbmSFP1v0Nzb3d5DFSJoZX/mvvTOwe1LdrLcHoJjDg72AYIjGyqjYUzBUQwQfmSkubKwLj96wCuwLq2fUWLSoKlzm/3bhRKe3ucr+zt5wUkSsgtYXyzmL2e37YpIb57LVl6Tz6zR7kHfIud43S1qpSJ3hFZuFNZhBQFrnGrR1v3ilYh2L81kInZqjX5SeArR1pfcmar6kjPODuB4GRY+e3U5nugTOPJhJrMFRxkWIXu5WBdyAkabujh6sAK206IpdZvvZJuKHzulDwjc36CFR/srMbHicQrY8Za22iogfW+NZtX1TuTtSqTe79C8uhVZ7JsuYI156hjEq3/lTVpN+71C39MFzNGXQq+JXH0pGfcLEBwtwFQU1+V4ohvgqIIMSzU4sgDDLC7FOmY7H7O6OHqgArb7SjP9HGr+amGVU3j8d/fiVGrrErDGS5tWnLtvz6XnELf09D8TqRsvKtGcoTVdXTUBayxv6Kcp7O9T52x2jjd/kn0PzNWXwkl6h9a+mIwRHC2oVBfX5XiiJxCwaj5MFuDIhAq/zBTr+K15lnVx9AAFrEvrZ7LgnhMIiVG6AhPH763SEbl6cglYsU6He2NZXe8wzV/s9D5nE5+1if/Xe5+B5cvWXswEduWGdiZNwFzXEy2ya07T6/83E7CsvNwX1Sd9a+2L1i19F8FRR4O/X5fjiR6BIz4vuiU40tHw34eADeUhjj1qn1SCskKmdUxOwO62aZohYAvXbYTq11PX5W9zQjWwgA2xL5bhIjhagKkoRnCsAKiiOqbgKIYKP6og3FJdlx89wBWYHsQZArbfoXmGgOVWSjlw9evxhUs9ZQgBy4GZHuSSjLR0NDsIjmG4gqMw3EQrCFgYdhCwwmdgtLdGM0MTsP4XnnVqvILjUFdg5b7o/Qrdh+OFIVeX44negSNwpBBAkqGQ8Ns+wBWY/oCDOYjnSL3Du4VoX4Hpn0cVvthMRPUKmLsvfhSarREczbhUlULAqhBy13v5kftU1lpwZIWGVRETRw9QwIiyLyAnvS/6FtHXBaz71mz6BGHudh7lz+MSMP16za9t5S7nRerAK7B8n4t9yXUs8AACFgYcgmMYbqqVlx+pRp5bcOQJWME8Jo4eqICR/j2wwveyBOaZgO1S60T2uVWogJH2IEjSmKP1exmzZVL3aO1UgyaONql5fIZatzJb/U0cxb5oVr3d7GnD/FOIrr4Uz0Hk6EvZuFcCAbMAU1GM4FgBUEV12Y8qGgRUg6MA0LQmMXH0YAWM9mlj+Ui6spp8fp325JsxBN59AbtHneezt2dUfZHZtQKjwvV671iUXwfLk9qlzXNT2Vs0iuI6hBWYqy/aXCOiir7kjdMjCFgKhdcOgqMXXCXjvB+VqodSAI4GgzEmjh6wgBHR/Q1aOZqtrhqPzND8xbX0XYhP/ZZ61VRmU1z16LcG3QJWvl7SOEwzZ1v0V73vga1T+/w8zWhvp08aM9S+U5gwQxEwe1/Wet9NY/al0DV1CAFTSPhtERz98CpaxxQcxdjgR0WGecd1+dGDFzCBR3eTVj9dFir1CHvSaNLKpQus74FVCpi43v0tap2eSFd+6XXkU47p8aFZat0qvyFkKLcQ1TwYtC/qPIUtHK8ACPOwLscT3QFHTFIKZuCoAIjnYUxJxngIWI+ALu1evkBzJydpQgrJx37rcTq99Fr/t7m0z68GWoFpZHdvrVPr7Cw1j2pidmiSmqfnqXV5i7ra7UytWe5t9MW+5Owcb+Io2gX3pXgieYzgaAGmohjBsQKgiuqYgqMYKvyognBLdV1+NEYCVkYie4ijXDfsEjheGKLgKAw30QrBMQy7uoIjOArjR7SqiyMImOQIAhY2WSFgYbiJVhCwMOzqCo7gKIwf0aoujiBgkiMIWNhkhYCF4SZaQcDCsKsrOIKjMH5Eq7o4goBJjiBgYZMVAhaGm2gFAQvDrq7gCI7C+BGt6uIIAiY5goCFTVYIWBhuohUELAy7uoIjOArjR7SqiyO2gAlnU//qMfOFhYW0TNU9rNvbt29HM5aHlYOqfoOjzAersHpQ9eAIHNU5965cuZJ+HcqlR4lQVPWvBGxxcTEtU3XD3KrsfpjntJ1re3t7pGNR1xXkqv1Rbuu6DjjK/MKXT3A0/tiBo/HmqNPppALm0qNEX0wqAVtaWtKLh76vguPQT2w4IW4hGkBhFIEjBkgWExUcLdVDKwZH4VCCozDsRDInsBv1H/sWot4RCJiOBn+/LlJFj+B4fF50S3Cko+G/j0TQHzPRAklGGG4QMIkbHC9sAsHxwnATrZBkhGGHJCMMN9UqplgHAZOsxkSqGBKCo3JXvy2Cox9eRWv4URER3jESQR5ORSsImEQEjlecGrxjOB4PJ5MVkgwTKtVlSDKqMXJZxBTrIGCS6ZhIFUNCcHS5sL0OwdGODacGfsRBqWyDRLCMCacEAiZRguNxpkvZBo5XxoRbgiSDi1TeDklGHg/fo5hiHQRMsh8TqWJICI6+bt23R3AMw021gh8pJPy2SAT98FLWEDCJBBxPTQm/LRzPDy/dGkmGjgZ/H0kGHyuTZUyxDgImUQrASAAAHfNJREFUGY6JVDEkBEeT61aXIThWY+SygB+50LHXIRG0Y+OqgYBJdOB4rmlir4Pj2bGpqkGSUYWQuR5JhhkXbmlMsQ4CJlmPiVQxJARHrjvn7RAc83j4HsGPfBHr2yMRDMMNAiZxg+OFTSA4XhhuohWSjDDskGSE4aZaxRTrIGCS1ZhIFUNCcFTu6rdFcPTDq2gNPyoiwjtGIsjDqWgFAZOIwPGKU4N3DMfj4WSyQpJhQqW6DElGNUYui5hiHQRMMh0TqWJICI4uF7bXITjaseHUwI84KJVtkAiWMeGUQMAkSnA8znQp28DxyphwS5BkcJHK2yHJyOPhexRTrIOASfZjIlUMCcHR16379giOYbipVvAjhYTfFomgH17KGgImkYDjqSnht4Xj+eGlWyPJ0NHg7yPJ4GNlsowp1kHAJMMxkSqGhOBoct3qMgTHaoxcFvAjFzr2OiSCdmxcNRAwiQ4czzVN7HVwPDs2VTVIMqoQMtcjyTDjwi2NKdZBwCTrMZEqhoTgyHXnvB2CYx4P3yP4kS9ifXskgmG4QcAkbnC8sAkExwvDTbRCkhGGHZKMMNxUq5hiHQRMshoTqWJICI7KXf22CI5+eBWt4UdFRHjHSAR5OBWt2AImAFb/SZKQ+H/hhRfSMlX3sG63t7drGYsQljowqus6dYxFXQMcZT6oMBm3LTgCR2pO1hGDrl692tOiKj1KDg4OSP0rAVtcXEzLVN0wtwKIYZ7Pda6dnZ1ariVIdfVjWHV1XQccZX7hyx04Gn/swNF4c3Tt2rVUwFx6lOhLNyVgS0tLevHQ91VwHPqJDSfErQ8DKIwicMQAyWIigqO4ZTnqP3AUjjA4CsOurlvx7FuI+jAgYDoa/P26SBU9guPxedEtwZGOhv8+EkF/zEQLJBlhuEHAJG5wvLAJBMcLw020QpIRhh2SjDDcVKuYYh0ETLIaE6liSAiOyl39tgiOfngVreFHRUR4x0gEeTgVrSBgEhE4XnFq8I7heDycTFZIMkyoVJchyajGyGURU6yDgEmmYyJVDAnB0eXC9joERzs2nBr4EQelsg0SwTImnBIImEQJjseZLmUbOF4ZE24JkgwuUnk7JBl5PHyPYop1EDDJfkykiiEhOPq6dd8ewTEMN9UKfqSQ8NsiEfTDS1lDwCQScDw1Jfy2cDw/vHRrJBk6Gvx9JBl8rEyWMcU6CJhkOCZSxZAQHE2uW12G4FiNkcsCfuRCx16HRNCOjasGAibRgeO5pom9Do5nx6aqBklGFULmeiQZZly4pTHFOgiYZD0mUsWQEBy57py3Q3DM4+F7BD/yRaxvj0QwDLcHLGAbtCLfbJ+cbNNeYQz1knqD2if7b9lPkhXaKPRlGIe//OX36E/UeEO3y7ye/UoI2I2V9EWe05eKsyeMMQhYGG6qFQRMIeG3rTfWfejXuQDruvwIAibJ+fBDCFjAPH2w73CDgLEoQ3BkwWQ0+pVIBI0jH6wQAlb7Cy7rFrApmnt5lVZ9/9/eZc2sXwnHg4Cx5gIEjAWT0ehXwo+MIx+sEAIWvYCN5jalmnZwPIWE37YuxxO9Akd+3ChrcKSQCNvGdJsXtxDlHKj/FiIEzNf9YnI8MXYImO8M6NtDwMJwU61i8iMImGQVAqamt98Wt6f88NKtIWA6Gvx9CBgfK5MlBEw+QTf4LzJzn0Ls0u47bVo9M03NRxrpk2dJ4zA1j8/SyqUN2ts3UZUv6+6s04Uz0zR5SD5teGiSps9coM4ekY+AqfPofZk4Ok1zL7dpw/EwXP4pxCGtwNLPgaapfbc/3r13WvRf/uPjdLihj3OV1t7v5gGxHPmMTxewvUvTkpt+X/ZvtWn+04epIeaLwvpugaiDPdq4tEKzxydpQs6rHpbnO7R3IDqozZHn3sz3OB17Qs6nEA3X6M2d0/PUurxLOioIjnmIfY9iCo5i7EgyfGdA374uPxr/FdiHb9D8MU20bI+fN6Zo9b1CcEyx71LnxWY/kBrbT9DJv3yz+jH6g11ae2YyE1DLuabPb5KpJyMXsDu7tHZ6wtG/BjVf2jD2rQdVwPisAna9TTNKQFOcjtDqeykpRHfWaO6o+uqCYXtoltp3OtlXLQIErHtzlaZK/chfq3Fsntbv1Ot44moIjtpc8NitKziCIw9SCqZ1cTTeAvZP36Sn0uDToMNPzdOFS+vUeadDnXfWqPXiHE2p1ZQIko+u0EZJOfZpY1kTncZhmjnbojVxjsttWv2CErZfo0Z6LdPqaJfapzQhPSSeImzTuurL2ZlsxZMkNLlcForRCliTZk7JcR6aoj/8yl/T/7z2Heq81aL5p+QqqCckDZq/WgKJiMLGZxawhsRygqaX+xitXZynmVNtSp+hvLuWE7jGsVlaldwK22nFa6ORJR6eArZ/Y4UmU/Hsz5/WW2LudGj90irNndDEvjFD7TtEdTkegmMh4nkcgiMPsAymMa2Sx1jA9unb//VjcjXRoJlLaejLU3KQD7wL1/PV9N5qFsSOztGazLR1q+71FTqSBjqRnZcFbPNcJoKTz6zRbu/2ln4WIupuUSsVuSO0ciMvFKMVsP6qQvWtmN3vvjaTCcGZ9dxtMzGK0PGZBUz0pUHzl/WbczpWXVo/o5KB/qqwZGlaDfoI2L11mlMJiVid3yxdodehvcsL2fw42aaf/PKXvZWR3ttR7Rc5GtV1dI5GdQ113piCoxgTOFLM+m3rSjLGV8D2O/ScEpUTrSxzN+F4fSG9bZb/LGSfOs+rQFkWFP1U764+kZ6jJGD31miW25f7HZpXgbPwdpG8gPUFJ1Hn5WxNb+HQPgdKGvPUud8fVdnxNmhF9aso0AOM76Nf/IIODvpqnn0GllBy3MHZToum1HgLGOmciFVh64SGk4eAbb58JE1+zCvO7Eq7r0yltsvfh4BlyPjvQcD8MRMtkGSE4Ta+AnZnjZ7+7ON07LGPuz+gF+PWgnhOwPY7NK8CpSugEtGHP36dFiwBvvv2XCpuc2+bM3kd/o0XVdCdoTXtoY6RC9iL2WumygK2R2unVL8Wcq/KGmR83/zILGCNlzZ1SHL7u680U8FYuZGrKh3ofUvYArZJq4/KsT66SvaeyMvdadO0nCeNlX/ECqzEAr8AAsbHSreEgOlo8PfHV8CcWck+dbu7tKk+B9OeTMwJ2Hur6a1BV0AVcH344Satn1EBPn8LcWNZlR+m+Yv9z1D6n8OZ99deVAE6IT1A5wUs4E0cprdwWMS7LGBE2TiyJxbF2LNy//Et/YNZwHI85OajLqTz1MnfZc1Z9g721mhGJSFcAbubCVJyclV+Tmnmqs/jhWyF/bnX6c7Pf17uxwhKTByN4DLI7gcAFRyFgTd2txBFZqX+1W2vZ599Ni1TdX7bN+lLKjidOEc3tGuI82xvb9POzg5tXnmdzi3O0sl/PUlHfkOJiXn7xFdvZH36H19KV0658sJ1VJ/ffE6d80v0Zmpzg87pt7FUf5lb/brb2/89uy2a6NfIsFV9YW8tY7x9+3YPP/082fieoHPfU9ccbHz/9tz3exyJ69z4anYb9j9/U52/uH2bnj9swrlop461OfLcmxm3gh/L2PVyNVf52y/SN2/fzl8nnQuqT8PZmjjS+RrWvvKjYZ3vQZ9HjEdgV0c/wFHYXK+Lo3a7ncZ4lx4lug6rYDDy74H99Ad0/nMfTzuorptuxffATs7R6ln1/aPC94EsqxN9LGpfOEN2a0tfge1pj9erwMvf6iuR/ApMv4bqRcDWMkZT5pittPQV2GDj+8zffGT8DExfeeZHpX2vq/hZXN5QHmn23BWYhkk6V5gJR5Is0//GCszIBKdQ+NGo/+rK7sU4TH40ivHhFmIYquN7C3F/k5b+lSYUhyZp9uwFal/u0MatPep2tXtPWsDSBcP62ZgBK+F4my+pBz50cdEDvB74DSepKBp/AfMfn+54+kMcdgHbtD9MYsRvQAEzPfhivE6/EMHRAQ6jCgLGAMlgovuRoXqoRTFxNLYCtntRPRmWUEN8f8j02Lqi1SZgOy1qqsy7IpAJUrOHL3QB0z8jKnwRV12fuR1PARtsfLrj8QRM/wxsjtarnokZ9DMww1cGXHRBwFzoVNfFFBzFaLECq+bcZFGXH42pgOlB7hi1dkwQZWXZrb/CLUTxGiL1ZGHF02gffvh29uRa4daWHpibX9vKLuy5N64CNsj4/AVMfOcse8TdvlLrg7t/dT67hcy9hajznszRuvxqAYeuuhxP9AXBkcNI2QYclTHxKYkpyRhbAct+HfnJ3hsSrATd36AF9ch0UhQw/XtgtjdQ9M/841dnsy/6FgSM9KfaGnO0fs/aGyIS4tugiaNNah6fodatzHZcBWyQ8X39h+anEJ3CpH0PrOFcIe3mP39kC5hYVarbwQlNnnM/SL9/c4Ume+/VbNKxF75D/w+fgWWT1nMvpuAoho4kw3MCSPO6kowxFbBCADK8lqmH070NWv10Fqh6H9gXbxXmxGeGWoYX2u7fatHv/pr2eVtRwEi8jkqtGhJqHFuhDeOtry5tnpvKhLDwBeyxFbABxveB5YvMTgGjbu5NHFPnNktvBiHq5l8BJm4FewhYTpSTCZq1vckl9z7GBv3xtX/pBa0wt/VrheDoh5eyris4iuuBI4W637YujsZWwMQroB5Tn18lCU2c1N6D+FaLFs5MpW8vbxxrZq8DKgqYeMvfJe01SskETZ1Z7T0M0nsXonae7Im1/GdgPerub9CK/uJZ/Z2K76xT+/w8zWjfR0vku/V02vMCFvA9sN6vN7fy4mn5/M/keOanEGUPA8cXcguxd8WKdyGmWA7wLsQ87wlNnJhL37co3hGpzyHBvXh/5b/gVVL6lPXexwrMG7JeA92Pws7AbxUTR+MrYET0wd98PlvNaGKWCU2Dmi+u096B9uYFy6uJdt+ay0TOcK5f/9xfUTt9g4ZBwMT8uL9FLefb3uUq7tAstW5pT0nKuZUXMH3F57NfeFJwWAIWOD7d8fTP0twrMAnInTbNqpf2GjhJjs7R+nXtS8k+KzB5ie7VBWqqz0FN1+iViXnU6a0C68ocRfdMSYbs9lA3OkdDPbHhZDEFRzE8cGQgmVFUlx+NtYAJx7v3wdu93/DKfnurQYePlX97K/vMY8r+0MfeBrWXZ7XfFJugyZNzdOHyLm2KpxDTN25YBEwS1721Tq2zs9Q8qr3N/NAkNXu/L7VFXcsTk2MvYAHj04Ojt4CJ66nf6jqWvTE/93tg2muenlh9N+86FvHOGxHRvvjNsVWaO9nUfjFAm0fab5TV5XiijwiOJaZYBeCIBZPVKKYk4wELmBXjXoUeHN2Wg9fGRKpAI5rgqInU773ifhhj8FmAn1MZFEP4URiCiHVhuEHAJG5wvLAJFOR4N1bkU5riVqv7utlb5Zv0Zx285cGNlrk2iCPzqSpL4UeVEBkNwJERlspCCJiECI5XOVeMBkGOp33BvPcldeOZicTvtKU/SHmiRe/iNUUWpNzFQRy5T2mthR9ZoXFWgCMnPNZKCJiEBo5nnSPOijDH639XLn0Y59A0zZ9Xv24tfi35QuFXpCdp5eZ+7+Wtzs4MoRKfrwwGIvwoDL8wPwq7VkwcQcDkHIiJVDGksf8M7P4mXTipPQRje0Lw0DRdeK//RCc4CgtYCI5huD0UfhQwtJj8CAImJ0BMpD5Mjrd3o02rZ6a1J0MTSixPdIKjgGjl/F29sPO5WoEjFzr2OiQZdmxcNRAwiQ4czzVN7HVwPDs2VTVjv0quGoChHn5kAIVRBD9igGQwgYBJUOB4htnBKILjMUCymEDALMBUFONzygqAKqpjinUQMEl2TKSKISE4VnixpRrB0QIMsxh+xASqYIZEsAAI8xACJoGC4zFnTMEMjlcAxOMQSYYHWJopkgwNjIDdmGIdBExOgJhIFUNCcAzwbMKbOMJQy1rBjzIsfPaQCPqgldlCwCQWcLxsUvjswfF80MrbIsnI48E9wgqMi5TZLqZYBwGTHMdEqhgSgqPZeatKERyrEHLXw4/c+NhqkQjakHGXQ8AkPnA890Sx1cLxbMhUlyPJqMbIZIEkw4QKvyymWAcBk7zHRKoYEoIj36F1SwRHHQ3/ffiRP2aiBRLBMNzYAiYcW/2rd9gtLi6mZapumFtF6jDPaTvX9vb2SMeirquERR2PalvXdcBR5he+XIKj8ccOHI03R51Ohzh6lAgi1b9qsLCwkJapuod1e/v27WjG8rByUNVvcJT5YBVWD6oeHIGjOufelStXUgFz6VGiL/CUgC0tLenFQ99X2f3QT2w4IW59GEBhFIEjBkgWE+HoYtU26j9wFI4wOArDTsxrgd2o/9i3EPWOQMB0NPj7dZEqegTH4/OiW4IjHQ3/fSSC/piJFkgywnCDgEnc4HhhEwiOF4abaIUkIww7JBlhuKlWMcU6CJhkNSZSxZAQHJW7+m0RHP3wKlrDj4qI8I6RCPJwKlpBwCQicLzi1OAdw/F4OJmskGSYUKkuQ5JRjZHLIqZYBwGTTMdEqhgSgqPLhe11CI52bDg18CMOSmUbJIJlTDglEDCJEhyPM13KNnC8MibcEiQZXKTydkgy8nj4HsUU6yBgkv2YSBVDQnD0deu+PYJjGG6qFfxIIeG3RSLoh5eyhoBJJOB4akr4beF4fnjp1kgydDT4+0gy+FiZLGOKdRAwyXBMpIohITiaXLe6DMGxGiOXBfzIhY69DomgHRtXDQRMogPHc00Tex0cz45NVQ2SjCqEzPVIMsy4cEtjinUQMMl6TKSKISE4ct05b4fgmMfD9wh+5ItY3x6JYBhuEDCJGxwvbALB8cJwE62QZIRhhyQjDDfVKqZYBwGTrMZEqhgSgqNyV78tgqMfXkVr+FEREd4xEkEeTkUrCJhEBI5XnBq8YzgeDyeTFZIMEyrVZUgyqjFyWcQU6yBgkumYSBVDQnB0ubC9DsHRjg2nBn7EQalsg0SwjAmnBAImUYLjcaZL2QaOV8aEW4Ikg4tU3g5JRh4P36OYYh0ETLIfE6liSAiOvm7dt0dwDMNNtYIfKST8tkgE/fBS1hAwiQQcT00Jvy0czw8v3RpJho4Gfx9JBh8rk2VMsQ4CJhmOiVQxJARHk+tWlyE4VmPksoAfudCx1yERtGPjqoGASXTgeK5pYq+D49mxqapBklGFkLkeSYYZF25pTLEOAiZZj4lUMSQER6475+0QHPN4+B7Bj3wR69sjEQzDDQImcYPjhU0gOF4YbqIVkoww7JBkhOGmWsUU6yBgktWYSBVDQnBU7uq3RXD0w6toDT8qIsI7RiLIw6loBQGTiMDxilODdwzH4+FkskKSYUKlugxJRjVGLouYYh1bwISzqf8kSUj8LywspGWq7mHd3r59O5qxPKwcVPUbHGU+WIXVg6oHR+Cozrl35cqVnhZV6VEish71rwRscXExLVN1w9yq7H6Y57Sda3t7e6RjUdcV5Kr9UW7rug44yvzCl09wNP7YgaPx5qjT6aQC5tKjRF+SKgFbWlrSi4e+r4Lj0E9sOGFMy2oxPOV4hqEOtQgchcMJjsKwE4mCwK6OP3AUhnJdHLFvIerDgIDpaPD36yJV9AiOx+dFtwRHOhr++0gE/TETLZAIhuEGAZO4wfHCJhAcLww30QpJRhh2SDLCcFOtYop1EDDJakykiiEhOCp39dsiOPrhVbSGHxUR4R0jEeThVLSCgElE4HjFqcE7huPxcDJZIckwoVJdhiSjGiOXRUyxDgImmY6JVDEkBEeXC9vrEBzt2HBq4EcclMo2SATLmHBKIGASJTgeZ7qUbeB4ZUy4JUgyuEjl7ZBk5PHwPYop1kHAJPsxkSqGhODo69Z9ewTHMNxUK/iRQsJvi0TQDy9lDQGTSMDx1JTw28Lx/PDSrZFk6Gjw95Fk8LEyWcYU6yBgkuGYSBVDQnA0uW51GYJjNUYuC/iRCx17HRJBOzauGgiYRAeO55om9jo4nh2bqhokGVUImeuRZJhx4ZbGFOsgYJL1mEgVQ0Jw5Lpz3g7BMY+H7xH8yBexvj0SwTDcIGASNzhe2ASC44XhJlohyQjDDklGGG6qVUyxDgImWY2JVDEkBEflrn5bBEc/vIrW8KMiIrxjJII8nIpWEDCJCByvODV4x3A8Hk4mKyQZJlSqy5BkVGPksogp1kHAJNMxkSqGhODocmF7HYKjHRtODfyIg1LZBolgGRNOCQRMogTH40yXsg0cr4wJtwRJBhepvB2SjDwevkcxxToImGQ/JlLFkBAcfd26b4/gGIabagU/Ukj4bZEI+uGlrCFgEgk4npoSfls4nh9eujWSDB0N/j6SDD5WJsuYYh0ETDIcE6liSAiOJtetLkNwrMbIZQE/cqFjr0MiaMfGVQMBk+jA8VzTxF4Hx7NjU1WDJKMKIXM9kgwzLtzSmGIdBEyyHhOpYkgIjlx3ztshOObx8D2CH/ki1rdHIhiGGwRM4gbHC5tAcLww3EQrJBlh2CHJCMNNtYop1kHAJKsxkSqGhOCo3NVvi+Doh1fRGn5URIR3jESQh1PRii1gAmD1nyQJif8XXnghLVN1D+t2e3u7lrEIYakDo7quU8dY1DXAUeaDCpNx24IjcKTmZB0x6OrVqz0tqtKj5ODggNS/ErDFxcW0TNUNcyuAGOb5XOfa2dmp5VqCVFc/hlVX13XAUeYXvtyBo/HHDhyNN0fXrl1LBcylR4m+dFMCtrS0pBcPfV8Fx6Gf2HBC3PowgMIoAkcMkCwmIjiKW5aj/gNH4QiDozDs6roVz76FqA8DAqajwd+vi1TRIzgenxfdEhzpaPjvIxH0x0y0QJIRhhsETOIGxwubQHC8MNxEKyQZYdghyQjDTbWKKdZBwCSrMZEqhoTgqNzVb4vg6IdX0Rp+VESEd4xEkIdT0QoCJhGB4xWnBu8YjsfDyWSFJMOESnUZkoxqjFwWMcU6CJhkOiZSxZAQHF0ubK9DcLRjw6mBH3FQKtsgESxjwimBgEmU4Hic6VK2geOVMeGWIMngIpW3Q5KRx8P3KKZYBwGT7MdEqhgSgqOvW/ftERzDcFOt4EcKCb8tEkE/vJQ1BEwiAcdTU8JvC8fzw0u3RpKho8HfR5LBx8pkGVOsg4BJhmMiVQwJwdHkutVlCI7VGLks4EcudOx1SATt2LhqIGASHTiea5rY6+B4dmyqapBkVCFkrkeSYcaFWxpTrIOASdZjIlUMCcGR6855OwTHPB6+R/AjX8T69kgEw3CDgEnc4HhhEwiOF4abaIUkIww7JBlhuKlWMcU6CJhkNSZSxZAQHJW7+m0RHP3wKlrDj4qI8I6RCPJwKlpBwCQicLzi1OAdw/F4OJmskGSYUKkuQ5JRjZHLIqZYBwGTTMdEqhgSgqPLhe11CI52bDg18CMOSmUbJIJlTDglEDCJEhyPM13KNnC8MibcEiQZXKTydkgy8nj4HsUU6yBgkv2YSBVDQnD0deu+PYJjGG6qFfxIIeG3RSLoh5eyhoBJJOB4akr4beF4fnjp1kgydDT4+0gy+FiZLGOKdRAwyXBMpIohITiaXLe6DMGxGiOXBfzIhY69DomgHRtXDQRMogPHc00Tex0cz45NVQ2SjCqEzPVIMsy4cEtjinUQMMl6TKSKISE4ct05b4fgmMfD9wh+5ItY3x6JYBhuEDCJGxwvbALB8cJwE62QZIRhhyQjDDfVKqZYN7CALS0t0aj+X3jhBVpcXBzZ+fV+P/vssyO/jhjLwsLCyK8jxiWuUwd24Ch8/oOjMOzgR2G4qXgXW6xLkoTEvxif7S/RK1QDbPvAAQfggDmAOYA58GDngFPAxLJT/YOoB0sU8Af+mAOYA5gD+TkgVpZKo4rb3ArsypUr1Ol0SNx/HOX/1atX6dq1ayO9hup/u90e+XUEZgI7dc1RbsFR2NwER2G4qbkMPwrDD7EuDDcx7/RYp98p1PdzAoYPn3Vo+Pv48JmPlclSZFWj/gNHgyEMjsLww8NQYbiJVhw9goCF45u2RHBMoQjaQXAMgo0QHMNwE604wTH87FlLcJRh4bvH4QgC5ouqwR4CZgDFowgC5gGWZorgqIHhucsJjp6nNJqDIyMsrEIORxAwFpRuIwiYG5+qWghYFULmegRHMy6cUk5w5JynygYcVSFkr+dwBAGz48eugYCxoTIaQsCMsFQWIjhWQmQ14ARHa2OPCnDkAVbBlMMRBKwAWsghBCwEtawNBCzDwmcPwdEHrbwtJzjmW4QdgaMw3EQrDkf/HwVSHw61/hJgAAAAAElFTkSuQmCC;" parent="SvDjPs0FLOlSSPxpTw0N-1" vertex="1">
                    <mxGeometry x="384" y="500" width="182" height="306.28" as="geometry"/>
                </mxCell>
                <mxCell id="3rZtywOMPf8drsKk33FH-11" value="Basis" style="swimlane;fontStyle=2;align=center;verticalAlign=top;childLayout=stackLayout;horizontal=1;startSize=26;horizontalStack=0;resizeParent=1;resizeLast=0;collapsible=1;marginBottom=0;rounded=0;shadow=0;strokeWidth=1;" parent="SvDjPs0FLOlSSPxpTw0N-1" vertex="1">
                    <mxGeometry x="110" y="700" width="160" height="220" as="geometry">
                        <mxRectangle x="230" y="140" width="160" height="26" as="alternateBounds"/>
                    </mxGeometry>
                </mxCell>
                <mxCell id="3rZtywOMPf8drsKk33FH-12" value="rover: _________" style="text;align=left;verticalAlign=top;spacingLeft=4;spacingRight=4;overflow=hidden;rotatable=0;points=[[0,0.5],[1,0.5]];portConstraint=eastwest;" parent="3rZtywOMPf8drsKk33FH-11" vertex="1">
                    <mxGeometry y="26" width="160" height="26" as="geometry"/>
                </mxCell>
                <mxCell id="3rZtywOMPf8drsKk33FH-13" value="zustand: zahl" style="text;align=left;verticalAlign=top;spacingLeft=4;spacingRight=4;overflow=hidden;rotatable=0;points=[[0,0.5],[1,0.5]];portConstraint=eastwest;" parent="3rZtywOMPf8drsKk33FH-11" vertex="1">
                    <mxGeometry y="52" width="160" height="26" as="geometry"/>
                </mxCell>
                <mxCell id="3rZtywOMPf8drsKk33FH-14" value="erz: zahl" style="text;align=left;verticalAlign=top;spacingLeft=4;spacingRight=4;overflow=hidden;rotatable=0;points=[[0,0.5],[1,0.5]];portConstraint=eastwest;rounded=0;shadow=0;html=0;" parent="3rZtywOMPf8drsKk33FH-11" vertex="1">
                    <mxGeometry y="78" width="160" height="26" as="geometry"/>
                </mxCell>
                <mxCell id="3rZtywOMPf8drsKk33FH-15" value="wasser: zahl" style="text;align=left;verticalAlign=top;spacingLeft=4;spacingRight=4;overflow=hidden;rotatable=0;points=[[0,0.5],[1,0.5]];portConstraint=eastwest;rounded=0;shadow=0;html=0;" parent="3rZtywOMPf8drsKk33FH-11" vertex="1">
                    <mxGeometry y="104" width="160" height="26" as="geometry"/>
                </mxCell>
                <mxCell id="3rZtywOMPf8drsKk33FH-16" value="energie: zahl" style="text;align=left;verticalAlign=top;spacingLeft=4;spacingRight=4;overflow=hidden;rotatable=0;points=[[0,0.5],[1,0.5]];portConstraint=eastwest;rounded=0;shadow=0;html=0;" parent="3rZtywOMPf8drsKk33FH-11" vertex="1">
                    <mxGeometry y="130" width="160" height="26" as="geometry"/>
                </mxCell>
                <mxCell id="3rZtywOMPf8drsKk33FH-17" value="" style="line;html=1;strokeWidth=1;align=left;verticalAlign=middle;spacingTop=-1;spacingLeft=3;spacingRight=3;rotatable=0;labelPosition=right;points=[];portConstraint=eastwest;" parent="3rZtywOMPf8drsKk33FH-11" vertex="1">
                    <mxGeometry y="156" width="160" height="8" as="geometry"/>
                </mxCell>
                <mxCell id="3rZtywOMPf8drsKk33FH-18" value="baue" style="text;align=left;verticalAlign=top;spacingLeft=4;spacingRight=4;overflow=hidden;rotatable=0;points=[[0,0.5],[1,0.5]];portConstraint=eastwest;rounded=0;shadow=0;html=0;" parent="3rZtywOMPf8drsKk33FH-11" vertex="1">
                    <mxGeometry y="164" width="160" height="26" as="geometry"/>
                </mxCell>
                <mxCell id="3rZtywOMPf8drsKk33FH-19" value="lade" style="text;align=left;verticalAlign=top;spacingLeft=4;spacingRight=4;overflow=hidden;rotatable=0;points=[[0,0.5],[1,0.5]];portConstraint=eastwest;rounded=0;shadow=0;html=0;" parent="3rZtywOMPf8drsKk33FH-11" vertex="1">
                    <mxGeometry y="190" width="160" height="26" as="geometry"/>
                </mxCell>
                <mxCell id="3rZtywOMPf8drsKk33FH-20" value="Funkgeraet" style="swimlane;fontStyle=0;align=center;verticalAlign=top;childLayout=stackLayout;horizontal=1;startSize=26;horizontalStack=0;resizeParent=1;resizeLast=0;collapsible=1;marginBottom=0;rounded=0;shadow=0;strokeWidth=1;" parent="SvDjPs0FLOlSSPxpTw0N-1" vertex="1">
                    <mxGeometry x="425" y="840" width="160" height="100" as="geometry">
                        <mxRectangle x="240" y="470" width="160" height="26" as="alternateBounds"/>
                    </mxGeometry>
                </mxCell>
                <mxCell id="3rZtywOMPf8drsKk33FH-21" value="funkfrequenz: Buchstabe" style="text;align=left;verticalAlign=top;spacingLeft=4;spacingRight=4;overflow=hidden;rotatable=0;points=[[0,0.5],[1,0.5]];portConstraint=eastwest;" parent="3rZtywOMPf8drsKk33FH-20" vertex="1">
                    <mxGeometry y="26" width="160" height="26" as="geometry"/>
                </mxCell>
                <mxCell id="3rZtywOMPf8drsKk33FH-22" value="" style="line;html=1;strokeWidth=1;align=left;verticalAlign=middle;spacingTop=-1;spacingLeft=3;spacingRight=3;rotatable=0;labelPosition=right;points=[];portConstraint=eastwest;" parent="3rZtywOMPf8drsKk33FH-20" vertex="1">
                    <mxGeometry y="52" width="160" height="8" as="geometry"/>
                </mxCell>
                <mxCell id="3rZtywOMPf8drsKk33FH-23" value="funken" style="text;align=left;verticalAlign=top;spacingLeft=4;spacingRight=4;overflow=hidden;rotatable=0;points=[[0,0.5],[1,0.5]];portConstraint=eastwest;fontStyle=0" parent="3rZtywOMPf8drsKk33FH-20" vertex="1">
                    <mxGeometry y="60" width="160" height="26" as="geometry"/>
                </mxCell>
                <mxCell id="AHe2UkVYsW1YyN_bYUN4-0" value="meinFunkgeraet" style="edgeStyle=orthogonalEdgeStyle;rounded=0;orthogonalLoop=1;jettySize=auto;html=1;exitX=1;exitY=0.5;exitDx=0;exitDy=0;entryX=0;entryY=0.5;entryDx=0;entryDy=0;" parent="SvDjPs0FLOlSSPxpTw0N-1" source="AHe2UkVYsW1YyN_bYUN4-1" target="AHe2UkVYsW1YyN_bYUN4-10" edge="1">
                    <mxGeometry x="-0.0339" y="10" relative="1" as="geometry">
                        <Array as="points">
                            <mxPoint x="520" y="145"/>
                            <mxPoint x="560" y="145"/>
                            <mxPoint x="560" y="234"/>
                        </Array>
                        <mxPoint as="offset"/>
                        <mxPoint x="680" y="175" as="targetPoint"/>
                    </mxGeometry>
                </mxCell>
                <mxCell id="AHe2UkVYsW1YyN_bYUN4-1" value="Rover" style="swimlane;fontStyle=0;align=center;verticalAlign=top;childLayout=stackLayout;horizontal=1;startSize=26;horizontalStack=0;resizeParent=1;resizeLast=0;collapsible=1;marginBottom=0;rounded=0;shadow=0;strokeWidth=1;" parent="SvDjPs0FLOlSSPxpTw0N-1" vertex="1">
                    <mxGeometry x="390" y="70" width="130" height="215" as="geometry">
                        <mxRectangle x="20" y="450" width="160" height="26" as="alternateBounds"/>
                    </mxGeometry>
                </mxCell>
                <mxCell id="AHe2UkVYsW1YyN_bYUN4-2" value="name: Text" style="text;align=left;verticalAlign=top;spacingLeft=4;spacingRight=4;overflow=hidden;rotatable=0;points=[[0,0.5],[1,0.5]];portConstraint=eastwest;" parent="AHe2UkVYsW1YyN_bYUN4-1" vertex="1">
                    <mxGeometry y="26" width="130" height="26" as="geometry"/>
                </mxCell>
                <mxCell id="AHe2UkVYsW1YyN_bYUN4-3" value="fahrstrecke: Zahl" style="text;align=left;verticalAlign=top;spacingLeft=4;spacingRight=4;overflow=hidden;rotatable=0;points=[[0,0.5],[1,0.5]];portConstraint=eastwest;rounded=0;shadow=0;html=0;" parent="AHe2UkVYsW1YyN_bYUN4-1" vertex="1">
                    <mxGeometry y="52" width="130" height="26" as="geometry"/>
                </mxCell>
                <mxCell id="AHe2UkVYsW1YyN_bYUN4-4" value="" style="line;html=1;strokeWidth=1;align=left;verticalAlign=middle;spacingTop=-1;spacingLeft=3;spacingRight=3;rotatable=0;labelPosition=right;points=[];portConstraint=eastwest;" parent="AHe2UkVYsW1YyN_bYUN4-1" vertex="1">
                    <mxGeometry y="78" width="130" height="32" as="geometry"/>
                </mxCell>
                <mxCell id="AHe2UkVYsW1YyN_bYUN4-5" value="fahre" style="text;align=left;verticalAlign=top;spacingLeft=4;spacingRight=4;overflow=hidden;rotatable=0;points=[[0,0.5],[1,0.5]];portConstraint=eastwest;" parent="AHe2UkVYsW1YyN_bYUN4-1" vertex="1">
                    <mxGeometry y="110" width="130" height="26" as="geometry"/>
                </mxCell>
                <mxCell id="AHe2UkVYsW1YyN_bYUN4-6" value="drehe" style="text;align=left;verticalAlign=top;spacingLeft=4;spacingRight=4;overflow=hidden;rotatable=0;points=[[0,0.5],[1,0.5]];portConstraint=eastwest;fontStyle=0" parent="AHe2UkVYsW1YyN_bYUN4-1" vertex="1">
                    <mxGeometry y="136" width="130" height="26" as="geometry"/>
                </mxCell>
                <mxCell id="AHe2UkVYsW1YyN_bYUN4-7" value="gesteinVorhanden" style="text;align=left;verticalAlign=top;spacingLeft=4;spacingRight=4;overflow=hidden;rotatable=0;points=[[0,0.5],[1,0.5]];portConstraint=eastwest;fontStyle=0" parent="AHe2UkVYsW1YyN_bYUN4-1" vertex="1">
                    <mxGeometry y="162" width="130" height="26" as="geometry"/>
                </mxCell>
                <mxCell id="AHe2UkVYsW1YyN_bYUN4-8" value="funken" style="text;align=left;verticalAlign=top;spacingLeft=4;spacingRight=4;overflow=hidden;rotatable=0;points=[[0,0.5],[1,0.5]];portConstraint=eastwest;fontStyle=0" parent="AHe2UkVYsW1YyN_bYUN4-1" vertex="1">
                    <mxGeometry y="188" width="130" height="26" as="geometry"/>
                </mxCell>
                <mxCell id="AHe2UkVYsW1YyN_bYUN4-9" value="Funkgeraet" style="swimlane;fontStyle=0;align=center;verticalAlign=top;childLayout=stackLayout;horizontal=1;startSize=26;horizontalStack=0;resizeParent=1;resizeLast=0;collapsible=1;marginBottom=0;rounded=0;shadow=0;strokeWidth=1;" parent="SvDjPs0FLOlSSPxpTw0N-1" vertex="1">
                    <mxGeometry x="580" y="195" width="160" height="100" as="geometry">
                        <mxRectangle x="240" y="470" width="160" height="26" as="alternateBounds"/>
                    </mxGeometry>
                </mxCell>
                <mxCell id="AHe2UkVYsW1YyN_bYUN4-10" value="funkfrequenz: Buchstabe" style="text;align=left;verticalAlign=top;spacingLeft=4;spacingRight=4;overflow=hidden;rotatable=0;points=[[0,0.5],[1,0.5]];portConstraint=eastwest;" parent="AHe2UkVYsW1YyN_bYUN4-9" vertex="1">
                    <mxGeometry y="26" width="160" height="26" as="geometry"/>
                </mxCell>
                <mxCell id="AHe2UkVYsW1YyN_bYUN4-11" value="" style="line;html=1;strokeWidth=1;align=left;verticalAlign=middle;spacingTop=-1;spacingLeft=3;spacingRight=3;rotatable=0;labelPosition=right;points=[];portConstraint=eastwest;" parent="AHe2UkVYsW1YyN_bYUN4-9" vertex="1">
                    <mxGeometry y="52" width="160" height="8" as="geometry"/>
                </mxCell>
                <mxCell id="AHe2UkVYsW1YyN_bYUN4-12" value="funken" style="text;align=left;verticalAlign=top;spacingLeft=4;spacingRight=4;overflow=hidden;rotatable=0;points=[[0,0.5],[1,0.5]];portConstraint=eastwest;fontStyle=0" parent="AHe2UkVYsW1YyN_bYUN4-9" vertex="1">
                    <mxGeometry y="60" width="160" height="26" as="geometry"/>
                </mxCell>
                <mxCell id="AHe2UkVYsW1YyN_bYUN4-13" value="1" style="text;html=1;align=center;verticalAlign=middle;resizable=0;points=[];autosize=1;" parent="SvDjPs0FLOlSSPxpTw0N-1" vertex="1">
                    <mxGeometry x="560" y="212" width="20" height="20" as="geometry"/>
                </mxCell>
            </root>
        </mxGraphModel>
    </diagram>
    <diagram id="clkt8oS9Y1CxEfydzsdH" name="SeqD">
        <mxGraphModel dx="2574" dy="1480" grid="1" gridSize="10" guides="1" tooltips="1" connect="1" arrows="1" fold="1" page="1" pageScale="1" pageWidth="827" pageHeight="1169" math="0" shadow="0">
            <root>
                <mxCell id="JTDYmKBids2RKWa7jnGr-0"/>
                <mxCell id="JTDYmKBids2RKWa7jnGr-1" parent="JTDYmKBids2RKWa7jnGr-0"/>
                <mxCell id="tqwhe9DgVV70Y-ztAi8C-0" value="funky:Funkgeraet" style="shape=umlLifeline;perimeter=lifelinePerimeter;whiteSpace=wrap;html=1;container=1;collapsible=0;recursiveResize=0;outlineConnect=0;rounded=1;shadow=0;comic=0;labelBackgroundColor=none;strokeWidth=1;fontFamily=Verdana;fontSize=12;align=center;" vertex="1" parent="JTDYmKBids2RKWa7jnGr-1">
                    <mxGeometry x="410" y="70" width="120" height="230" as="geometry"/>
                </mxCell>
                <mxCell id="tqwhe9DgVV70Y-ztAi8C-1" value="" style="html=1;points=[];perimeter=orthogonalPerimeter;rounded=0;shadow=0;comic=0;labelBackgroundColor=none;strokeWidth=1;fontFamily=Verdana;fontSize=12;align=center;" vertex="1" parent="tqwhe9DgVV70Y-ztAi8C-0">
                    <mxGeometry x="55" y="130" width="10" height="70" as="geometry"/>
                </mxCell>
                <mxCell id="tqwhe9DgVV70Y-ztAi8C-2" value="rover1:Rover" style="shape=umlLifeline;perimeter=lifelinePerimeter;whiteSpace=wrap;html=1;container=1;collapsible=0;recursiveResize=0;outlineConnect=0;rounded=1;shadow=0;comic=0;labelBackgroundColor=none;strokeWidth=1;fontFamily=Verdana;fontSize=12;align=center;" vertex="1" parent="JTDYmKBids2RKWa7jnGr-1">
                    <mxGeometry x="220" y="70" width="100" height="240" as="geometry"/>
                </mxCell>
                <mxCell id="tqwhe9DgVV70Y-ztAi8C-3" value="" style="html=1;points=[];perimeter=orthogonalPerimeter;rounded=0;shadow=0;comic=0;labelBackgroundColor=none;strokeWidth=1;fontFamily=Verdana;fontSize=12;align=center;" vertex="1" parent="tqwhe9DgVV70Y-ztAi8C-2">
                    <mxGeometry x="45" y="100" width="10" height="120" as="geometry"/>
                </mxCell>
                <mxCell id="tqwhe9DgVV70Y-ztAi8C-4" value="funken(pNachricht: String)" style="html=1;verticalAlign=bottom;endArrow=block;entryX=0;entryY=0;labelBackgroundColor=none;fontFamily=Verdana;fontSize=12;edgeStyle=elbowEdgeStyle;elbow=vertical;" edge="1" parent="JTDYmKBids2RKWa7jnGr-1" source="tqwhe9DgVV70Y-ztAi8C-3" target="tqwhe9DgVV70Y-ztAi8C-1">
                    <mxGeometry relative="1" as="geometry">
                        <mxPoint x="340" y="180" as="sourcePoint"/>
                        <Array as="points">
                            <mxPoint x="440" y="200"/>
                        </Array>
                    </mxGeometry>
                </mxCell>
                <mxCell id="tqwhe9DgVV70Y-ztAi8C-5" value="" style="endArrow=classic;html=1;" edge="1" parent="JTDYmKBids2RKWa7jnGr-1">
                    <mxGeometry width="50" height="50" relative="1" as="geometry">
                        <mxPoint x="610" y="260" as="sourcePoint"/>
                        <mxPoint x="470" y="260" as="targetPoint"/>
                    </mxGeometry>
                </mxCell>
                <mxCell id="tqwhe9DgVV70Y-ztAi8C-6" value="" style="endArrow=none;html=1;" edge="1" parent="JTDYmKBids2RKWa7jnGr-1">
                    <mxGeometry width="50" height="50" relative="1" as="geometry">
                        <mxPoint x="610" y="260" as="sourcePoint"/>
                        <mxPoint x="610" y="210" as="targetPoint"/>
                    </mxGeometry>
                </mxCell>
                <mxCell id="tqwhe9DgVV70Y-ztAi8C-7" value="" style="endArrow=none;html=1;" edge="1" parent="JTDYmKBids2RKWa7jnGr-1">
                    <mxGeometry width="50" height="50" relative="1" as="geometry">
                        <mxPoint x="480" y="209.5" as="sourcePoint"/>
                        <mxPoint x="610" y="210" as="targetPoint"/>
                    </mxGeometry>
                </mxCell>
                <mxCell id="tqwhe9DgVV70Y-ztAi8C-8" value="funkgeraetVorhanden()" style="text;html=1;align=center;verticalAlign=middle;resizable=0;points=[];autosize=1;" vertex="1" parent="JTDYmKBids2RKWa7jnGr-1">
                    <mxGeometry x="483" y="190" width="140" height="20" as="geometry"/>
                </mxCell>
                <mxCell id="tqwhe9DgVV70Y-ztAi8C-9" value="" style="endArrow=classic;html=1;dashed=1;" edge="1" parent="JTDYmKBids2RKWa7jnGr-1" source="tqwhe9DgVV70Y-ztAi8C-0" target="tqwhe9DgVV70Y-ztAi8C-3">
                    <mxGeometry width="50" height="50" relative="1" as="geometry">
                        <mxPoint x="450" y="320" as="sourcePoint"/>
                        <mxPoint x="270" y="320" as="targetPoint"/>
                        <Array as="points">
                            <mxPoint x="400" y="270"/>
                        </Array>
                    </mxGeometry>
                </mxCell>
                <mxCell id="tqwhe9DgVV70Y-ztAi8C-11" value="funken(pNachricht: String)" style="html=1;verticalAlign=bottom;endArrow=block;labelBackgroundColor=none;fontFamily=Verdana;fontSize=12;edgeStyle=elbowEdgeStyle;elbow=vertical;" edge="1" parent="JTDYmKBids2RKWa7jnGr-1" target="tqwhe9DgVV70Y-ztAi8C-2">
                    <mxGeometry relative="1" as="geometry">
                        <mxPoint x="70" y="169.5" as="sourcePoint"/>
                        <mxPoint x="260" y="169.5" as="targetPoint"/>
                    </mxGeometry>
                </mxCell>
                <mxCell id="tqwhe9DgVV70Y-ztAi8C-12" value="funky:Funkgeraet" style="shape=umlLifeline;perimeter=lifelinePerimeter;whiteSpace=wrap;html=1;container=1;collapsible=0;recursiveResize=0;outlineConnect=0;rounded=1;shadow=0;comic=0;labelBackgroundColor=none;strokeWidth=1;fontFamily=Verdana;fontSize=12;align=center;" vertex="1" parent="JTDYmKBids2RKWa7jnGr-1">
                    <mxGeometry x="420" y="530" width="120" height="230" as="geometry"/>
                </mxCell>
                <mxCell id="tqwhe9DgVV70Y-ztAi8C-13" value="" style="html=1;points=[];perimeter=orthogonalPerimeter;rounded=0;shadow=0;comic=0;labelBackgroundColor=none;strokeWidth=1;fontFamily=Verdana;fontSize=12;align=center;" vertex="1" parent="tqwhe9DgVV70Y-ztAi8C-12">
                    <mxGeometry x="55" y="130" width="10" height="70" as="geometry"/>
                </mxCell>
                <mxCell id="tqwhe9DgVV70Y-ztAi8C-14" value="rover1:Rover" style="shape=umlLifeline;perimeter=lifelinePerimeter;whiteSpace=wrap;html=1;container=1;collapsible=0;recursiveResize=0;outlineConnect=0;rounded=1;shadow=0;comic=0;labelBackgroundColor=none;strokeWidth=1;fontFamily=Verdana;fontSize=12;align=center;" vertex="1" parent="JTDYmKBids2RKWa7jnGr-1">
                    <mxGeometry x="230" y="530" width="100" height="240" as="geometry"/>
                </mxCell>
                <mxCell id="tqwhe9DgVV70Y-ztAi8C-15" value="" style="html=1;points=[];perimeter=orthogonalPerimeter;rounded=0;shadow=0;comic=0;labelBackgroundColor=none;strokeWidth=1;fontFamily=Verdana;fontSize=12;align=center;" vertex="1" parent="tqwhe9DgVV70Y-ztAi8C-14">
                    <mxGeometry x="45" y="100" width="10" height="120" as="geometry"/>
                </mxCell>
                <mxCell id="tqwhe9DgVV70Y-ztAi8C-16" value="funken(pNachricht: String)" style="html=1;verticalAlign=bottom;endArrow=block;entryX=0;entryY=0;labelBackgroundColor=none;fontFamily=Verdana;fontSize=12;edgeStyle=elbowEdgeStyle;elbow=vertical;" edge="1" parent="JTDYmKBids2RKWa7jnGr-1" source="tqwhe9DgVV70Y-ztAi8C-15" target="tqwhe9DgVV70Y-ztAi8C-13">
                    <mxGeometry relative="1" as="geometry">
                        <mxPoint x="350" y="640" as="sourcePoint"/>
                        <Array as="points">
                            <mxPoint x="450" y="660"/>
                        </Array>
                    </mxGeometry>
                </mxCell>
                <mxCell id="tqwhe9DgVV70Y-ztAi8C-21" value="" style="endArrow=classic;html=1;dashed=1;" edge="1" parent="JTDYmKBids2RKWa7jnGr-1" source="tqwhe9DgVV70Y-ztAi8C-12" target="tqwhe9DgVV70Y-ztAi8C-15">
                    <mxGeometry width="50" height="50" relative="1" as="geometry">
                        <mxPoint x="460" y="780" as="sourcePoint"/>
                        <mxPoint x="280" y="780" as="targetPoint"/>
                        <Array as="points">
                            <mxPoint x="410" y="730"/>
                        </Array>
                    </mxGeometry>
                </mxCell>
                <mxCell id="tqwhe9DgVV70Y-ztAi8C-22" value="funken(pNachricht: String)" style="html=1;verticalAlign=bottom;endArrow=block;labelBackgroundColor=none;fontFamily=Verdana;fontSize=12;edgeStyle=elbowEdgeStyle;elbow=vertical;" edge="1" parent="JTDYmKBids2RKWa7jnGr-1" target="tqwhe9DgVV70Y-ztAi8C-14">
                    <mxGeometry relative="1" as="geometry">
                        <mxPoint x="80" y="629.5" as="sourcePoint"/>
                        <mxPoint x="270" y="629.5" as="targetPoint"/>
                    </mxGeometry>
                </mxCell>
            </root>
        </mxGraphModel>
    </diagram>
</mxfile>